<svg width="40" height="40" viewBox="0 0 40 40" fill="none" xmlns="http://www.w3.org/2000/svg">
<path d="M1.3349 12.3253C0.589539 11.5509 0.58954 10.3258 1.3349 9.55142L5.7343 4.98059C7.24242 3.4137 9.32345 2.52832 11.4982 2.52832H13.8655C14.8222 2.52832 15.6076 3.23718 16.0941 4.061C16.8992 5.42465 18.3474 6.33427 20 6.33427C21.6526 6.33427 23.1008 5.42465 23.9059 4.061C24.3924 3.23718 25.1778 2.52832 26.1345 2.52832H28.5018C30.6765 2.52832 32.7576 3.4137 34.2657 4.98059L38.6651 9.55142C39.4104 10.3258 39.4104 11.5509 38.6651 12.3253L35.2891 15.8328C34.5023 16.6503 33.1939 16.6503 32.4071 15.8328L31.9054 15.3116V34.3061C31.9054 35.4107 31.01 36.3061 29.9054 36.3061H10.0946C8.99002 36.3061 8.09459 35.4107 8.09459 34.3061V15.3116L7.59287 15.8328C6.8061 16.6503 5.49767 16.6503 4.71091 15.8328L1.3349 12.3253Z" fill="#F7D602"/>
<path d="M22.5 7V14" stroke="#202020" stroke-width="0.5"/>
<path d="M17.5 7V14" stroke="#202020" stroke-width="0.5"/>
<path d="M17 7V14" stroke="#202020" stroke-width="0.1"/>
<path d="M18 7V14" stroke="#202020" stroke-width="0.1"/>
<path d="M12 7V14" stroke="#202020" stroke-width="0.1"/>
<path d="M13 7V14" stroke="#202020" stroke-width="0.1"/>
<path d="M22 7V14" stroke="#202020" stroke-width="0.1"/>
<path d="M23 7V14" stroke="#202020" stroke-width="0.1"/>
<path d="M27 6V14" stroke="#202020" stroke-width="0.1"/>
<path d="M28 7V14" stroke="#202020" stroke-width="0.1"/>
<path d="M27.5 4V14" stroke="#202020" stroke-width="0.5"/>
<path d="M12.5 3V14" stroke="#202020" stroke-width="0.5"/>
<path d="M22.5 21V35" stroke="#202020" stroke-width="0.5"/>
<path d="M17.5 21V35" stroke="#202020" stroke-width="0.5"/>
<path d="M17 21V35" stroke="#202020" stroke-width="0.1"/>
<path d="M18 21V35" stroke="#202020" stroke-width="0.1"/>
<path d="M12 21V35" stroke="#202020" stroke-width="0.1"/>
<path d="M13 21V35" stroke="#202020" stroke-width="0.1"/>
<path d="M22 21V35" stroke="#202020" stroke-width="0.1"/>
<path d="M23 21V35" stroke="#202020" stroke-width="0.1"/>
<path d="M27 21V36" stroke="#202020" stroke-width="0.1"/>
<path d="M28 21V35" stroke="#202020" stroke-width="0.1"/>
<path d="M27.5 21V35" stroke="#202020" stroke-width="0.5"/>
<path d="M12.5 21V35" stroke="#202020" stroke-width="0.5"/>
<path d="M8 4.14304L15.5 4.14305L5.50566 15.438L1 11.1954L8 4.14304Z" fill="#202020"/>
<path d="M32.1057 4.14304L24.5 4.50004L34.6001 15.438L39.1057 11.1954L32.1057 4.14304Z" fill="#202020"/>
<path fill-rule="evenodd" clip-rule="evenodd" d="M29.9054 10.2995L33.8481 14.3959L37.2241 10.8883L32.8247 6.31748C31.6936 5.14231 30.1329 4.47827 28.5018 4.47827H26.1435C26.1292 4.48292 26.0947 4.49791 26.0374 4.5405C25.9186 4.62888 25.7672 4.79222 25.6281 5.02782C24.4912 6.9534 22.4135 8.28422 20 8.28422C17.5865 8.28422 15.5088 6.9534 14.3719 5.02782C14.2328 4.79222 14.0815 4.62888 13.9626 4.5405C13.9053 4.49791 13.8708 4.48292 13.8565 4.47827H11.4982C9.86714 4.47827 8.30637 5.14231 7.17528 6.31747L2.77588 10.8883L1.3349 9.50137L5.7343 4.93054C7.24242 3.36365 9.32345 2.47827 11.4982 2.47827H13.8655C14.8222 2.47827 15.6076 3.18713 16.0941 4.01095C16.8992 5.3746 18.3474 6.28422 20 6.28422C21.6526 6.28422 23.1008 5.3746 23.9059 4.01095C24.3924 3.18713 25.1778 2.47827 26.1345 2.47827H28.5018C30.6765 2.47827 32.7576 3.36365 34.2657 4.93054L38.6651 9.50137C39.4104 10.2758 39.4104 11.5008 38.6651 12.2752L35.2891 15.7828C34.91 16.1766 34.4099 16.3807 33.9054 16.3951C33.3627 16.4105 32.8149 16.2064 32.4071 15.7828L31.9054 15.2615V34.256C31.9054 35.3606 31.01 36.256 29.9054 36.256H10.0946C8.99002 36.256 8.09459 35.3606 8.09459 34.256V15.2615L7.59287 15.7828C7.18514 16.2064 6.63731 16.4105 6.09459 16.3951C5.59006 16.3807 5.08995 16.1766 4.71091 15.7828L1.3349 12.2752C0.589539 11.5008 0.58954 10.2758 1.3349 9.50137L2.77588 10.8883L6.15189 14.3959L10.0946 10.2995V34.256H29.9054V10.2995Z" fill="black"/>
</svg>
