<svg width="25" height="24" viewBox="0 0 25 24" fill="none" xmlns="http://www.w3.org/2000/svg">
<g clip-path="url(#clip0_407_65)">
<path d="M14.7836 8.15192L9.79569 0.797631C9.47081 0.300488 8.88793 0.000488281 8.24773 0.000488281H1.95076C0.565239 0.000488281 -0.304297 1.33763 0.374132 2.41763C1.63509 4.41882 3.41478 6.11816 5.56268 7.37192C6.28888 7.87763 7.18708 8.15192 8.11395 8.15192H14.7836Z" fill="#0074BA"/>
<path d="M22.3227 0.000488281H16.0258C15.3856 0.000488281 14.8027 0.300488 14.4778 0.797631L9.48992 8.15192H16.1691C17.096 8.15192 17.9846 7.87763 18.7204 7.37192C20.8703 6.12049 22.6476 4.42335 23.9089 2.41763C24.5778 1.33763 23.7083 0.000488281 22.3227 0.000488281Z" fill="#00A6ED"/>
<path d="M12.1291 24.0008C17.4275 24.0008 21.7227 20.052 21.7227 15.1808C21.7227 10.3097 17.4275 6.36084 12.1291 6.36084C6.83067 6.36084 2.53555 10.3097 2.53555 15.1808C2.53555 20.052 6.83067 24.0008 12.1291 24.0008Z" fill="#FFB02E"/>
<path d="M10.3002 12.0354C10.3002 11.808 10.4009 11.59 10.5801 11.4293C10.7593 11.2685 11.0023 11.1782 11.2557 11.1782H12.1387C12.3921 11.1782 12.6351 11.2685 12.8143 11.4293C12.9935 11.59 13.0942 11.808 13.0942 12.0354V18.0002C13.0942 18.2276 12.9935 18.4456 12.8143 18.6063C12.6351 18.7671 12.3921 18.8574 12.1387 18.8574C11.8852 18.8574 11.6422 18.7671 11.463 18.6063C11.2838 18.4456 11.1831 18.2276 11.1831 18.0002V12.8899C10.943 12.8735 10.7186 12.7764 10.5549 12.6179C10.3912 12.4595 10.3002 12.2514 10.3002 12.0354Z" fill="#6D4534"/>
<path d="M12.1387 22.9376C9.8836 22.9376 7.76231 22.1319 6.17613 20.6662C4.57989 19.2002 3.69089 17.2297 3.7013 15.1805C3.7013 13.1062 4.58039 11.1605 6.17613 9.69476C6.95039 8.977 7.87766 8.40624 8.9028 8.01645C9.92794 7.62665 11.03 7.42578 12.1434 7.42578C13.2569 7.42578 14.3589 7.62665 15.3841 8.01645C16.4092 8.40624 17.3365 8.977 18.1107 9.69476C21.3978 12.7205 21.3978 17.6405 18.1107 20.6662C16.5054 22.1319 14.3842 22.9376 12.1387 22.9376ZM12.1291 8.47762C10.2658 8.47762 8.39297 9.12905 6.97878 10.4405C5.60291 11.7086 4.83765 13.4109 4.84794 15.1805C4.84794 16.9719 5.60281 18.6519 6.97878 19.9205C7.64593 20.5416 8.44593 21.0356 9.33089 21.3728C10.2159 21.7101 11.1676 21.8837 12.1291 21.8833C14.0784 21.8833 15.9035 21.189 17.2794 19.9205C20.1174 17.3062 20.1174 13.0548 17.2794 10.4405C16.6129 9.81858 15.8131 9.32408 14.928 8.98675C14.0428 8.64942 13.0908 8.47623 12.1291 8.47762Z" fill="#FCD53F"/>
</g>
<defs>
<clipPath id="clip0_407_65">
<rect width="24" height="24" fill="white" transform="translate(0.13887 0.000488281)"/>
</clipPath>
</defs>
</svg>
