<svg width="25" height="25" viewBox="0 0 25 25" fill="none" xmlns="http://www.w3.org/2000/svg">
<g clip-path="url(#clip0_407_79)">
<path d="M15.2847 8.65192L10.2969 1.29763C9.97198 0.800488 9.38911 0.500488 8.7489 0.500488H2.45194C1.06641 0.500488 0.196877 1.83763 0.875306 2.91763C2.13626 4.91882 3.91596 6.61816 6.06385 7.87192C6.79006 8.37763 7.68826 8.65192 8.61513 8.65192H15.2847Z" fill="#0074BA"/>
<path d="M22.8239 0.500488H16.5269C15.8867 0.500488 15.3039 0.800488 14.979 1.29763L9.99109 8.65192H16.6703C17.5971 8.65192 18.4858 8.37763 19.2215 7.87192C21.3715 6.62049 23.1488 4.92335 24.4101 2.91763C25.079 1.83763 24.2094 0.500488 22.8239 0.500488Z" fill="#00A6ED"/>
<path d="M12.6303 24.5004C17.9287 24.5004 22.2238 20.5515 22.2238 15.6804C22.2238 10.8092 17.9287 6.86035 12.6303 6.86035C7.33184 6.86035 3.03672 10.8092 3.03672 15.6804C3.03672 20.5515 7.33184 24.5004 12.6303 24.5004Z" fill="#D3883E"/>
<path d="M12.6398 23.4376C10.3848 23.4376 8.26349 22.6319 6.6773 21.1662C5.08107 19.7002 4.19207 17.7297 4.20247 15.6805C4.20247 13.6062 5.08156 11.6605 6.6773 10.1948C7.45156 9.477 8.37884 8.90624 9.40398 8.51645C10.4291 8.12665 11.5312 7.92578 12.6446 7.92578C13.758 7.92578 14.8601 8.12665 15.8852 8.51645C16.9104 8.90624 17.8377 9.477 18.6119 10.1948C21.8989 13.2205 21.8989 18.1405 18.6119 21.1662C17.0066 22.6319 14.8853 23.4376 12.6398 23.4376ZM12.6303 8.97762C10.767 8.97762 8.89414 9.62905 7.47995 10.9405C6.10409 12.2086 5.33882 13.9109 5.34911 15.6805C5.34911 17.4719 6.10398 19.1519 7.47995 20.4205C8.1471 21.0416 8.9471 21.5356 9.83207 21.8728C10.717 22.2101 11.6688 22.3837 12.6303 22.3833C14.5796 22.3833 16.4046 21.689 17.7806 20.4205C20.6185 17.8062 20.6185 13.5548 17.7806 10.9405C17.1141 10.3186 16.3143 9.82408 15.4291 9.48675C14.544 9.14942 13.592 8.97623 12.6303 8.97762Z" fill="#F3AD61"/>
<path d="M13.9795 14.4507L14.9809 12.8993C15.0625 12.7719 15.1055 12.6275 15.1055 12.4806C15.1055 12.3336 15.0625 12.1892 14.9809 12.0618C14.8996 11.9345 14.7821 11.8287 14.6405 11.7552C14.4988 11.6817 14.338 11.6432 14.1744 11.6436H11.2199C10.9776 11.6505 10.7478 11.7417 10.5792 11.898C10.4105 12.0542 10.3162 12.2631 10.3162 12.4806C10.3162 12.698 10.4105 12.907 10.5792 13.0632C10.7478 13.2194 10.9776 13.3106 11.2199 13.3176H12.5605L11.842 14.4413C11.7105 14.5868 11.6384 14.7682 11.6375 14.9556C11.6375 15.4184 12.056 15.793 12.571 15.793C13.1539 15.793 13.6298 16.2198 13.6298 16.7427C13.6298 17.2656 13.1539 17.6933 12.571 17.6933C12.1238 17.6933 11.7254 17.4404 11.5792 17.065C11.496 16.8575 11.3248 16.688 11.1028 16.5933C10.8809 16.4986 10.6263 16.4863 10.3943 16.5593C10.279 16.5954 10.1728 16.6516 10.082 16.7248C9.99106 16.798 9.91726 16.8866 9.86482 16.9855C9.81238 17.0845 9.78235 17.1918 9.77647 17.3012C9.77059 17.4106 9.78898 17.52 9.83056 17.623C10.0337 18.1295 10.4057 18.5676 10.8959 18.878C11.3862 19.1883 11.971 19.3559 12.571 19.3578C13.3437 19.3572 14.0846 19.0815 14.631 18.5914C15.1774 18.1013 15.4847 17.4367 15.4854 16.7436C15.4842 16.2758 15.3441 15.8168 15.0794 15.4138C14.8147 15.0108 14.435 14.6783 13.9795 14.4507Z" fill="#402A32"/>
</g>
<defs>
<clipPath id="clip0_407_79">
<rect width="24" height="24" fill="white" transform="translate(0.640044 0.500488)"/>
</clipPath>
</defs>
</svg>
