<svg width="24" height="24" viewBox="0 0 24 24" fill="none" xmlns="http://www.w3.org/2000/svg">
<path d="M1.968 7.468L3.662 9.162C3.365 10.053 3.2 11.01 3.2 12C3.2 16.851 7.149 20.8 12 20.8C16.851 20.8 20.8 16.851 20.8 12C20.8 7.149 16.851 3.2 12 3.2C11.01 3.2 10.053 3.365 9.162 3.662L7.479 1.979C8.865 1.352 10.394 1 12 1C18.072 1 23 5.928 23 12C23 18.072 18.072 23 12 23C5.928 23 1 18.072 1 12C1 10.383 1.352 8.854 1.968 7.468ZM6.5 4.85C6.5 5.763 5.763 6.5 4.85 6.5C3.937 6.5 3.2 5.763 3.2 4.85C3.2 3.937 3.937 3.2 4.85 3.2C5.763 3.2 6.5 3.937 6.5 4.85ZM12.033 8.689H11.956L10.68 12.33H13.309L12.033 8.689ZM11.219 7.05H12.792L16.103 15.85H14.574L13.782 13.606H10.229L9.426 15.85H7.908L11.219 7.05Z" fill="black"/>
</svg>
