<svg width="24" height="24" viewBox="0 0 24 24" fill="none" xmlns="http://www.w3.org/2000/svg">
<path d="M19.0621 20.2183C17.1077 22.1726 12.1028 20.3363 7.88327 16.1167C3.66372 11.8972 1.82739 6.89227 3.7817 4.93795L5.06847 3.65118C5.9568 2.76286 7.42054 2.78634 8.33784 3.70363L10.3309 5.69672C11.2482 6.61401 11.2717 8.07776 10.3834 8.96609L10.107 9.24247C9.62737 9.72209 9.58045 10.4958 10.0261 11.0359C10.456 11.5568 10.9194 12.0756 11.4219 12.5781C11.9244 13.0806 12.4432 13.544 12.9641 13.9739C13.5042 14.4196 14.2779 14.3726 14.7575 13.893L15.0339 13.6166C15.9222 12.7283 17.386 12.7518 18.3033 13.6691L20.2964 15.6622C21.2137 16.5795 21.2371 18.0432 20.3488 18.9315L19.0621 20.2183Z" stroke="white" stroke-width="1.5"/>
</svg>
