<svg width="24" height="24" viewBox="0 0 24 24" fill="none" xmlns="http://www.w3.org/2000/svg">
<circle cx="3" cy="3" r="3" transform="matrix(-1 0 0 1 15 9)" stroke="white" stroke-width="1.5"/>
<path d="M16.5001 4.9375L16.8751 4.28798L16.8751 4.28798L16.5001 4.9375ZM16.5001 19.0621L16.1251 18.4126L16.1251 18.4126L16.5001 19.0621ZM7.50005 19.0621L7.12505 19.7117L7.12505 19.7117L7.50005 19.0621ZM7.50005 4.9375L7.87505 5.58702L7.50005 4.9375ZM8.98581 2.63375L8.23949 2.55955L8.98581 2.63375ZM2.54 9.42487L2.15446 10.0682L2.54 9.42487ZM2.41799 9.1299L1.69944 8.91498L2.41799 9.1299ZM4.94267 18.8527L5.2066 19.5547L4.94267 18.8527ZM4.65986 18.7914L5.21025 18.2819L5.21025 18.2819L4.65986 18.7914ZM9.16626 21.5928L9.37843 20.8735L9.16626 21.5928ZM8.98584 21.3662L8.23951 21.4403L8.98584 21.3662ZM15.0143 21.3662L15.7606 21.4403L15.0143 21.3662ZM14.8339 21.5928L15.046 22.3121L14.8339 21.5928ZM19.3402 18.7914L18.7898 18.2819L19.3402 18.7914ZM19.0574 18.8526L19.3213 18.1506L19.0574 18.8526ZM21.582 9.12991L20.8635 9.34483L21.582 9.12991ZM2.41799 14.8701L1.69944 15.085L2.41799 14.8701ZM2.54 14.5751L2.92554 15.2184L2.54 14.5751ZM19.0572 5.14712L19.321 5.84917L19.0572 5.14712ZM19.34 5.20837L19.8903 4.69887L19.34 5.20837ZM21.46 14.5751L21.0745 15.2184L21.46 14.5751ZM21.582 14.8701L22.3006 15.085L21.582 14.8701ZM15.0144 2.63379L14.268 2.708L15.0144 2.63379ZM14.8339 2.40724L14.6218 3.1266L14.8339 2.40724ZM14.268 2.708C14.3833 3.86696 15.037 4.95877 16.1251 5.58702L16.8751 4.28798C16.223 3.9115 15.8302 3.25845 15.7607 2.55958L14.268 2.708ZM16.1251 5.58702C17.1369 6.17118 18.3086 6.22968 19.321 5.84917L18.7933 4.44506C18.183 4.67444 17.4818 4.63825 16.8751 4.28798L16.1251 5.58702ZM22.3006 8.915C21.8243 7.32252 20.9893 5.886 19.8903 4.69887L18.7896 5.71788C19.7363 6.74054 20.4542 7.97658 20.8635 9.34483L22.3006 8.915ZM20.75 12C20.75 11.1805 21.1877 10.4625 21.8456 10.0682L21.0745 8.78157C19.9832 9.4356 19.25 10.6318 19.25 12H20.75ZM21.8456 13.9318C21.1877 13.5375 20.75 12.8195 20.75 12H19.25C19.25 13.3682 19.9832 14.5644 21.0745 15.2184L21.8456 13.9318ZM19.8906 19.3009C20.9894 18.1138 21.8243 16.6774 22.3006 15.085L20.8635 14.6552C20.4543 16.0233 19.7364 17.2593 18.7898 18.2819L19.8906 19.3009ZM16.8751 19.7117C17.4818 19.3614 18.1831 19.3252 18.7935 19.5547L19.3213 18.1506C18.3088 17.77 17.137 17.8284 16.1251 18.4126L16.8751 19.7117ZM15.7606 21.4403C15.83 20.7414 16.2229 20.0882 16.8751 19.7117L16.1251 18.4126C15.0368 19.041 14.3831 20.133 14.268 21.2921L15.7606 21.4403ZM12 22.75C13.0569 22.75 14.0794 22.5973 15.046 22.3121L14.6217 20.8734C13.7914 21.1183 12.9117 21.25 12 21.25V22.75ZM8.95409 22.3122C9.92068 22.5973 10.9432 22.75 12 22.75V21.25C11.0883 21.25 10.2087 21.1183 9.37843 20.8735L8.95409 22.3122ZM7.12505 19.7117C7.77722 20.0882 8.17009 20.7414 8.23951 21.4403L9.73216 21.2921C9.61705 20.133 8.96335 19.041 7.87505 18.4126L7.12505 19.7117ZM5.2066 19.5547C5.81696 19.3252 6.51828 19.3613 7.12505 19.7117L7.87505 18.4126C6.86311 17.8284 5.69127 17.77 4.67873 18.1506L5.2066 19.5547ZM1.69944 15.085C2.17572 16.6774 3.01062 18.1138 4.10947 19.3009L5.21025 18.2819C4.26362 17.2593 3.54575 16.0233 3.13654 14.6552L1.69944 15.085ZM3.25004 12C3.25004 12.8195 2.81238 13.5375 2.15445 13.9318L2.92554 15.2184C4.01685 14.5644 4.75004 13.3682 4.75004 12H3.25004ZM2.15446 10.0682C2.81238 10.4625 3.25004 11.1805 3.25004 12H4.75004C4.75004 10.6318 4.01685 9.43558 2.92554 8.78156L2.15446 10.0682ZM4.10974 4.69883C3.01075 5.88596 2.17576 7.32249 1.69944 8.91498L3.13654 9.34482C3.54578 7.97656 4.26374 6.7405 5.21048 5.71784L4.10974 4.69883ZM7.12505 4.28798C6.51834 4.63827 5.81709 4.67444 5.20677 4.44504L4.67901 5.84912C5.69149 6.22969 6.86321 6.17121 7.87505 5.58702L7.12505 4.28798ZM8.23949 2.55955C8.17 3.25843 7.77715 3.91149 7.12505 4.28798L7.87505 5.58702C8.96323 4.95876 9.6169 3.86693 9.73213 2.70795L8.23949 2.55955ZM12 1.25C10.9432 1.25 9.92066 1.40274 8.95406 1.68783L9.3784 3.12655C10.2087 2.88167 11.0883 2.75 12 2.75V1.25ZM15.0461 1.68788C14.0795 1.40275 13.0569 1.25 12 1.25V2.75C12.9118 2.75 13.7915 2.88169 14.6218 3.1266L15.0461 1.68788ZM9.73213 2.70795C9.71569 2.87335 9.60087 3.06094 9.3784 3.12655L8.95406 1.68783C8.52929 1.81311 8.2768 2.18427 8.23949 2.55955L9.73213 2.70795ZM2.92554 8.78156C3.08323 8.87606 3.21188 9.0929 3.13654 9.34482L1.69944 8.91498C1.55603 9.39447 1.79302 9.85158 2.15446 10.0682L2.92554 8.78156ZM4.67873 18.1506C4.83433 18.0921 5.05302 18.1121 5.21025 18.2819L4.10947 19.3009C4.40983 19.6254 4.8538 19.6873 5.2066 19.5547L4.67873 18.1506ZM9.37843 20.8735C9.60092 20.9391 9.71574 21.1267 9.73216 21.2921L8.23951 21.4403C8.27678 21.8157 8.52927 22.1869 8.95409 22.3122L9.37843 20.8735ZM14.268 21.2921C14.2844 21.1267 14.3992 20.939 14.6217 20.8734L15.046 22.3121C15.4708 22.1869 15.7233 21.8156 15.7606 21.4403L14.268 21.2921ZM18.7898 18.2819C18.947 18.112 19.1657 18.0921 19.3213 18.1506L18.7935 19.5547C19.1463 19.6873 19.5902 19.6253 19.8906 19.3009L18.7898 18.2819ZM20.8635 9.34483C20.7881 9.09292 20.9168 8.87607 21.0745 8.78157L21.8456 10.0682C22.207 9.85159 22.444 9.39448 22.3006 8.915L20.8635 9.34483ZM3.13654 14.6552C3.21188 14.9071 3.08323 15.1239 2.92554 15.2184L2.15445 13.9318C1.79302 14.1484 1.55603 14.6055 1.69944 15.085L3.13654 14.6552ZM19.321 5.84917C19.1654 5.90765 18.9468 5.8877 18.7896 5.71788L19.8903 4.69887C19.59 4.37446 19.1461 4.31248 18.7933 4.44506L19.321 5.84917ZM5.21048 5.71784C5.05326 5.88767 4.8346 5.90761 4.67901 5.84912L5.20677 4.44504C4.85399 4.31243 4.41008 4.3744 4.10974 4.69883L5.21048 5.71784ZM21.0745 15.2184C20.9168 15.1239 20.7881 14.9071 20.8635 14.6552L22.3006 15.085C22.444 14.6055 22.207 14.1484 21.8456 13.9318L21.0745 15.2184ZM15.7607 2.55958C15.7234 2.18431 15.4709 1.81316 15.0461 1.68788L14.6218 3.1266C14.3993 3.06098 14.2845 2.87339 14.268 2.708L15.7607 2.55958Z" fill="white"/>
</svg>
