<svg width="24" height="24" viewBox="0 0 24 24" fill="none" xmlns="http://www.w3.org/2000/svg">
<path d="M12 2.25C10.0716 2.25 8.18657 2.82183 6.58319 3.89317C4.97981 4.96452 3.73013 6.48726 2.99217 8.26884C2.25422 10.0504 2.06113 12.0108 2.43734 13.9021C2.81355 15.7934 3.74214 17.5307 5.10571 18.8943C6.46927 20.2579 8.20655 21.1865 10.0979 21.5627C11.9892 21.9389 13.9496 21.7458 15.7312 21.0078C17.5127 20.2699 19.0355 19.0202 20.1068 17.4168C21.1782 15.8134 21.75 13.9284 21.75 12C21.747 9.41505 20.7188 6.93683 18.891 5.109C17.0632 3.28116 14.5849 2.25298 12 2.25ZM20.25 12C20.2507 12.7608 20.1456 13.5181 19.9378 14.25H16.3275C16.5576 12.7588 16.5576 11.2412 16.3275 9.75H19.9378C20.1456 10.4819 20.2507 11.2392 20.25 12ZM9.5625 15.75H14.4375C13.9573 17.3237 13.1235 18.7667 12 19.9688C10.877 18.7663 10.0433 17.3234 9.5625 15.75ZM9.19687 14.25C8.93931 12.7611 8.93931 11.2389 9.19687 9.75H14.8106C15.0682 11.2389 15.0682 12.7611 14.8106 14.25H9.19687ZM3.75 12C3.74933 11.2392 3.8544 10.4819 4.06218 9.75H7.6725C7.44243 11.2412 7.44243 12.7588 7.6725 14.25H4.06218C3.8544 13.5181 3.74933 12.7608 3.75 12ZM14.4375 8.25H9.5625C10.0427 6.67631 10.8765 5.23328 12 4.03125C13.123 5.23367 13.9566 6.67657 14.4375 8.25ZM19.3434 8.25H16.0041C15.5831 6.70587 14.8738 5.25534 13.9134 3.975C15.0738 4.25375 16.1601 4.7801 17.098 5.51799C18.0359 6.25588 18.8032 7.18784 19.3472 8.25H19.3434ZM10.0866 3.975C9.12622 5.25534 8.41686 6.70587 7.99593 8.25H4.65281C5.19681 7.18784 5.96406 6.25588 6.90195 5.51799C7.83985 4.7801 8.92621 4.25375 10.0866 3.975ZM4.65281 15.75H7.99593C8.41686 17.2941 9.12622 18.7447 10.0866 20.025C8.92621 19.7463 7.83985 19.2199 6.90195 18.482C5.96406 17.7441 5.19681 16.8122 4.65281 15.75ZM13.9134 20.025C14.8738 18.7447 15.5831 17.2941 16.0041 15.75H19.3472C18.8032 16.8122 18.0359 17.7441 17.098 18.482C16.1601 19.2199 15.0738 19.7463 13.9134 20.025Z" fill="white"/>
</svg>
