<svg width="3975" height="875" viewBox="0 0 3975 875" fill="none" xmlns="http://www.w3.org/2000/svg">
<mask id="path-1-outside-1_140_60" maskUnits="userSpaceOnUse" x="659" y="255" width="3294" height="452" fill="black">
<rect fill="white" x="659" y="255" width="3294" height="452"/>
<path d="M662.608 694V641.836L683.86 639.904C696.311 638.616 702.536 632.605 702.536 621.872V322.412L665.828 320.48V265.74H841.64C891.443 265.74 929.653 274.971 956.272 293.432C982.891 311.893 996.2 342.161 996.2 384.236C996.2 413.431 988.472 437.473 973.016 456.364C957.989 475.255 939.957 488.993 918.92 497.58C934.376 503.161 946.612 516.256 955.628 536.864L1002 637.972L1038.7 639.26V694H879.636V641.836L898.312 639.904C908.187 638.616 913.124 634.752 913.124 628.312C913.124 625.736 912.265 622.731 910.548 619.296L880.28 554.896C875.557 544.163 870.191 536.649 864.18 532.356C858.599 527.633 850.441 525.272 839.708 525.272H781.104V637.328L822.964 639.26V694H662.608ZM781.104 464.092H837.132C889.94 464.092 916.344 440.479 916.344 393.252C916.344 366.204 909.26 348.601 895.092 340.444C881.353 332.287 859.028 328.208 828.116 328.208H781.104V464.092ZM1286.93 258.012C1338.02 258.012 1380.74 276.044 1415.09 312.108C1449.43 348.172 1466.61 403.341 1466.61 477.616C1466.61 551.461 1449.43 607.489 1415.09 645.7C1381.17 683.481 1335.02 702.372 1276.63 702.372C1218.67 702.372 1173.16 683.481 1140.1 645.7C1107.04 607.919 1090.51 552.964 1090.51 480.836C1090.51 441.337 1096.31 406.776 1107.9 377.152C1119.49 347.099 1134.73 323.915 1153.62 307.6C1191.83 274.541 1236.27 258.012 1286.93 258.012ZM1171.01 477.616C1171.01 584.091 1207.93 637.328 1281.78 637.328C1321.28 637.328 1348.97 621.013 1364.85 588.384C1379.45 559.619 1386.75 524.413 1386.75 482.768C1386.75 445.416 1380.31 411.069 1367.43 379.728C1360.13 362.555 1348.97 349.031 1333.94 339.156C1319.35 329.281 1300.24 324.344 1276.63 324.344C1253.01 324.344 1232.62 332.072 1215.45 347.528C1198.7 362.984 1187.11 381.66 1180.67 403.556C1174.23 425.452 1171.01 450.139 1171.01 477.616ZM1851.12 694H1545.22V641.836L1566.47 639.904C1578.92 638.616 1585.14 632.605 1585.14 621.872V322.412L1548.44 320.48V265.74H1703.64V317.904L1682.39 319.836C1669.94 321.124 1663.71 327.993 1663.71 340.444V627.668H1770.62C1776.63 627.668 1780.49 626.165 1782.21 623.16C1784.35 619.725 1785.43 614.359 1785.43 607.06V561.98L1851.12 566.488V694ZM1963.24 618.652V322.412L1926.53 320.48V265.74H2082.38V317.904L2061.13 319.836C2048.68 321.124 2042.45 327.993 2042.45 340.444V637.328L2079.16 639.26V694H1923.31V641.836L1944.57 639.904C1951.01 639.045 1955.73 637.328 1958.73 634.752C1961.74 631.747 1963.24 626.38 1963.24 618.652ZM2495.6 543.948V660.512C2455.67 687.989 2406.08 701.728 2346.83 701.728C2287.59 701.728 2241.22 683.267 2207.73 646.344C2174.67 608.992 2158.14 553.823 2158.14 480.836C2158.14 448.636 2162.22 419.656 2170.38 393.896C2178.96 368.136 2189.91 346.884 2203.22 330.14C2216.96 313.396 2232.85 299.443 2250.88 288.28C2285.22 268.101 2324.08 258.012 2367.44 258.012C2411.23 258.012 2452.02 266.813 2489.8 284.416V393.896L2424.11 398.404V348.172C2424.11 341.732 2423.26 337.009 2421.54 334.004C2416.82 325.847 2397.28 321.768 2362.93 321.768C2280.07 321.768 2238.64 373.073 2238.64 475.684C2238.64 583.876 2275.99 637.972 2350.7 637.972C2380.32 637.972 2403.08 632.82 2418.96 622.516V526.56H2418.32L2368.73 524.628V469.888H2529.09V521.408L2514.27 522.696C2507.4 523.555 2502.47 525.487 2499.46 528.492C2496.89 531.068 2495.6 536.22 2495.6 543.948ZM2608.36 621.872L2712.04 321.768L2671.47 317.904V265.74H2818.95L2950.32 637.328H2950.97L2987.67 639.26V694H2821.52V641.836L2845.99 639.904C2853.29 639.045 2858.23 637.328 2860.81 634.752C2863.38 632.176 2863.6 627.453 2861.45 620.584L2847.93 580.656H2697.23L2677.91 637.328L2716.55 639.26V694H2567.79V641.836L2589.04 639.904C2598.05 639.045 2604.49 633.035 2608.36 621.872ZM2772.58 337.868L2712.69 521.408H2832.47L2774.51 337.868H2772.58ZM3095.94 703.66C3080.91 703.66 3069.32 699.581 3061.16 691.424C3053 682.837 3048.92 671.889 3048.92 658.58C3048.92 644.841 3053 633.679 3061.16 625.092C3069.75 616.076 3081.12 611.568 3095.29 611.568C3109.89 611.568 3121.48 615.861 3130.07 624.448C3138.66 632.605 3142.95 643.553 3142.95 657.292C3142.95 670.601 3138.87 681.764 3130.71 690.78C3122.56 699.367 3110.96 703.66 3095.94 703.66ZM3310.59 341.088V554.896C3310.59 584.949 3317.67 606.201 3331.84 618.652C3346.44 630.673 3367.05 636.684 3393.67 636.684C3420.71 636.684 3441.54 630.029 3456.13 616.72C3471.16 603.411 3478.67 583.876 3478.67 558.116V322.412L3441.32 320.48V265.74H3593.95V317.904L3572.7 319.836C3560.25 321.124 3554.02 327.564 3554.02 339.156V569.064C3554.02 610.709 3539.42 643.339 3510.23 666.952C3481.04 690.565 3440.68 702.372 3389.16 702.372C3337.64 702.372 3298.57 690.995 3271.95 668.24C3245.76 645.056 3232.67 608.563 3232.67 558.76V322.412L3195.31 320.48V265.74H3351.16V317.904L3329.91 319.836C3323.04 320.695 3318.1 322.627 3315.1 325.632C3312.09 328.208 3310.59 333.36 3310.59 341.088ZM3938.76 317.904L3742.34 632.82H3867.27C3878.01 632.82 3883.37 625.951 3883.37 612.212V567.132L3949.06 571.64V694H3652.82V640.548L3847.31 326.92H3740.4C3728.81 326.92 3723.02 333.575 3723.02 346.884V372.644L3657.33 368.136V265.74H3938.76V317.904Z"/>
</mask>
<path d="M662.608 694V641.836L683.86 639.904C696.311 638.616 702.536 632.605 702.536 621.872V322.412L665.828 320.48V265.74H841.64C891.443 265.74 929.653 274.971 956.272 293.432C982.891 311.893 996.2 342.161 996.2 384.236C996.2 413.431 988.472 437.473 973.016 456.364C957.989 475.255 939.957 488.993 918.92 497.58C934.376 503.161 946.612 516.256 955.628 536.864L1002 637.972L1038.7 639.26V694H879.636V641.836L898.312 639.904C908.187 638.616 913.124 634.752 913.124 628.312C913.124 625.736 912.265 622.731 910.548 619.296L880.28 554.896C875.557 544.163 870.191 536.649 864.18 532.356C858.599 527.633 850.441 525.272 839.708 525.272H781.104V637.328L822.964 639.26V694H662.608ZM781.104 464.092H837.132C889.94 464.092 916.344 440.479 916.344 393.252C916.344 366.204 909.26 348.601 895.092 340.444C881.353 332.287 859.028 328.208 828.116 328.208H781.104V464.092ZM1286.93 258.012C1338.02 258.012 1380.74 276.044 1415.09 312.108C1449.43 348.172 1466.61 403.341 1466.61 477.616C1466.61 551.461 1449.43 607.489 1415.09 645.7C1381.17 683.481 1335.02 702.372 1276.63 702.372C1218.67 702.372 1173.16 683.481 1140.1 645.7C1107.04 607.919 1090.51 552.964 1090.51 480.836C1090.51 441.337 1096.31 406.776 1107.9 377.152C1119.49 347.099 1134.73 323.915 1153.62 307.6C1191.83 274.541 1236.27 258.012 1286.93 258.012ZM1171.01 477.616C1171.01 584.091 1207.93 637.328 1281.78 637.328C1321.28 637.328 1348.97 621.013 1364.85 588.384C1379.45 559.619 1386.75 524.413 1386.75 482.768C1386.75 445.416 1380.31 411.069 1367.43 379.728C1360.13 362.555 1348.97 349.031 1333.94 339.156C1319.35 329.281 1300.24 324.344 1276.63 324.344C1253.01 324.344 1232.62 332.072 1215.45 347.528C1198.7 362.984 1187.11 381.66 1180.67 403.556C1174.23 425.452 1171.01 450.139 1171.01 477.616ZM1851.12 694H1545.22V641.836L1566.47 639.904C1578.92 638.616 1585.14 632.605 1585.14 621.872V322.412L1548.44 320.48V265.74H1703.64V317.904L1682.39 319.836C1669.94 321.124 1663.71 327.993 1663.71 340.444V627.668H1770.62C1776.63 627.668 1780.49 626.165 1782.21 623.16C1784.35 619.725 1785.43 614.359 1785.43 607.06V561.98L1851.12 566.488V694ZM1963.24 618.652V322.412L1926.53 320.48V265.74H2082.38V317.904L2061.13 319.836C2048.68 321.124 2042.45 327.993 2042.45 340.444V637.328L2079.16 639.26V694H1923.31V641.836L1944.57 639.904C1951.01 639.045 1955.73 637.328 1958.73 634.752C1961.74 631.747 1963.24 626.38 1963.24 618.652ZM2495.6 543.948V660.512C2455.67 687.989 2406.08 701.728 2346.83 701.728C2287.59 701.728 2241.22 683.267 2207.73 646.344C2174.67 608.992 2158.14 553.823 2158.14 480.836C2158.14 448.636 2162.22 419.656 2170.38 393.896C2178.96 368.136 2189.91 346.884 2203.22 330.14C2216.96 313.396 2232.85 299.443 2250.88 288.28C2285.22 268.101 2324.08 258.012 2367.44 258.012C2411.23 258.012 2452.02 266.813 2489.8 284.416V393.896L2424.11 398.404V348.172C2424.11 341.732 2423.26 337.009 2421.54 334.004C2416.82 325.847 2397.28 321.768 2362.93 321.768C2280.07 321.768 2238.64 373.073 2238.64 475.684C2238.64 583.876 2275.99 637.972 2350.7 637.972C2380.32 637.972 2403.08 632.82 2418.96 622.516V526.56H2418.32L2368.73 524.628V469.888H2529.09V521.408L2514.27 522.696C2507.4 523.555 2502.47 525.487 2499.46 528.492C2496.89 531.068 2495.6 536.22 2495.6 543.948ZM2608.36 621.872L2712.04 321.768L2671.47 317.904V265.74H2818.95L2950.32 637.328H2950.97L2987.67 639.26V694H2821.52V641.836L2845.99 639.904C2853.29 639.045 2858.23 637.328 2860.81 634.752C2863.38 632.176 2863.6 627.453 2861.45 620.584L2847.93 580.656H2697.23L2677.91 637.328L2716.55 639.26V694H2567.79V641.836L2589.04 639.904C2598.05 639.045 2604.49 633.035 2608.36 621.872ZM2772.58 337.868L2712.69 521.408H2832.47L2774.51 337.868H2772.58ZM3095.94 703.66C3080.91 703.66 3069.32 699.581 3061.16 691.424C3053 682.837 3048.92 671.889 3048.92 658.58C3048.92 644.841 3053 633.679 3061.16 625.092C3069.75 616.076 3081.12 611.568 3095.29 611.568C3109.89 611.568 3121.48 615.861 3130.07 624.448C3138.66 632.605 3142.95 643.553 3142.95 657.292C3142.95 670.601 3138.87 681.764 3130.71 690.78C3122.56 699.367 3110.96 703.66 3095.94 703.66ZM3310.59 341.088V554.896C3310.59 584.949 3317.67 606.201 3331.84 618.652C3346.44 630.673 3367.05 636.684 3393.67 636.684C3420.71 636.684 3441.54 630.029 3456.13 616.72C3471.16 603.411 3478.67 583.876 3478.67 558.116V322.412L3441.32 320.48V265.74H3593.95V317.904L3572.7 319.836C3560.25 321.124 3554.02 327.564 3554.02 339.156V569.064C3554.02 610.709 3539.42 643.339 3510.23 666.952C3481.04 690.565 3440.68 702.372 3389.16 702.372C3337.64 702.372 3298.57 690.995 3271.95 668.24C3245.76 645.056 3232.67 608.563 3232.67 558.76V322.412L3195.31 320.48V265.74H3351.16V317.904L3329.91 319.836C3323.04 320.695 3318.1 322.627 3315.1 325.632C3312.09 328.208 3310.59 333.36 3310.59 341.088ZM3938.76 317.904L3742.34 632.82H3867.27C3878.01 632.82 3883.37 625.951 3883.37 612.212V567.132L3949.06 571.64V694H3652.82V640.548L3847.31 326.92H3740.4C3728.81 326.92 3723.02 333.575 3723.02 346.884V372.644L3657.33 368.136V265.74H3938.76V317.904Z" fill="#FAD515"/>
<path d="M662.608 694H659.608V697H662.608V694ZM662.608 641.836L662.336 638.848L659.608 639.096V641.836H662.608ZM683.86 639.904L684.132 642.892L684.15 642.89L684.169 642.888L683.86 639.904ZM702.536 322.412H705.536V319.566L702.694 319.416L702.536 322.412ZM665.828 320.48H662.828V323.326L665.67 323.476L665.828 320.48ZM665.828 265.74V262.74H662.828V265.74H665.828ZM956.272 293.432L957.982 290.967L957.982 290.967L956.272 293.432ZM973.016 456.364L970.694 454.464L970.681 454.48L970.668 454.496L973.016 456.364ZM918.92 497.58L917.786 494.802L910.562 497.751L917.901 500.402L918.92 497.58ZM955.628 536.864L952.88 538.066L952.89 538.091L952.901 538.115L955.628 536.864ZM1002 637.972L999.269 639.223L1000.04 640.905L1001.89 640.97L1002 637.972ZM1038.7 639.26H1041.7V636.363L1038.81 636.262L1038.7 639.26ZM1038.7 694V697H1041.7V694H1038.7ZM879.636 694H876.636V697H879.636V694ZM879.636 641.836L879.327 638.852L876.636 639.13V641.836H879.636ZM898.312 639.904L898.621 642.888L898.66 642.884L898.7 642.879L898.312 639.904ZM910.548 619.296L907.833 620.572L907.848 620.605L907.865 620.638L910.548 619.296ZM880.28 554.896L877.534 556.104L877.549 556.138L877.565 556.172L880.28 554.896ZM864.18 532.356L862.242 534.646L862.336 534.726L862.436 534.797L864.18 532.356ZM781.104 525.272V522.272H778.104V525.272H781.104ZM781.104 637.328H778.104V640.193L780.966 640.325L781.104 637.328ZM822.964 639.26H825.964V636.395L823.102 636.263L822.964 639.26ZM822.964 694V697H825.964V694H822.964ZM781.104 464.092H778.104V467.092H781.104V464.092ZM895.092 340.444L893.56 343.024L893.578 343.034L893.595 343.044L895.092 340.444ZM781.104 328.208V325.208H778.104V328.208H781.104ZM665.608 694V641.836H659.608V694H665.608ZM662.88 644.824L684.132 642.892L683.588 636.916L662.336 638.848L662.88 644.824ZM684.169 642.888C690.773 642.205 696.181 640.228 699.951 636.588C703.784 632.888 705.536 627.844 705.536 621.872H699.536C699.536 626.633 698.176 629.962 695.783 632.272C693.327 634.643 689.398 636.315 683.551 636.92L684.169 642.888ZM705.536 621.872V322.412H699.536V621.872H705.536ZM702.694 319.416L665.986 317.484L665.67 323.476L702.378 325.408L702.694 319.416ZM668.828 320.48V265.74H662.828V320.48H668.828ZM665.828 268.74H841.64V262.74H665.828V268.74ZM841.64 268.74C891.138 268.74 928.649 277.925 954.562 295.897L957.982 290.967C930.657 272.016 891.747 262.74 841.64 262.74V268.74ZM954.562 295.897C980.137 313.635 993.2 342.818 993.2 384.236H999.2C999.2 341.504 985.644 310.152 957.982 290.967L954.562 295.897ZM993.2 384.236C993.2 412.879 985.63 436.21 970.694 454.464L975.338 458.264C991.314 438.737 999.2 413.982 999.2 384.236H993.2ZM970.668 454.496C955.941 473.011 938.318 486.422 917.786 494.802L920.054 500.358C941.597 491.564 960.038 477.499 975.364 458.232L970.668 454.496ZM917.901 500.402C932.331 505.612 944.068 517.926 952.88 538.066L958.376 535.662C949.156 514.586 936.421 500.71 919.939 494.758L917.901 500.402ZM952.901 538.115L999.269 639.223L1004.72 636.721L958.355 535.613L952.901 538.115ZM1001.89 640.97L1038.6 642.258L1038.81 636.262L1002.1 634.974L1001.89 640.97ZM1035.7 639.26V694H1041.7V639.26H1035.7ZM1038.7 691H879.636V697H1038.7V691ZM882.636 694V641.836H876.636V694H882.636ZM879.945 644.82L898.621 642.888L898.003 636.92L879.327 638.852L879.945 644.82ZM898.7 642.879C903.886 642.202 908.198 640.806 911.27 638.403C914.488 635.884 916.124 632.425 916.124 628.312H910.124C910.124 630.639 909.291 632.332 907.572 633.677C905.707 635.137 902.613 636.318 897.924 636.929L898.7 642.879ZM916.124 628.312C916.124 625.098 915.063 621.618 913.231 617.954L907.865 620.638C909.468 623.843 910.124 626.374 910.124 628.312H916.124ZM913.263 618.02L882.995 553.62L877.565 556.172L907.833 620.572L913.263 618.02ZM883.026 553.688C878.202 542.724 872.559 534.655 865.924 529.915L862.436 534.797C867.822 538.644 872.913 545.601 877.534 556.104L883.026 553.688ZM866.118 530.066C859.791 524.712 850.828 522.272 839.708 522.272V528.272C850.055 528.272 857.407 530.554 862.242 534.646L866.118 530.066ZM839.708 522.272H781.104V528.272H839.708V522.272ZM778.104 525.272V637.328H784.104V525.272H778.104ZM780.966 640.325L822.826 642.257L823.102 636.263L781.242 634.331L780.966 640.325ZM819.964 639.26V694H825.964V639.26H819.964ZM822.964 691H662.608V697H822.964V691ZM781.104 467.092H837.132V461.092H781.104V467.092ZM837.132 467.092C863.921 467.092 884.573 461.11 898.541 448.618C912.573 436.069 919.344 417.42 919.344 393.252H913.344C913.344 416.311 906.913 433.081 894.541 444.146C882.105 455.267 863.151 461.092 837.132 461.092V467.092ZM919.344 393.252C919.344 365.863 912.183 346.822 896.589 337.844L893.595 343.044C906.337 350.38 913.344 366.545 913.344 393.252H919.344ZM896.624 337.864C882.16 329.277 859.148 325.208 828.116 325.208V331.208C858.908 331.208 880.546 335.297 893.56 343.024L896.624 337.864ZM828.116 325.208H781.104V331.208H828.116V325.208ZM778.104 328.208V464.092H784.104V328.208H778.104ZM1415.09 312.108L1417.26 310.039L1417.26 310.039L1415.09 312.108ZM1415.09 645.7L1412.86 643.694L1412.85 643.696L1415.09 645.7ZM1140.1 645.7L1142.36 643.724L1142.36 643.724L1140.1 645.7ZM1107.9 377.152L1110.69 378.245L1110.7 378.238L1110.7 378.232L1107.9 377.152ZM1153.62 307.6L1155.58 309.87L1155.59 309.869L1153.62 307.6ZM1364.85 588.384L1362.18 587.026L1362.17 587.049L1362.16 587.071L1364.85 588.384ZM1367.43 379.728L1370.21 378.588L1370.2 378.571L1370.19 378.555L1367.43 379.728ZM1333.94 339.156L1332.26 341.641L1332.28 341.652L1332.3 341.663L1333.94 339.156ZM1215.45 347.528L1213.44 345.298L1213.43 345.311L1213.41 345.324L1215.45 347.528ZM1180.67 403.556L1177.79 402.709L1177.79 402.709L1180.67 403.556ZM1286.93 261.012C1337.22 261.012 1379.15 278.725 1412.91 314.177L1417.26 310.039C1382.33 273.363 1338.82 255.012 1286.93 255.012V261.012ZM1412.91 314.177C1446.52 349.462 1463.61 403.739 1463.61 477.616H1469.61C1469.61 402.943 1452.35 346.882 1417.26 310.039L1412.91 314.177ZM1463.61 477.616C1463.61 551.041 1446.53 606.234 1412.86 643.694L1417.32 647.706C1452.34 608.745 1469.61 551.882 1469.61 477.616H1463.61ZM1412.85 643.696C1379.59 680.746 1334.31 699.372 1276.63 699.372V705.372C1335.73 705.372 1382.75 686.217 1417.32 647.704L1412.85 643.696ZM1276.63 699.372C1219.38 699.372 1174.75 680.751 1142.36 643.724L1137.84 647.676C1171.56 686.212 1217.95 705.372 1276.63 705.372V699.372ZM1142.36 643.724C1109.95 606.687 1093.51 552.55 1093.51 480.836H1087.51C1087.51 553.378 1104.13 609.151 1137.84 647.676L1142.36 643.724ZM1093.51 480.836C1093.51 441.624 1099.27 407.448 1110.69 378.245L1105.11 376.059C1093.35 406.104 1087.51 441.05 1087.51 480.836H1093.51ZM1110.7 378.232C1122.16 348.508 1137.16 325.783 1155.58 309.87L1151.66 305.33C1132.31 322.046 1116.82 345.689 1105.1 376.072L1110.7 378.232ZM1155.59 309.869C1193.25 277.283 1236.99 261.012 1286.93 261.012V255.012C1235.55 255.012 1190.42 271.8 1151.66 305.331L1155.59 309.869ZM1168.01 477.616C1168.01 531.107 1177.27 571.759 1196.24 599.11C1215.34 626.659 1244.03 640.328 1281.78 640.328V634.328C1245.68 634.328 1218.98 621.378 1201.17 595.69C1183.21 569.803 1174.01 530.599 1174.01 477.616H1168.01ZM1281.78 640.328C1301.94 640.328 1319.29 636.162 1333.69 627.677C1348.11 619.183 1359.39 606.471 1367.55 589.697L1362.16 587.071C1354.44 602.926 1343.92 614.687 1330.65 622.507C1317.36 630.337 1301.11 634.328 1281.78 634.328V640.328ZM1367.53 589.742C1382.39 560.451 1389.75 524.752 1389.75 482.768H1383.75C1383.75 524.074 1376.51 558.786 1362.18 587.026L1367.53 589.742ZM1389.75 482.768C1389.75 445.065 1383.25 410.326 1370.21 378.588L1364.66 380.868C1377.37 411.812 1383.75 445.767 1383.75 482.768H1389.75ZM1370.19 378.555C1362.67 360.858 1351.13 346.861 1335.59 336.649L1332.3 341.663C1346.81 351.2 1357.59 364.251 1364.67 380.901L1370.19 378.555ZM1335.62 336.671C1320.39 326.364 1300.64 321.344 1276.63 321.344V327.344C1299.84 327.344 1318.3 332.199 1332.26 341.641L1335.62 336.671ZM1276.63 321.344C1252.29 321.344 1231.18 329.334 1213.44 345.298L1217.45 349.758C1234.06 334.81 1253.74 327.344 1276.63 327.344V321.344ZM1213.41 345.324C1196.27 361.148 1184.39 380.294 1177.79 402.709L1183.55 404.402C1189.84 383.026 1201.14 364.82 1217.48 349.732L1213.41 345.324ZM1177.79 402.709C1171.26 424.93 1168.01 449.908 1168.01 477.616H1174.01C1174.01 450.369 1177.2 425.974 1183.55 404.402L1177.79 402.709ZM1851.12 694V697H1854.12V694H1851.12ZM1545.22 694H1542.22V697H1545.22V694ZM1545.22 641.836L1544.94 638.848L1542.22 639.096V641.836H1545.22ZM1566.47 639.904L1566.74 642.892L1566.76 642.89L1566.78 642.888L1566.47 639.904ZM1585.14 322.412H1588.14V319.566L1585.3 319.416L1585.14 322.412ZM1548.44 320.48H1545.44V323.326L1548.28 323.476L1548.44 320.48ZM1548.44 265.74V262.74H1545.44V265.74H1548.44ZM1703.64 265.74H1706.64V262.74H1703.64V265.74ZM1703.64 317.904L1703.91 320.892L1706.64 320.644V317.904H1703.64ZM1682.39 319.836L1682.12 316.848L1682.1 316.85L1682.08 316.852L1682.39 319.836ZM1663.71 627.668H1660.71V630.668H1663.71V627.668ZM1782.21 623.16L1779.66 621.57L1779.63 621.62L1779.6 621.672L1782.21 623.16ZM1785.43 561.98L1785.63 558.987L1782.43 558.767V561.98H1785.43ZM1851.12 566.488H1854.12V563.687L1851.32 563.495L1851.12 566.488ZM1851.12 691H1545.22V697H1851.12V691ZM1548.22 694V641.836H1542.22V694H1548.22ZM1545.49 644.824L1566.74 642.892L1566.2 636.916L1544.94 638.848L1545.49 644.824ZM1566.78 642.888C1573.38 642.205 1578.79 640.228 1582.56 636.588C1586.39 632.888 1588.14 627.844 1588.14 621.872H1582.14C1582.14 626.633 1580.78 629.962 1578.39 632.272C1575.93 634.643 1572.01 636.315 1566.16 636.92L1566.78 642.888ZM1588.14 621.872V322.412H1582.14V621.872H1588.14ZM1585.3 319.416L1548.59 317.484L1548.28 323.476L1584.99 325.408L1585.3 319.416ZM1551.44 320.48V265.74H1545.44V320.48H1551.44ZM1548.44 268.74H1703.64V262.74H1548.44V268.74ZM1700.64 265.74V317.904H1706.64V265.74H1700.64ZM1703.37 314.916L1682.12 316.848L1682.66 322.824L1703.91 320.892L1703.37 314.916ZM1682.08 316.852C1675.38 317.545 1669.92 319.789 1666.16 323.939C1662.39 328.092 1660.71 333.733 1660.71 340.444H1666.71C1666.71 334.704 1668.14 330.685 1670.6 327.969C1673.07 325.249 1676.95 323.415 1682.7 322.82L1682.08 316.852ZM1660.71 340.444V627.668H1666.71V340.444H1660.71ZM1663.71 630.668H1770.62V624.668H1663.71V630.668ZM1770.62 630.668C1776.89 630.668 1782.25 629.125 1784.81 624.648L1779.6 621.672C1778.73 623.205 1776.36 624.668 1770.62 624.668V630.668ZM1784.75 624.75C1787.35 620.591 1788.43 614.532 1788.43 607.06H1782.43C1782.43 614.185 1781.36 618.86 1779.66 621.57L1784.75 624.75ZM1788.43 607.06V561.98H1782.43V607.06H1788.43ZM1785.22 564.973L1850.91 569.481L1851.32 563.495L1785.63 558.987L1785.22 564.973ZM1848.12 566.488V694H1854.12V566.488H1848.12ZM1963.24 322.412H1966.24V319.566L1963.4 319.416L1963.24 322.412ZM1926.53 320.48H1923.53V323.326L1926.38 323.476L1926.53 320.48ZM1926.53 265.74V262.74H1923.53V265.74H1926.53ZM2082.38 265.74H2085.38V262.74H2082.38V265.74ZM2082.38 317.904L2082.65 320.892L2085.38 320.644V317.904H2082.38ZM2061.13 319.836L2060.86 316.848L2060.84 316.85L2060.82 316.852L2061.13 319.836ZM2042.45 637.328H2039.45V640.174L2042.3 640.324L2042.45 637.328ZM2079.16 639.26H2082.16V636.414L2079.32 636.264L2079.16 639.26ZM2079.16 694V697H2082.16V694H2079.16ZM1923.31 694H1920.31V697H1923.31V694ZM1923.31 641.836L1923.04 638.848L1920.31 639.096V641.836H1923.31ZM1944.57 639.904L1944.84 642.892L1944.9 642.886L1944.96 642.878L1944.57 639.904ZM1958.73 634.752L1960.69 637.03L1960.77 636.955L1960.85 636.873L1958.73 634.752ZM1966.24 618.652V322.412H1960.24V618.652H1966.24ZM1963.4 319.416L1926.69 317.484L1926.38 323.476L1963.08 325.408L1963.4 319.416ZM1929.53 320.48V265.74H1923.53V320.48H1929.53ZM1926.53 268.74H2082.38V262.74H1926.53V268.74ZM2079.38 265.74V317.904H2085.38V265.74H2079.38ZM2082.11 314.916L2060.86 316.848L2061.4 322.824L2082.65 320.892L2082.11 314.916ZM2060.82 316.852C2054.12 317.545 2048.66 319.789 2044.9 323.939C2041.14 328.092 2039.45 333.733 2039.45 340.444H2045.45C2045.45 334.704 2046.88 330.685 2049.35 327.969C2051.81 325.249 2055.69 323.415 2061.44 322.82L2060.82 316.852ZM2039.45 340.444V637.328H2045.45V340.444H2039.45ZM2042.3 640.324L2079 642.256L2079.32 636.264L2042.61 634.332L2042.3 640.324ZM2076.16 639.26V694H2082.16V639.26H2076.16ZM2079.16 691H1923.31V697H2079.16V691ZM1926.31 694V641.836H1920.31V694H1926.31ZM1923.59 644.824L1944.84 642.892L1944.29 636.916L1923.04 638.848L1923.59 644.824ZM1944.96 642.878C1951.64 641.987 1957.04 640.154 1960.69 637.03L1956.78 632.474C1954.42 634.502 1950.37 636.104 1944.17 636.93L1944.96 642.878ZM1960.85 636.873C1964.74 632.993 1966.24 626.584 1966.24 618.652H1960.24C1960.24 626.176 1958.74 630.501 1956.61 632.631L1960.85 636.873ZM2495.6 660.512L2497.3 662.983L2498.6 662.089V660.512H2495.6ZM2207.73 646.344L2205.48 648.332L2205.5 648.346L2205.51 648.359L2207.73 646.344ZM2170.38 393.896L2167.53 392.947L2167.52 392.969L2167.52 392.99L2170.38 393.896ZM2203.22 330.14L2200.9 328.237L2200.89 328.255L2200.87 328.273L2203.22 330.14ZM2250.88 288.28L2249.36 285.693L2249.33 285.711L2249.3 285.729L2250.88 288.28ZM2489.8 284.416H2492.8V282.504L2491.07 281.697L2489.8 284.416ZM2489.8 393.896L2490.01 396.889L2492.8 396.697V393.896H2489.8ZM2424.11 398.404H2421.11V401.617L2424.32 401.397L2424.11 398.404ZM2421.54 334.004L2424.14 332.516L2424.14 332.508L2424.13 332.501L2421.54 334.004ZM2418.96 622.516L2420.59 625.033L2421.96 624.146V622.516H2418.96ZM2418.96 526.56H2421.96V523.56H2418.96V526.56ZM2418.32 526.56L2418.2 529.558L2418.26 529.56H2418.32V526.56ZM2368.73 524.628H2365.73V527.513L2368.61 527.626L2368.73 524.628ZM2368.73 469.888V466.888H2365.73V469.888H2368.73ZM2529.09 469.888H2532.09V466.888H2529.09V469.888ZM2529.09 521.408L2529.35 524.397L2532.09 524.158V521.408H2529.09ZM2514.27 522.696L2514.01 519.707L2513.96 519.712L2513.9 519.719L2514.27 522.696ZM2499.46 528.492L2501.58 530.613L2501.58 530.613L2499.46 528.492ZM2492.6 543.948V660.512H2498.6V543.948H2492.6ZM2493.9 658.041C2454.57 685.104 2405.61 698.728 2346.83 698.728V704.728C2406.55 704.728 2456.77 690.875 2497.3 662.983L2493.9 658.041ZM2346.83 698.728C2288.26 698.728 2242.76 680.506 2209.95 644.329L2205.51 648.359C2239.67 686.027 2286.91 704.728 2346.83 704.728V698.728ZM2209.98 644.356C2177.59 607.759 2161.14 553.423 2161.14 480.836H2155.14C2155.14 554.223 2171.76 610.225 2205.48 648.332L2209.98 644.356ZM2161.14 480.836C2161.14 448.886 2165.19 420.219 2173.24 394.802L2167.52 392.99C2159.25 419.093 2155.14 448.386 2155.14 480.836H2161.14ZM2173.22 394.845C2181.73 369.332 2192.53 348.413 2205.57 332.007L2200.87 328.273C2187.3 345.355 2176.2 366.94 2167.53 392.947L2173.22 394.845ZM2205.54 332.043C2219.08 315.549 2234.71 301.816 2252.46 290.831L2249.3 285.729C2230.98 297.069 2214.85 311.243 2200.9 328.237L2205.54 332.043ZM2252.4 290.867C2286.24 270.982 2324.56 261.012 2367.44 261.012V255.012C2323.59 255.012 2284.21 265.22 2249.36 285.693L2252.4 290.867ZM2367.44 261.012C2410.82 261.012 2451.17 269.727 2488.54 287.135L2491.07 281.697C2452.87 263.9 2411.65 255.012 2367.44 255.012V261.012ZM2486.8 284.416V393.896H2492.8V284.416H2486.8ZM2489.6 390.903L2423.91 395.411L2424.32 401.397L2490.01 396.889L2489.6 390.903ZM2427.11 398.404V348.172H2421.11V398.404H2427.11ZM2427.11 348.172C2427.11 341.589 2426.26 336.217 2424.14 332.516L2418.93 335.492C2420.25 337.801 2421.11 341.875 2421.11 348.172H2427.11ZM2424.13 332.501C2422.56 329.781 2419.9 327.654 2416.57 325.972C2413.22 324.284 2408.99 322.941 2403.96 321.89C2393.9 319.789 2380.19 318.768 2362.93 318.768V324.768C2380.03 324.768 2393.26 325.786 2402.73 327.764C2407.47 328.752 2411.15 329.959 2413.87 331.329C2416.6 332.706 2418.16 334.149 2418.94 335.507L2424.13 332.501ZM2362.93 318.768C2320.85 318.768 2288.81 331.828 2267.38 358.362C2246.05 384.774 2235.64 424.053 2235.64 475.684H2241.64C2241.64 424.704 2251.95 387.025 2272.05 362.132C2292.05 337.361 2322.16 324.768 2362.93 324.768V318.768ZM2235.64 475.684C2235.64 530.032 2245.01 571.326 2264.19 599.105C2283.51 627.084 2312.52 640.972 2350.7 640.972V634.972C2314.18 634.972 2287.16 621.812 2269.12 595.695C2250.95 569.378 2241.64 529.528 2241.64 475.684H2235.64ZM2350.7 640.972C2380.6 640.972 2404.02 635.784 2420.59 625.033L2417.33 619.999C2402.13 629.856 2380.04 634.972 2350.7 634.972V640.972ZM2421.96 622.516V526.56H2415.96V622.516H2421.96ZM2418.96 523.56H2418.32V529.56H2418.96V523.56ZM2418.43 523.562L2368.85 521.63L2368.61 527.626L2418.2 529.558L2418.43 523.562ZM2371.73 524.628V469.888H2365.73V524.628H2371.73ZM2368.73 472.888H2529.09V466.888H2368.73V472.888ZM2526.09 469.888V521.408H2532.09V469.888H2526.09ZM2528.83 518.419L2514.01 519.707L2514.53 525.685L2529.35 524.397L2528.83 518.419ZM2513.9 519.719C2506.75 520.613 2501.03 522.678 2497.34 526.371L2501.58 530.613C2503.9 528.295 2508.05 526.497 2514.65 525.673L2513.9 519.719ZM2497.34 526.371C2495.53 528.18 2494.37 530.684 2493.65 533.56C2492.93 536.455 2492.6 539.939 2492.6 543.948H2498.6C2498.6 540.229 2498.91 537.273 2499.47 535.016C2500.04 532.74 2500.82 531.38 2501.58 530.613L2497.34 526.371ZM2608.36 621.872L2611.19 622.853L2611.19 622.852L2608.36 621.872ZM2712.04 321.768L2714.88 322.748L2716.12 319.143L2712.33 318.782L2712.04 321.768ZM2671.47 317.904H2668.47V320.632L2671.19 320.89L2671.47 317.904ZM2671.47 265.74V262.74H2668.47V265.74H2671.47ZM2818.95 265.74L2821.77 264.74L2821.07 262.74H2818.95V265.74ZM2950.32 637.328L2947.49 638.328L2948.2 640.328H2950.32V637.328ZM2950.97 637.328L2951.12 634.332L2951.05 634.328H2950.97V637.328ZM2987.67 639.26H2990.67V636.414L2987.83 636.264L2987.67 639.26ZM2987.67 694V697H2990.67V694H2987.67ZM2821.52 694H2818.52V697H2821.52V694ZM2821.52 641.836L2821.29 638.845L2818.52 639.064V641.836H2821.52ZM2845.99 639.904L2846.23 642.895L2846.29 642.89L2846.34 642.883L2845.99 639.904ZM2860.81 634.752L2858.69 632.631L2858.69 632.631L2860.81 634.752ZM2861.45 620.584L2864.31 619.689L2864.3 619.655L2864.29 619.622L2861.45 620.584ZM2847.93 580.656L2850.77 579.694L2850.08 577.656H2847.93V580.656ZM2697.23 580.656V577.656H2695.08L2694.39 579.688L2697.23 580.656ZM2677.91 637.328L2675.07 636.36L2673.79 640.126L2677.76 640.324L2677.91 637.328ZM2716.55 639.26H2719.55V636.406L2716.7 636.264L2716.55 639.26ZM2716.55 694V697H2719.55V694H2716.55ZM2567.79 694H2564.79V697H2567.79V694ZM2567.79 641.836L2567.51 638.848L2564.79 639.096V641.836H2567.79ZM2589.04 639.904L2589.31 642.892L2589.32 642.89L2589.04 639.904ZM2772.58 337.868V334.868H2770.4L2769.73 336.937L2772.58 337.868ZM2712.69 521.408L2709.83 520.477L2708.55 524.408H2712.69V521.408ZM2832.47 521.408V524.408H2836.56L2835.33 520.505L2832.47 521.408ZM2774.51 337.868L2777.37 336.965L2776.71 334.868H2774.51V337.868ZM2611.19 622.852L2714.88 322.748L2709.21 320.788L2605.52 620.892L2611.19 622.852ZM2712.33 318.782L2671.75 314.917L2671.19 320.89L2711.76 324.754L2712.33 318.782ZM2674.47 317.904V265.74H2668.47V317.904H2674.47ZM2671.47 268.74H2818.95V262.74H2671.47V268.74ZM2816.12 266.74L2947.49 638.328L2953.15 636.328L2821.77 264.74L2816.12 266.74ZM2950.32 640.328H2950.97V634.328H2950.32V640.328ZM2950.81 640.324L2987.52 642.256L2987.83 636.264L2951.12 634.332L2950.81 640.324ZM2984.67 639.26V694H2990.67V639.26H2984.67ZM2987.67 691H2821.52V697H2987.67V691ZM2824.52 694V641.836H2818.52V694H2824.52ZM2821.76 644.827L2846.23 642.895L2845.76 636.913L2821.29 638.845L2821.76 644.827ZM2846.34 642.883C2853.74 642.013 2859.59 640.216 2862.93 636.873L2858.69 632.631C2856.88 634.44 2852.84 636.078 2845.64 636.925L2846.34 642.883ZM2862.93 636.873C2864.89 634.914 2865.77 632.294 2865.9 629.414C2866.03 626.572 2865.44 623.301 2864.31 619.689L2858.59 621.479C2859.6 624.736 2859.99 627.262 2859.9 629.142C2859.82 630.984 2859.3 632.014 2858.69 632.631L2862.93 636.873ZM2864.29 619.622L2850.77 579.694L2845.08 581.618L2858.61 621.546L2864.29 619.622ZM2847.93 577.656H2697.23V583.656H2847.93V577.656ZM2694.39 579.688L2675.07 636.36L2680.75 638.296L2700.07 581.624L2694.39 579.688ZM2677.76 640.324L2716.4 642.256L2716.7 636.264L2678.06 634.332L2677.76 640.324ZM2713.55 639.26V694H2719.55V639.26H2713.55ZM2716.55 691H2567.79V697H2716.55V691ZM2570.79 694V641.836H2564.79V694H2570.79ZM2568.06 644.824L2589.31 642.892L2588.77 636.916L2567.51 638.848L2568.06 644.824ZM2589.32 642.89C2594.47 642.4 2598.96 640.416 2602.68 636.945C2606.36 633.512 2609.15 628.746 2611.19 622.853L2605.52 620.891C2603.7 626.161 2601.35 629.981 2598.58 632.559C2595.86 635.099 2592.62 636.549 2588.75 636.918L2589.32 642.89ZM2769.73 336.937L2709.83 520.477L2715.54 522.339L2775.43 338.799L2769.73 336.937ZM2712.69 524.408H2832.47V518.408H2712.69V524.408ZM2835.33 520.505L2777.37 336.965L2771.65 338.771L2829.61 522.311L2835.33 520.505ZM2774.51 334.868H2772.58V340.868H2774.51V334.868ZM3061.16 691.424L3058.99 693.49L3059.01 693.518L3059.04 693.545L3061.16 691.424ZM3061.16 625.092L3058.99 623.023L3058.99 623.026L3061.16 625.092ZM3130.07 624.448L3127.95 626.569L3127.97 626.597L3128 626.623L3130.07 624.448ZM3130.71 690.78L3132.89 692.846L3132.91 692.82L3132.94 692.793L3130.71 690.78ZM3095.94 700.66C3081.46 700.66 3070.72 696.742 3063.28 689.303L3059.04 693.545C3067.91 702.421 3080.37 706.66 3095.94 706.66V700.66ZM3063.34 689.358C3055.78 681.399 3051.92 671.223 3051.92 658.58H3045.92C3045.92 672.555 3050.23 684.276 3058.99 693.49L3063.34 689.358ZM3051.92 658.58C3051.92 645.478 3055.79 635.098 3063.34 627.158L3058.99 623.026C3050.21 632.259 3045.92 644.204 3045.92 658.58H3051.92ZM3063.33 627.161C3071.27 618.824 3081.82 614.568 3095.29 614.568V608.568C3080.43 608.568 3068.22 613.328 3058.99 623.023L3063.33 627.161ZM3095.29 614.568C3109.27 614.568 3120.03 618.656 3127.95 626.569L3132.19 622.327C3122.93 613.066 3110.51 608.568 3095.29 608.568V614.568ZM3128 626.623C3135.9 634.122 3139.95 644.232 3139.95 657.292H3145.95C3145.95 642.874 3141.41 631.088 3132.14 622.273L3128 626.623ZM3139.95 657.292C3139.95 669.934 3136.1 680.357 3128.49 688.767L3132.94 692.793C3141.64 683.171 3145.95 671.269 3145.95 657.292H3139.95ZM3128.54 688.714C3121.09 696.553 3110.38 700.66 3095.94 700.66V706.66C3111.55 706.66 3124.02 702.18 3132.89 692.846L3128.54 688.714ZM3331.84 618.652L3329.86 620.905L3329.9 620.937L3329.93 620.968L3331.84 618.652ZM3456.13 616.72L3454.14 614.474L3454.13 614.489L3454.11 614.503L3456.13 616.72ZM3478.67 322.412H3481.67V319.563L3478.83 319.416L3478.67 322.412ZM3441.32 320.48H3438.32V323.329L3441.17 323.476L3441.32 320.48ZM3441.32 265.74V262.74H3438.32V265.74H3441.32ZM3593.95 265.74H3596.95V262.74H3593.95V265.74ZM3593.95 317.904L3594.22 320.892L3596.95 320.644V317.904H3593.95ZM3572.7 319.836L3572.43 316.848L3572.41 316.85L3572.39 316.852L3572.7 319.836ZM3510.23 666.952L3508.34 664.619L3508.34 664.619L3510.23 666.952ZM3271.95 668.24L3269.96 670.486L3269.98 670.503L3270 670.52L3271.95 668.24ZM3232.67 322.412H3235.67V319.563L3232.82 319.416L3232.67 322.412ZM3195.31 320.48H3192.31V323.329L3195.16 323.476L3195.31 320.48ZM3195.31 265.74V262.74H3192.31V265.74H3195.31ZM3351.16 265.74H3354.16V262.74H3351.16V265.74ZM3351.16 317.904L3351.43 320.892L3354.16 320.644V317.904H3351.16ZM3329.91 319.836L3329.64 316.848L3329.59 316.853L3329.54 316.859L3329.91 319.836ZM3315.1 325.632L3317.05 327.91L3317.14 327.835L3317.22 327.753L3315.1 325.632ZM3307.59 341.088V554.896H3313.59V341.088H3307.59ZM3307.59 554.896C3307.59 585.308 3314.74 607.621 3329.86 620.905L3333.82 616.399C3320.6 604.782 3313.59 584.59 3313.59 554.896H3307.59ZM3329.93 620.968C3345.25 633.581 3366.63 639.684 3393.67 639.684V633.684C3367.46 633.684 3347.63 627.765 3333.75 616.336L3329.93 620.968ZM3393.67 639.684C3421.18 639.684 3442.83 632.911 3458.16 618.937L3454.11 614.503C3440.24 627.148 3420.24 633.684 3393.67 633.684V639.684ZM3458.12 618.966C3473.96 604.935 3481.67 584.475 3481.67 558.116H3475.67C3475.67 583.277 3468.36 601.886 3454.14 614.474L3458.12 618.966ZM3481.67 558.116V322.412H3475.67V558.116H3481.67ZM3478.83 319.416L3441.48 317.484L3441.17 323.476L3478.52 325.408L3478.83 319.416ZM3444.32 320.48V265.74H3438.32V320.48H3444.32ZM3441.32 268.74H3593.95V262.74H3441.32V268.74ZM3590.95 265.74V317.904H3596.95V265.74H3590.95ZM3593.68 314.916L3572.43 316.848L3572.97 322.824L3594.22 320.892L3593.68 314.916ZM3572.39 316.852C3565.74 317.54 3560.3 319.65 3556.53 323.547C3552.74 327.477 3551.02 332.82 3551.02 339.156H3557.02C3557.02 333.9 3558.42 330.227 3560.85 327.717C3563.31 325.174 3567.21 323.42 3573.01 322.82L3572.39 316.852ZM3551.02 339.156V569.064H3557.02V339.156H3551.02ZM3551.02 569.064C3551.02 609.916 3536.75 641.643 3508.34 664.619L3512.12 669.285C3542.1 645.035 3557.02 611.503 3557.02 569.064H3551.02ZM3508.34 664.619C3479.85 687.665 3440.24 699.372 3389.16 699.372V705.372C3441.11 705.372 3482.22 693.466 3512.12 669.285L3508.34 664.619ZM3389.16 699.372C3338.02 699.372 3299.77 688.074 3273.9 665.96L3270 670.52C3297.37 693.915 3337.25 705.372 3389.16 705.372V699.372ZM3273.94 665.994C3248.63 643.587 3235.67 608.078 3235.67 558.76H3229.67C3229.67 609.047 3242.89 646.525 3269.96 670.486L3273.94 665.994ZM3235.67 558.76V322.412H3229.67V558.76H3235.67ZM3232.82 319.416L3195.47 317.484L3195.16 323.476L3232.51 325.408L3232.82 319.416ZM3198.31 320.48V265.74H3192.31V320.48H3198.31ZM3195.31 268.74H3351.16V262.74H3195.31V268.74ZM3348.16 265.74V317.904H3354.16V265.74H3348.16ZM3350.89 314.916L3329.64 316.848L3330.18 322.824L3351.43 320.892L3350.89 314.916ZM3329.54 316.859C3322.39 317.753 3316.67 319.818 3312.98 323.511L3317.22 327.753C3319.54 325.435 3323.69 323.637 3330.28 322.813L3329.54 316.859ZM3313.15 323.354C3309.06 326.853 3307.59 333.234 3307.59 341.088H3313.59C3313.59 333.486 3315.12 329.563 3317.05 327.91L3313.15 323.354ZM3938.76 317.904L3941.3 319.492L3941.76 318.763V317.904H3938.76ZM3742.34 632.82L3739.79 631.232L3736.93 635.82H3742.34V632.82ZM3883.37 567.132L3883.58 564.139L3880.37 563.919V567.132H3883.37ZM3949.06 571.64H3952.06V568.839L3949.27 568.647L3949.06 571.64ZM3949.06 694V697H3952.06V694H3949.06ZM3652.82 694H3649.82V697H3652.82V694ZM3652.82 640.548L3650.27 638.967L3649.82 639.693V640.548H3652.82ZM3847.31 326.92L3849.86 328.501L3852.7 323.92H3847.31V326.92ZM3723.02 372.644L3722.81 375.637L3726.02 375.857V372.644H3723.02ZM3657.33 368.136H3654.33V370.937L3657.12 371.129L3657.33 368.136ZM3657.33 265.74V262.74H3654.33V265.74H3657.33ZM3938.76 265.74H3941.76V262.74H3938.76V265.74ZM3936.21 316.316L3739.79 631.232L3744.88 634.408L3941.3 319.492L3936.21 316.316ZM3742.34 635.82H3867.27V629.82H3742.34V635.82ZM3867.27 635.82C3873.33 635.82 3878.33 633.845 3881.71 629.515C3884.98 625.325 3886.37 619.39 3886.37 612.212H3880.37C3880.37 618.773 3879.08 623.141 3876.98 625.821C3875 628.36 3871.95 629.82 3867.27 629.82V635.82ZM3886.37 612.212V567.132H3880.37V612.212H3886.37ZM3883.17 570.125L3948.86 574.633L3949.27 568.647L3883.58 564.139L3883.17 570.125ZM3946.06 571.64V694H3952.06V571.64H3946.06ZM3949.06 691H3652.82V697H3949.06V691ZM3655.82 694V640.548H3649.82V694H3655.82ZM3655.37 642.129L3849.86 328.501L3844.76 325.339L3650.27 638.967L3655.37 642.129ZM3847.31 323.92H3740.4V329.92H3847.31V323.92ZM3740.4 323.92C3734.03 323.92 3728.74 325.769 3725.1 329.941C3721.54 334.033 3720.02 339.861 3720.02 346.884H3726.02C3726.02 340.598 3727.39 336.443 3729.63 333.881C3731.79 331.398 3735.19 329.92 3740.4 329.92V323.92ZM3720.02 346.884V372.644H3726.02V346.884H3720.02ZM3723.22 369.651L3657.53 365.143L3657.12 371.129L3722.81 375.637L3723.22 369.651ZM3660.33 368.136V265.74H3654.33V368.136H3660.33ZM3657.33 268.74H3938.76V262.74H3657.33V268.74ZM3935.76 265.74V317.904H3941.76V265.74H3935.76Z" fill="#FAD515" mask="url(#path-1-outside-1_140_60)"/>
<path d="M98.8911 94H477.666C527.648 94 568.166 134.518 568.166 184.5V458.461C568.166 508.442 527.648 548.96 477.666 548.96H98.8911V94Z" fill="#FAD515"/>
<path d="M0 110C0 101.163 7.16344 94 16 94H214.988V694.478C214.988 711.047 201.557 724.478 184.988 724.478H0V403.5L99.5 322.5L0 240.5V110Z" fill="#FAD515"/>
<path d="M66 404.5C66 417.151 76.3344 427.5 89.0826 427.5H164.541H234.245L215 404.5H66Z" fill="#082A5A"/>
<path d="M43 484C43 497.201 61.4119 508 84.1241 508H218.562H353V484H43Z" fill="#082A5A"/>
<path d="M43 151C43 137.799 61.0555 127 83.3282 127H215.164H347V151H43Z" fill="#082A5A"/>
<path d="M66.0625 231.252C66.0625 218.55 76.36 208.158 89.0625 208.158H164.251H233.562L214.402 231.252H66.0625Z" fill="#082A5A"/>
<path d="M352.5 496C447.493 496 523 412.11 523 317.25C523 222.39 441.993 139 347 139" stroke="#082A5A" stroke-width="24"/>
<path d="M376.089 179.618L342.082 219.035L307.374 179.752C318.457 176.975 330.056 175.5 342 175.5C353.751 175.5 365.169 176.927 376.089 179.618ZM298.076 182.424L286.638 192.53L329.5 241.042V263.452L290.034 292.656L281.998 289.565L272.882 285.783L239.07 231.989L220.798 243.473C238.295 214.887 265.622 192.97 298.076 182.424ZM200.134 311.275C201.161 287.46 208.054 265.166 219.404 245.801L247.159 289.959L200.134 311.275ZM201.339 337.079L264.38 308.503L273.09 311.853L280.658 314.993L297.542 362.026L295.456 365.116L289.06 374.071L222.839 386.196L224.998 397.987C212.736 380.196 204.427 359.471 201.339 337.079ZM304.906 311.508L342.404 283.759L378.681 310.154L364.142 354.5H320.34L304.906 311.508ZM315.171 378.807L315.39 378.5H367.909L375.707 387.598L376.065 388.057L369.065 455.256L374.326 455.804C363.942 458.222 353.12 459.5 342 459.5C330.861 459.5 320.021 458.217 309.621 455.792L313.949 455.39L307.845 389.66L315.171 378.807ZM284.635 399.28L289.289 449.395C267.346 440.618 248.105 426.524 233.159 408.706L284.635 399.28ZM450.053 409.638C435.004 427.269 415.716 441.172 393.766 449.769L399.13 398.278L450.053 409.638ZM455.612 386.288L394.511 372.658L394.301 372.413L386.721 362.667L402.421 314.781L411.568 311.541L422.585 307.929L479.025 335.763L483.737 326.209C481.832 357.702 469.662 386.426 450.529 409.077L455.612 386.288ZM437.972 288.757L464.384 245.441C475.879 264.921 482.855 287.386 483.871 311.393L437.972 288.757ZM378.845 180.327C410.937 188.925 438.545 208.486 457.41 234.75L446.755 228.253L411.475 286.112L403.821 288.824L394.402 291.912L354 262.516V241.961L395.086 194.339L378.845 180.327Z" stroke="#082A5A" stroke-width="24"/>
</svg>
