<svg width="36" height="36" viewBox="0 0 36 36" fill="none" xmlns="http://www.w3.org/2000/svg">
<g clip-path="url(#clip0_4_2)">
<path d="M36 28C36 29.3261 35.5786 30.5979 34.8284 31.5355C34.0783 32.4732 33.0609 33 32 33H4C2.93913 33 1.92172 32.4732 1.17157 31.5355C0.421427 30.5979 0 29.3261 0 28V23H36V28Z" fill="#CE2028"/>
<path d="M0 13H36V23H0V13Z" fill="#22408C"/>
<path d="M32 5H4C2.93913 5 1.92172 5.52678 1.17157 6.46447C0.421427 7.40215 0 8.67392 0 10L0 15H36V10C36 8.67392 35.5786 7.40215 34.8284 6.46447C34.0783 5.52678 33.0609 5 32 5Z" fill="#EEEEEE"/>
</g>
<defs>
<clipPath id="clip0_4_2">
<rect width="36" height="36" fill="white"/>
</clipPath>
</defs>
</svg>
