<svg width="24" height="24" viewBox="0 0 24 24" fill="none" xmlns="http://www.w3.org/2000/svg">
<path d="M2.72449 1.08082C2.31617 1.18828 1.98092 1.38169 1.68006 1.67826C1.37919 1.98342 1.19008 2.31437 1.08263 2.73988C1.00096 3.05364 0.996666 3.21696 0.996666 5.77432C0.996666 8.39614 1.00096 8.4821 1.08263 8.64543C1.1385 8.75718 1.22876 8.84743 1.34051 8.90331C1.49954 8.98497 1.5898 8.98927 2.9308 8.98927H4.34916V15.7372C4.34916 22.4207 4.34916 22.4895 4.43512 22.6571C4.52968 22.8462 4.77897 23.001 4.98527 23.001C5.05404 23.001 5.47096 22.8677 5.91366 22.7001L6.7131 22.3992L7.51254 22.7001C7.95524 22.8677 8.36785 23.001 8.43233 23.001C8.4968 23.001 8.90941 22.8677 9.35211 22.7001L10.1516 22.3992L10.951 22.7001C11.3937 22.8677 11.8063 23.001 11.8708 23.001C11.9353 23.001 12.3479 22.8677 12.7906 22.7001L13.59 22.3992L14.3894 22.7001C14.8322 22.8677 15.2448 23.001 15.3092 23.001C15.3737 23.001 15.7863 22.8677 16.229 22.7001L17.0285 22.3992L17.8279 22.7001C18.2706 22.8677 18.6875 23.001 18.7563 23.001C18.9626 23.001 19.2119 22.8462 19.3064 22.6571C19.3881 22.4981 19.3924 22.4078 19.3924 20.9594V19.4336L19.7577 19.266C20.3595 18.9866 20.8323 18.647 21.3523 18.127C22.0572 17.4221 22.5128 16.6742 22.7707 15.7888C23.5443 13.124 22.2807 10.3389 19.7577 9.1569L19.3924 8.98497V6.0279C19.3924 3.22126 19.3881 3.05364 19.3064 2.73988C19.199 2.31437 19.0142 1.99202 18.7047 1.68255C18.3952 1.37309 18.0729 1.18828 17.6474 1.08082C17.3207 0.994864 17.1617 0.994862 10.1773 0.999161C3.27464 0.999161 3.02965 1.00346 2.72449 1.08082ZM3.63568 2.33586C3.87207 2.40463 4.22881 2.76137 4.29758 2.99776C4.33627 3.1267 4.34916 3.78861 4.34916 5.43907V7.69985H3.31762H2.28609V5.43907C2.28609 3.78861 2.29898 3.1267 2.33766 2.99776C2.40213 2.77856 2.76317 2.40893 2.97378 2.34016C3.18008 2.27569 3.42508 2.27569 3.63568 2.33586ZM17.3895 2.33586C17.6259 2.40463 17.9826 2.76137 18.0514 2.99776C18.0901 3.131 18.103 3.89176 18.103 5.92905V8.67981L17.6818 8.65832C15.8551 8.55517 14.0585 9.42767 12.9367 10.9535L12.6788 11.3102H10.057C7.52113 11.3102 7.43517 11.3145 7.27185 11.3962C7.07843 11.495 6.928 11.74 6.928 11.9549C6.928 12.1698 7.07843 12.4148 7.27185 12.5137C7.43517 12.5954 7.52114 12.5996 9.76903 12.5996H12.0986L12.0728 12.7157C12.0556 12.7845 12.0169 12.9693 11.9825 13.1369C11.9438 13.3002 11.9138 13.4936 11.9138 13.5667C11.9138 13.6355 11.9009 13.7386 11.888 13.7902L11.8622 13.8891H9.64868C7.52113 13.8891 7.43517 13.8934 7.27185 13.975C7.07843 14.0739 6.928 14.3189 6.928 14.5338C6.928 14.7487 7.07843 14.9937 7.27185 15.0925C7.43517 15.1742 7.52113 15.1785 9.69166 15.1785H11.9481L12.0384 15.5438C12.1201 15.8619 12.1931 16.0854 12.3221 16.3905C12.3522 16.4636 12.2189 16.4679 9.89797 16.4679C7.52114 16.4679 7.43517 16.4722 7.27185 16.5539C7.07843 16.6527 6.928 16.8977 6.928 17.1126C6.928 17.3275 7.07843 17.5725 7.27185 17.6714C7.43517 17.753 7.52113 17.7573 10.173 17.7573C11.9438 17.7573 12.9367 17.7401 12.9883 17.7144C13.057 17.6757 13.1 17.7015 13.2548 17.8734C13.9467 18.6298 14.7634 19.18 15.6359 19.4723C16.2978 19.6915 16.6803 19.7516 17.4239 19.7559H18.103V20.5812C18.103 21.0368 18.0944 21.4107 18.0858 21.4107C18.0772 21.4107 17.8666 21.3333 17.613 21.2388C17.3637 21.1442 17.1015 21.0668 17.0328 21.0668C16.9683 21.0668 16.5514 21.2001 16.113 21.3677L15.3135 21.6686L14.5141 21.3677C14.0757 21.2001 13.6631 21.0668 13.5943 21.0668C13.5298 21.0668 13.1129 21.2001 12.6745 21.3677L11.8751 21.6686L11.0756 21.3677C10.6372 21.2001 10.2246 21.0668 10.1559 21.0668C10.0914 21.0668 9.67447 21.2001 9.23606 21.3677L8.43662 21.6686L7.63718 21.3677C7.19878 21.2001 6.78617 21.0668 6.7174 21.0668C6.65292 21.0668 6.39074 21.1442 6.13716 21.2388C5.88787 21.3333 5.67296 21.4107 5.66007 21.4107C5.64718 21.4107 5.63428 17.2287 5.62998 12.114L5.61709 2.82154L5.52253 2.58515C5.46666 2.45621 5.42368 2.33586 5.42368 2.31437C5.42368 2.29718 8.07559 2.28428 11.3163 2.28428C15.8207 2.28428 17.252 2.29718 17.3895 2.33586ZM18.4554 10.0595C19.242 10.2615 19.8738 10.6268 20.4497 11.1985C20.8838 11.6369 21.2105 12.1269 21.4125 12.6555C21.6403 13.2401 21.6876 13.5065 21.6876 14.2114C21.6876 14.9163 21.6403 15.1828 21.4125 15.7673C21.0042 16.8289 20.0543 17.7788 18.9927 18.1871C18.421 18.4106 18.1374 18.4622 17.4583 18.4622C16.7749 18.4665 16.4525 18.4106 15.8723 18.1871C14.8193 17.7788 13.8694 16.8289 13.4611 15.7673C13.2333 15.1828 13.186 14.9163 13.186 14.2114C13.186 13.5065 13.2333 13.2401 13.4611 12.6555C13.8694 11.5939 14.8193 10.644 15.8723 10.2357C16.1517 10.1283 16.4783 10.0423 16.8995 9.96064C17.1531 9.91336 18.1331 9.97353 18.4554 10.0595Z" fill="black"/>
<path d="M7.26325 3.66412C7.07843 3.75868 6.928 4.01226 6.928 4.21857C6.928 4.43347 7.07843 4.67846 7.27185 4.77732C7.43517 4.85898 7.52113 4.86328 10.173 4.86328C12.825 4.86328 12.9109 4.85898 13.0742 4.77732C13.2677 4.67846 13.4181 4.43347 13.4181 4.21857C13.4181 4.00367 13.2677 3.75868 13.0742 3.65982C12.9109 3.57816 12.8292 3.57386 10.1644 3.57386C7.52113 3.57816 7.41798 3.58246 7.26325 3.66412Z" fill="black"/>
<path d="M15.0428 3.66412C14.8579 3.75868 14.7075 4.01226 14.7075 4.21857C14.7075 4.43347 14.8579 4.67846 15.0513 4.77732C15.1932 4.85039 15.3049 4.86328 15.7605 4.86328C16.2161 4.86328 16.3279 4.85039 16.4697 4.77732C16.6631 4.67846 16.8136 4.43347 16.8136 4.21857C16.8136 4.00367 16.6631 3.75868 16.4697 3.65982C16.3279 3.58675 16.2204 3.57386 15.7519 3.57386C15.2877 3.57816 15.176 3.59105 15.0428 3.66412Z" fill="black"/>
<path d="M7.26325 6.24322C7.07843 6.33778 6.928 6.59137 6.928 6.79767C6.928 7.01258 7.07843 7.25757 7.27185 7.35642C7.43517 7.43808 7.52113 7.44238 10.173 7.44238C12.825 7.44238 12.9109 7.43808 13.0742 7.35642C13.2677 7.25757 13.4181 7.01258 13.4181 6.79767C13.4181 6.58277 13.2677 6.33778 13.0742 6.23892C12.9109 6.15726 12.8292 6.15296 10.1644 6.15296C7.52113 6.15726 7.41798 6.16156 7.26325 6.24322Z" fill="black"/>
<path d="M15.0428 6.24322C14.8579 6.33778 14.7075 6.59137 14.7075 6.79767C14.7075 7.01258 14.8579 7.25757 15.0513 7.35642C15.1932 7.42949 15.3049 7.44238 15.7605 7.44238C16.2161 7.44238 16.3279 7.42949 16.4697 7.35642C16.6631 7.25757 16.8136 7.01258 16.8136 6.79767C16.8136 6.58277 16.6631 6.33778 16.4697 6.23892C16.3279 6.16586 16.2204 6.15296 15.7519 6.15296C15.2877 6.15726 15.176 6.17015 15.0428 6.24322Z" fill="black"/>
<path d="M7.26325 8.82135C7.07843 8.9159 6.928 9.16949 6.928 9.3758C6.928 9.5907 7.07843 9.83569 7.27185 9.93455C7.43517 10.0162 7.52113 10.0205 10.173 10.0205C12.825 10.0205 12.9109 10.0162 13.0742 9.93455C13.2677 9.83569 13.4181 9.5907 13.4181 9.3758C13.4181 9.16089 13.2677 8.9159 13.0742 8.81705C12.9109 8.73539 12.8292 8.73109 10.1644 8.73109C7.52113 8.73539 7.41798 8.73968 7.26325 8.82135Z" fill="black"/>
<path d="M17.1574 11.0817C16.9855 11.172 16.8136 11.4041 16.8136 11.5502C16.8136 11.6233 16.762 11.6792 16.6244 11.7608C16.3752 11.907 16.0571 12.2508 15.9411 12.5044C15.8637 12.6677 15.8465 12.7881 15.8465 13.1362C15.8465 13.5144 15.8594 13.5961 15.9625 13.811C16.1388 14.1935 16.3752 14.3912 17.0285 14.7222C17.3465 14.8855 17.6431 15.0445 17.6861 15.0832C17.729 15.1219 17.7591 15.2079 17.7591 15.2895C17.7591 15.5216 17.6517 15.5646 17.0714 15.5646C16.5041 15.5646 16.3408 15.6205 16.1774 15.8655C16.0399 16.0718 16.0571 16.4543 16.2161 16.6219C16.3494 16.7681 16.5213 16.854 16.6717 16.854C16.7706 16.8583 16.8093 16.8884 16.878 17.0346C16.9253 17.1334 17.0156 17.2538 17.0757 17.2967C17.2391 17.4171 17.5313 17.4343 17.7162 17.3397C17.8881 17.2495 18.06 17.0174 18.06 16.8712C18.06 16.7982 18.1116 16.7423 18.2491 16.6606C18.4984 16.5145 18.8165 16.1706 18.9325 15.9171C19.0099 15.7537 19.0271 15.6334 19.0271 15.2852C19.0271 14.907 19.0142 14.8253 18.911 14.6104C18.7305 14.2236 18.4898 14.0173 17.8365 13.6907C17.5227 13.5359 17.2305 13.3769 17.1918 13.3382C17.1488 13.3038 17.1144 13.2136 17.1144 13.1319C17.1144 12.8998 17.2219 12.8568 17.8021 12.8568C18.3695 12.8568 18.5328 12.801 18.6961 12.556C18.8337 12.3497 18.8165 11.9671 18.6574 11.7995C18.5242 11.6534 18.3523 11.5674 18.2018 11.5674C18.103 11.5631 18.0643 11.533 17.9955 11.3869C17.9482 11.288 17.858 11.1677 17.7978 11.1247C17.6345 11.0044 17.3422 10.9872 17.1574 11.0817Z" fill="black"/>
</svg>
