<svg width="24" height="24" viewBox="0 0 24 24" fill="none" xmlns="http://www.w3.org/2000/svg">
<path d="M5.15006 9.01935C4.16119 7.70088 5.10195 5.81934 6.75005 5.81934H17.2499C18.898 5.81934 19.8388 7.70088 18.8499 9.01935L18.5667 9.39702C18.307 9.74322 18.1667 10.1643 18.1667 10.597V20.2634C18.1667 21.368 17.2712 22.2634 16.1667 22.2634H7.83333C6.72876 22.2634 5.83333 21.368 5.83333 20.2634V10.597C5.83333 10.1643 5.69297 9.74321 5.43332 9.39702L5.15006 9.01935Z" stroke="white" stroke-width="1.54165"/>
<path d="M14.0555 17.1245L14.0555 10.958" stroke="white" stroke-width="1.54165" stroke-linecap="round" stroke-linejoin="round"/>
<path d="M9.94446 17.1245L9.94446 10.958" stroke="white" stroke-width="1.54165" stroke-linecap="round" stroke-linejoin="round"/>
<path d="M16.1111 5.81862L15.5518 4.14086C15.272 3.3015 14.4866 2.73535 13.6018 2.73535H10.3982C9.51344 2.73535 8.72794 3.3015 8.44815 4.14086L7.88889 5.81862" stroke="white" stroke-width="1.54165" stroke-linecap="round"/>
</svg>
