<svg width="24" height="24" viewBox="0 0 24 24" fill="none" xmlns="http://www.w3.org/2000/svg">
<path d="M6 8C6 7.46957 6.21071 6.96086 6.58579 6.58579C6.96086 6.21071 7.46957 6 8 6C8.53043 6 9.03914 6.21071 9.41421 6.58579C9.78929 6.96086 10 7.46957 10 8C10 8.53043 9.78929 9.03914 9.41421 9.41421C9.03914 9.78929 8.53043 10 8 10C7.46957 10 6.96086 9.78929 6.58579 9.41421C6.21071 9.03914 6 8.53043 6 8ZM8 4C6.93913 4 5.92172 4.42143 5.17157 5.17157C4.42143 5.92172 4 6.93913 4 8C4 9.06087 4.42143 10.0783 5.17157 10.8284C5.92172 11.5786 6.93913 12 8 12C9.06087 12 10.0783 11.5786 10.8284 10.8284C11.5786 10.0783 12 9.06087 12 8C12 6.93913 11.5786 5.92172 10.8284 5.17157C10.0783 4.42143 9.06087 4 8 4ZM16 9C16 8.73478 16.1054 8.48043 16.2929 8.29289C16.4804 8.10536 16.7348 8 17 8C17.2652 8 17.5196 8.10536 17.7071 8.29289C17.8946 8.48043 18 8.73478 18 9C18 9.26522 17.8946 9.51957 17.7071 9.70711C17.5196 9.89464 17.2652 10 17 10C16.7348 10 16.4804 9.89464 16.2929 9.70711C16.1054 9.51957 16 9.26522 16 9ZM17 6C16.2044 6 15.4413 6.31607 14.8787 6.87868C14.3161 7.44129 14 8.20435 14 9C14 9.79565 14.3161 10.5587 14.8787 11.1213C15.4413 11.6839 16.2044 12 17 12C17.7956 12 18.5587 11.6839 19.1213 11.1213C19.6839 10.5587 20 9.79565 20 9C20 8.20435 19.6839 7.44129 19.1213 6.87868C18.5587 6.31607 17.7956 6 17 6ZM2 16.5C2 15.12 3.12 14 4.5 14H11.5C12.88 14 14 15.12 14 16.5V16.596C13.9986 16.6689 13.9933 16.7417 13.984 16.814C13.9655 16.9891 13.9354 17.1628 13.894 17.334C13.7589 17.8871 13.5178 18.4088 13.184 18.87C12.336 20.036 10.756 21 8 21C5.244 21 3.664 20.036 2.816 18.87C2.37906 18.2637 2.10374 17.5561 2.016 16.814L2 16.594V16.5ZM4 16.552L4.004 16.606C4.00933 16.6633 4.02467 16.7493 4.05 16.864C4.104 17.09 4.214 17.392 4.434 17.694C4.834 18.246 5.754 19 8 19C10.246 19 11.164 18.246 11.566 17.694C11.8064 17.3577 11.9559 16.965 12 16.554V16.5C12 16.3674 11.9473 16.2402 11.8536 16.1464C11.7598 16.0527 11.6326 16 11.5 16H4.5C4.36739 16 4.24021 16.0527 4.14645 16.1464C4.05268 16.2402 4 16.3674 4 16.5V16.552ZM16.998 20C16.29 19.9973 15.668 19.9307 15.132 19.8C15.4963 19.222 15.7556 18.5842 15.898 17.916C16.2073 17.9693 16.574 17.9973 16.998 18C18.778 18 19.454 17.456 19.718 17.126C19.8627 16.942 19.959 16.7248 19.998 16.494V16.484C19.9938 16.3542 19.9393 16.2311 19.846 16.1407C19.7527 16.0504 19.6279 15.9999 19.498 16H15.972C15.8929 15.2844 15.6425 14.5983 15.242 14H19.5C20.88 14 22 15.12 22 16.5V16.534C21.9982 16.5962 21.9936 16.6583 21.986 16.72C21.9069 17.3253 21.6634 17.8974 21.282 18.374C20.544 19.294 19.222 20 17 20" fill="black"/>
</svg>
