<svg width="36" height="36" viewBox="0 0 36 36" fill="none" xmlns="http://www.w3.org/2000/svg">
<g clip-path="url(#clip0_2_3)">
<path d="M0 9V13H36V9C36 7.93913 35.5786 6.92172 34.8284 6.17157C34.0783 5.42143 33.0609 5 32 5H4C2.93913 5 1.92172 5.42143 1.17157 6.17157C0.421427 6.92172 0 7.93913 0 9Z" fill="#0099B5"/>
<path d="M36 27V23H0V27C0 28.0609 0.421427 29.0783 1.17157 29.8284C1.92172 30.5786 2.93913 31 4 31H32C33.0609 31 34.0783 30.5786 34.8284 29.8284C35.5786 29.0783 36 28.0609 36 27Z" fill="#1EB53A"/>
<path d="M0 13H36V14.5H0V13ZM0 21.5H36V23H0V21.5Z" fill="#CE1126"/>
<path d="M0 18V21.5H36V14.5H0V18Z" fill="#EEEEEE"/>
<path d="M4.2 9.15999C4.20009 8.42274 4.46125 7.70933 4.93718 7.14627C5.41311 6.5832 6.07306 6.20687 6.8 6.08399C6.35249 6.00803 5.89379 6.03063 5.45592 6.15021C5.01804 6.26979 4.61153 6.48348 4.26474 6.77636C3.91796 7.06923 3.63926 7.43425 3.44808 7.84594C3.25691 8.25763 3.15787 8.70608 3.15787 9.15999C3.15787 9.61391 3.25691 10.0624 3.44808 10.474C3.63926 10.8857 3.91796 11.2508 4.26474 11.5436C4.61153 11.8365 5.01804 12.0502 5.45592 12.1698C5.89379 12.2894 6.35249 12.312 6.8 12.236C6.07306 12.1131 5.41311 11.7368 4.93718 11.1737C4.46125 10.6107 4.20009 9.89725 4.2 9.15999ZM8.883 11.463L8.743 11.032L8.603 11.463H8.149L8.516 11.73L8.376 12.161L8.743 11.894L9.109 12.161L8.969 11.73L9.336 11.463H8.883ZM11.585 11.463L11.445 11.032L11.305 11.463H10.852L11.219 11.73L11.079 12.161L11.445 11.894L11.812 12.161L11.672 11.73L12.039 11.463H11.585ZM11.445 8.53599L11.305 8.96699H10.852L11.219 9.23399L11.079 9.66499L11.445 9.39799L11.812 9.66499L11.672 9.23399L12.039 8.96699H11.585L11.445 8.53599ZM14.288 11.463L14.148 11.032L14.008 11.463H13.555L13.921 11.73L13.781 12.161L14.148 11.894L14.515 12.161L14.375 11.73L14.741 11.463H14.288ZM14.148 8.53599L14.008 8.96699H13.555L13.921 9.23399L13.781 9.66499L14.148 9.39799L14.515 9.66499L14.375 9.23399L14.741 8.96699H14.288L14.148 8.53599ZM14.148 6.03999L14.008 6.47099H13.555L13.921 6.73799L13.781 7.16899L14.148 6.90199L14.515 7.16899L14.375 6.73799L14.741 6.47099H14.288L14.148 6.03999ZM16.991 11.463L16.851 11.032L16.711 11.463H16.257L16.624 11.73L16.484 12.161L16.851 11.894L17.217 12.161L17.077 11.73L17.444 11.463H16.991ZM16.851 8.53599L16.711 8.96699H16.257L16.624 9.23399L16.484 9.66499L16.851 9.39799L17.217 9.66499L17.077 9.23399L17.444 8.96699H16.991L16.851 8.53599ZM16.851 6.03999L16.711 6.47099H16.257L16.624 6.73799L16.484 7.16899L16.851 6.90199L17.217 7.16899L17.077 6.73799L17.444 6.47099H16.991L16.851 6.03999ZM19.693 11.463L19.553 11.032L19.413 11.463H18.96L19.327 11.73L19.187 12.161L19.553 11.894L19.92 12.161L19.78 11.73L20.147 11.463H19.693ZM19.553 8.53599L19.413 8.96699H18.96L19.327 9.23399L19.187 9.66499L19.553 9.39799L19.92 9.66499L19.78 9.23399L20.147 8.96699H19.693L19.553 8.53599ZM19.553 6.03999L19.413 6.47099H18.96L19.327 6.73799L19.187 7.16899L19.553 6.90199L19.92 7.16899L19.78 6.73799L20.147 6.47099H19.693L19.553 6.03999Z" fill="white"/>
</g>
<defs>
<clipPath id="clip0_2_3">
<rect width="36" height="36" fill="white"/>
</clipPath>
</defs>
</svg>
