<svg width="1067" height="304" viewBox="0 0 1067 304" fill="none" xmlns="http://www.w3.org/2000/svg">
<g clip-path="url(#clip0_1_2)">
<path d="M249.86 99.7722C237.157 95.6122 224.177 92.3522 211.017 90.0149V157.86C211.017 206.73 190.242 232.436 152.044 232.436C113.845 232.436 93.0705 206.73 93.0705 157.86V90.0149C79.9118 92.3576 66.9318 95.6189 54.2278 99.7722V158.263C55.0692 183.652 65.7452 207.72 84.0025 225.383C102.26 243.046 126.668 252.919 152.07 252.919C177.473 252.919 201.881 243.046 220.138 225.383C238.396 207.72 249.073 183.652 249.913 158.263L249.86 99.7722ZM169.441 52.6469C163.758 52.1109 157.914 51.8962 151.99 51.8962C146.066 51.8962 140.33 52.1109 134.62 52.6469V133.495H169.468L169.441 52.6469ZM303.981 151.615C304.054 181.692 295.204 211.115 278.549 236.159C261.893 261.203 238.181 280.743 210.416 292.303C182.649 303.866 152.077 306.93 122.569 301.107C93.0611 295.286 65.9438 280.839 44.6505 259.598C23.3558 238.356 8.84248 211.275 2.94782 181.782C-2.94685 152.287 0.0411644 121.708 11.5332 93.9136C23.0265 66.1189 42.5065 42.3589 67.5092 25.6416C92.5132 8.92422 121.913 0.000221569 151.99 0.000221569C171.928 -0.0344451 191.677 3.8589 210.11 11.4616C228.541 19.0642 245.294 30.2242 259.41 44.3056C273.526 58.3869 284.728 75.1122 292.376 93.5242C300.024 111.938 303.966 131.678 303.981 151.615Z" fill="#7000FF"/>
<path d="M795.256 156.705C795.256 176.406 784.13 185.521 767.555 185.521C750.982 185.521 740.256 176.585 740.256 156.705V91.654H704.518V157.954C704.518 201.158 740.662 218.09 767.826 218.09C794.988 218.09 831.174 201.158 831.174 157.954V91.654H795.436L795.256 156.705Z" fill="#7000FF"/>
<path d="M674.275 121.856V91.655H558.117V121.856H626.875L555.345 185.61V215.811H678.609V185.61H602.881L674.275 121.856Z" fill="#7000FF"/>
<path d="M1010.11 89.2873C987.455 89.2873 970.389 98.4913 961.945 112.519C953.324 98.4913 934.604 89.2873 915.168 89.2873C876.969 89.2873 857.089 113.637 857.089 143.705V215.813H892.832V148.797C892.832 134.411 900.379 121.767 917.716 121.767C921.247 121.558 924.787 122.101 928.093 123.362C931.404 124.623 934.404 126.574 936.9 129.083C939.399 131.593 941.332 134.605 942.579 137.918C943.821 141.231 944.348 144.773 944.12 148.306V215.857H979.861V148.261C979.861 133.83 988.349 121.723 1005.51 121.723C1022.66 121.723 1030.93 134.367 1030.93 148.753V215.767H1066.67V143.793C1066.67 113.726 1048.22 89.3767 1009.79 89.3767L1010.11 89.2873Z" fill="#7000FF"/>
<path d="M496.047 156.705C496.047 176.406 484.924 185.521 468.481 185.521C452.043 185.521 441.051 176.585 441.051 156.705V91.654H405.308V157.954C405.308 201.158 441.317 218.09 468.615 218.09C495.913 218.09 531.835 201.158 531.835 157.954V91.654H496.092L496.047 156.705Z" fill="#7000FF"/>
</g>
<defs>
<clipPath id="clip0_1_2">
<rect width="1066.67" height="303.982" fill="white"/>
</clipPath>
</defs>
</svg>
