<svg width="25" height="24" viewBox="0 0 25 24" fill="none" xmlns="http://www.w3.org/2000/svg">
<g clip-path="url(#clip0_407_72)">
<path d="M15.2858 8.15163L10.2979 0.797603C9.97301 0.300478 9.39014 0.000488281 8.74993 0.000488281H2.45297C1.06744 0.000488281 0.197908 1.33758 0.876337 2.41755C2.13729 4.41866 3.91699 6.11794 6.06488 7.37165C6.79109 7.87735 7.68929 8.15163 8.61616 8.15163H15.2858Z" fill="#0074BA"/>
<path d="M22.8249 0.000488281H16.528C15.8878 0.000488281 15.3049 0.300478 14.98 0.797603L9.99213 8.15163H16.6713C17.5982 8.15163 18.4868 7.87735 19.2226 7.37165C21.3725 6.12027 23.1498 4.42319 24.4111 2.41755C25.08 1.33758 24.2105 0.000488281 22.8249 0.000488281Z" fill="#00A6ED"/>
<path d="M12.6026 24.0002C17.9011 24.0002 22.1962 20.0515 22.1962 15.1805C22.1962 10.3096 17.9011 6.36084 12.6026 6.36084C7.30421 6.36084 3.00909 10.3096 3.00909 15.1805C3.00909 20.0515 7.30421 24.0002 12.6026 24.0002Z" fill="#BEBEBE"/>
<path d="M12.6026 22.9376C10.3476 22.9376 8.2263 22.1319 6.64011 20.6662C5.04388 19.2003 4.15488 17.2298 4.16528 15.1807C4.16528 13.1065 5.04437 11.1608 6.64011 9.69517C7.41437 8.97743 8.34165 8.40669 9.36679 8.01691C10.3919 7.62713 11.494 7.42627 12.6074 7.42627C13.7209 7.42627 14.8229 7.62713 15.8481 8.01691C16.8732 8.40669 17.8005 8.97743 18.5747 9.69517C21.8618 12.7208 21.8618 17.6406 18.5747 20.6662C16.9694 22.1319 14.8481 22.9376 12.6026 22.9376ZM12.5931 8.47807C10.7298 8.47807 8.85695 9.12948 7.44276 10.4409C6.0669 11.7089 5.30163 13.4112 5.31192 15.1807C5.31192 16.9721 6.06679 18.652 7.44276 19.9205C8.10991 20.5416 8.90991 21.0356 9.79488 21.3728C10.6798 21.7101 11.6316 21.8837 12.5931 21.8833C14.5424 21.8833 16.3674 21.189 17.7434 19.9205C20.5813 17.3063 20.5813 13.0551 17.7434 10.4409C17.0769 9.81898 16.2771 9.32449 15.3919 8.98718C14.5068 8.64986 13.5548 8.47668 12.5931 8.47807Z" fill="#E6E6E6"/>
<path d="M14.3971 18.8143H10.6037C10.4209 18.8147 10.2418 18.7681 10.0877 18.68C9.93361 18.5918 9.81089 18.4659 9.73413 18.3172C9.65503 18.1696 9.62469 18.0048 9.6467 17.8423C9.66871 17.6798 9.74216 17.5263 9.85835 17.4L13.0116 13.9287C13.2601 13.6545 13.1454 13.363 13.1072 13.2773C13.0623 13.1778 12.9859 13.0923 12.8874 13.0313C12.7889 12.9704 12.6726 12.9367 12.553 12.9345H12.5052C12.1994 12.9345 11.9223 13.0631 11.7408 13.2859C11.435 13.6716 10.833 13.7659 10.3934 13.4916C10.2898 13.4259 10.2016 13.3424 10.134 13.2461C10.0663 13.1497 10.0205 13.0423 9.99922 12.93C9.97792 12.8178 9.98152 12.7028 10.0098 12.5918C10.0381 12.4808 10.0905 12.3759 10.1641 12.2831C10.6992 11.606 11.5688 11.2031 12.4956 11.2031H12.6198C13.5945 11.246 14.4449 11.7688 14.8462 12.5659C15.2571 13.3888 15.1233 14.323 14.4927 15.0173L12.6294 17.0743H14.3876C14.9227 17.0743 15.3527 17.46 15.3527 17.94C15.3527 18.42 14.9322 18.8143 14.3971 18.8143Z" fill="#636363"/>
</g>
<defs>
<clipPath id="clip0_407_72">
<rect width="24" height="24" fill="white" transform="translate(0.641075 0.000488281)"/>
</clipPath>
</defs>
</svg>
