<svg width="24" height="24" viewBox="0 0 24 24" fill="none" xmlns="http://www.w3.org/2000/svg">
<path d="M12 16.0002C6.24 16.0002 5.22 10.2602 5.04 5.70623C4.989 4.44023 4.964 3.80623 5.44 3.22123C5.915 2.63523 6.484 2.53923 7.623 2.34723C9.06984 2.11022 10.5339 1.99415 12 2.00023C13.784 2.00023 15.253 2.15723 16.377 2.34723C17.516 2.53923 18.085 2.63523 18.561 3.22123C19.037 3.80723 19.011 4.44023 18.961 5.70623C18.781 10.2602 17.761 16.0002 12.001 16.0002H12Z" stroke="white" stroke-width="1.5"/>
<path d="M11 8L12.5 6.5V10.5" stroke="white" stroke-width="1.5" stroke-linecap="round" stroke-linejoin="round"/>
<path d="M19 5L19.949 5.316C20.939 5.646 21.434 5.811 21.717 6.204C22 6.597 22 7.12 22 8.162V8.235C22 9.095 22 9.526 21.793 9.878C21.586 10.23 21.209 10.439 20.457 10.858L17.5 12.5M5 5L4.051 5.316C3.061 5.646 2.566 5.811 2.283 6.204C2 6.597 2 7.12 2 8.162V8.235C2 9.095 2 9.526 2.207 9.878C2.414 10.23 2.791 10.439 3.543 10.858L6.5 12.5" stroke="white" stroke-width="1.5"/>
<path d="M12 16V19" stroke="white" stroke-width="1.5" stroke-linecap="round"/>
<path d="M15.5 22H8.5L8.84 20.304C8.88529 20.0774 9.00768 19.8735 9.18634 19.7269C9.365 19.5803 9.58891 19.5001 9.82 19.5H14.18C14.4111 19.5001 14.635 19.5803 14.8137 19.7269C14.9923 19.8735 15.1147 20.0774 15.16 20.304L15.5 22Z" stroke="white" stroke-width="1.5" stroke-linecap="round" stroke-linejoin="round"/>
<path d="M18 22H6" stroke="white" stroke-width="1.5" stroke-linecap="round"/>
</svg>
