<svg width="24" height="24" viewBox="0 0 24 24" fill="none" xmlns="http://www.w3.org/2000/svg">
<path d="M2.5 9.9692C2.5 9.35711 2.78029 8.77872 3.26071 8.39944L10.7607 2.47838C11.4873 1.90474 12.5127 1.90474 13.2393 2.47839L20.7393 8.39944C21.2197 8.77872 21.5 9.35711 21.5 9.9692V19.5C21.5 20.6046 20.6046 21.5 19.5 21.5H17C15.8954 21.5 15 20.6046 15 19.5V17.5C15 16.3954 14.1046 15.5 13 15.5H11C9.89543 15.5 9 16.3954 9 17.5V19.5C9 20.6046 8.10457 21.5 7 21.5H4.5C3.39543 21.5 2.5 20.6046 2.5 19.5L2.5 9.9692Z" stroke="white" stroke-width="1.5"/>
</svg>
