<svg width="19" height="19" viewBox="0 0 19 19" fill="none" xmlns="http://www.w3.org/2000/svg">
<rect width="19" height="19" rx="9.5" fill="black"/>
<path d="M8.15966 15V7.412H10.8197V15H8.15966ZM9.48966 6.572C9.00433 6.572 8.61233 6.43667 8.31366 6.166C8.015 5.89533 7.86566 5.55933 7.86566 5.158C7.86566 4.75667 8.015 4.42067 8.31366 4.15C8.61233 3.87933 9.00433 3.744 9.48966 3.744C9.975 3.744 10.367 3.87467 10.6657 4.136C10.9643 4.388 11.1137 4.71467 11.1137 5.116C11.1137 5.536 10.9643 5.886 10.6657 6.166C10.3763 6.43667 9.98433 6.572 9.48966 6.572Z" fill="white"/>
</svg>
