<svg width="24" height="24" viewBox="0 0 24 24" fill="none" xmlns="http://www.w3.org/2000/svg">
<path d="M23.0437 6.38251C23.0437 6.38251 19.9819 3.75563 18.1706 2.89688C16.9181 2.30438 15.0525 2.01001 14.9494 2.01001C14.9494 2.01001 14.0381 2.46751 12 2.46751C9.96185 2.46751 9.0506 2.01001 9.0506 2.01001C8.94747 2.01001 7.08185 2.30251 5.82935 2.89688C4.01622 3.75376 0.956224 6.38251 0.956224 6.38251C0.851224 6.46501 0.809974 6.60188 0.851224 6.72938C1.0481 7.34063 1.70435 9.24751 3.61685 10.7231C3.7331 10.8131 3.8981 10.8075 4.01247 10.7138C4.48872 10.3125 5.96622 9.39938 5.96622 9.39938L5.8331 20.8388C5.81622 20.9794 5.88747 21.1181 6.0131 21.1819C6.55497 21.4613 8.46185 22.1213 12.0018 22.1213C15.5418 22.1213 17.4487 21.4594 17.9906 21.1819C18.1162 21.1163 18.1875 20.9794 18.1706 20.8388L18.0375 9.39938C18.0375 9.39938 19.515 10.3144 19.9912 10.7138C20.1037 10.8094 20.2687 10.815 20.3869 10.7231C22.2994 9.24563 22.9556 7.34063 23.1525 6.72938C23.19 6.60188 23.1487 6.46501 23.0437 6.38251Z" fill="#B7E4EA"/>
<path d="M8.91357 2.3287C8.91357 2.3287 9.3767 4.8337 11.9229 4.83182C15.0542 4.82995 15.2567 2.21057 15.2567 2.21057C15.2567 2.21057 13.4136 2.76182 12.0242 2.76182C10.6348 2.76182 8.91357 2.3287 8.91357 2.3287Z" fill="#75C6D3"/>
<path d="M11.9234 3.13688C11.0009 3.13688 10.0277 2.955 9.39773 2.80875L9.00586 1.90126C9.02273 1.90688 10.5602 2.32875 11.9346 2.32875C13.3165 2.32875 14.9852 1.90313 15.004 1.89563L14.7021 2.78063C14.0365 2.92688 12.9134 3.13688 11.9234 3.13688Z" fill="#0288D1"/>
<path d="M9.69357 2.0625C9.2267 1.96875 9.01482 1.90313 9.00732 1.90126L9.41982 2.8125C9.50795 2.83313 9.68982 2.8725 9.80607 2.89688C9.70107 2.59688 9.66545 2.3325 9.69357 2.0625ZM14.0717 2.90813C14.2592 2.8725 14.4936 2.82375 14.6848 2.7825L15.0036 1.89563C14.9961 1.8975 14.7542 1.95938 14.3829 2.03625C14.3436 2.32875 14.1992 2.64938 14.0717 2.90813Z" fill="#01579B"/>
<path d="M11.897 5.29502C9.67326 5.29502 8.47889 3.43502 8.17701 2.22564C8.17701 2.22564 8.13201 2.12814 8.26139 2.08502C8.35701 2.05314 8.74889 1.92189 8.92139 1.88627C8.98326 1.87314 9.04326 1.90877 9.06389 1.97064C9.22701 2.44127 9.99951 4.36314 12.0583 4.36314C14.1414 4.36314 14.8033 2.47127 14.9364 1.97627C14.9533 1.90877 15.017 1.86939 15.0826 1.88252C15.2608 1.92002 15.6414 2.05877 15.7333 2.09252C15.8476 2.13564 15.8214 2.21814 15.8214 2.21814C15.6433 3.39377 14.6945 5.29314 11.8989 5.29502H11.897ZM22.5976 5.98502C22.5751 5.96627 22.5414 5.97752 22.5339 6.00564C22.4739 6.25127 22.1945 7.22252 21.3545 8.43377C20.627 9.48377 19.817 10.2413 19.6408 10.4006C19.622 10.4175 19.6239 10.4456 19.6445 10.4606C19.7308 10.5281 19.937 10.6894 19.9951 10.7306C20.0701 10.7813 20.1133 10.8 20.1864 10.8C20.2539 10.8 20.3289 10.7775 20.3851 10.7344C22.2976 9.25689 22.9651 7.34814 23.162 6.73689C23.1808 6.67877 23.1976 6.56064 23.1283 6.45564C23.0626 6.36002 22.7251 6.08814 22.5976 5.98502ZM1.40264 5.98502C1.42514 5.96627 1.45889 5.97752 1.46639 6.00564C1.52639 6.25127 1.80576 7.22252 2.64576 8.43377C3.37326 9.48377 4.18326 10.2413 4.35951 10.4006C4.37826 10.4175 4.37639 10.4456 4.35576 10.4606C4.26951 10.5281 4.06326 10.6894 4.00514 10.7306C3.93014 10.7813 3.88701 10.8 3.81389 10.8C3.74639 10.8 3.67139 10.7775 3.61514 10.7344C1.70264 9.25877 1.03514 7.34814 0.838262 6.73689C0.819512 6.67877 0.802637 6.56064 0.872012 6.45564C0.937637 6.36002 1.27514 6.08814 1.40264 5.98502Z" fill="#29B6F6"/>
</svg>
