<svg width="24" height="24" viewBox="0 0 24 24" fill="none" xmlns="http://www.w3.org/2000/svg">
<path d="M2 3.25C2 2.55964 2.55964 2 3.25 2H12H15.4822C15.8138 2 16.1317 2.1317 16.3661 2.36612L21.6339 7.63388C21.8683 7.8683 22 8.18625 22 8.51777V12V20.75C22 21.4404 21.4404 22 20.75 22H3.25C2.55964 22 2 21.4404 2 20.75V3.25Z" stroke="white" stroke-width="1.5"/>
<path d="M6 14.25C6 13.5596 6.55964 13 7.25 13H16.75C17.4404 13 18 13.5596 18 14.25V20.75C18 21.4404 17.4404 22 16.75 22H7.25C6.55964 22 6 21.4404 6 20.75V14.25Z" stroke="white" stroke-width="1.5"/>
<path d="M8 2V5.75C8 6.44036 8.55964 7 9.25 7H14.75C15.4404 7 16 6.44036 16 5.75V2" stroke="white" stroke-width="1.5"/>
</svg>
