<svg width="692" height="598" viewBox="0 0 692 598" fill="none" xmlns="http://www.w3.org/2000/svg">
<path d="M116.866 3.22881C117.234 1.35287 118.879 0 120.791 0H572.204C574.118 0 575.764 1.35621 576.13 3.23512L691.072 593.235C691.553 595.705 689.662 598 687.146 598H4.86242C2.34374 598 0.451882 595.7 0.937486 593.229L116.866 3.22881Z" fill="#28892D"/>
<path d="M20.0305 567.5L127.487 12.5H565.469L670.483 567.5H20.0305Z" stroke="white" stroke-width="5"/>
<path d="M163.803 567.5L177.23 450.5H514.261L527.208 567.5H163.803Z" stroke="white" stroke-width="5"/>
<path d="M263.585 567.5L264.918 527.5L424.661 527.5L427.328 567.5H263.585Z" stroke="white" stroke-width="5"/>
<mask id="path-5-inside-1_752_44" fill="white">
<path d="M407 452.5C407 448.495 405.396 444.529 402.281 440.828C399.165 437.128 394.598 433.765 388.841 430.933C383.083 428.101 376.249 425.854 368.726 424.322C361.204 422.789 353.142 422 345 422C336.858 422 328.796 422.789 321.274 424.322C313.751 425.854 306.917 428.101 301.159 430.933C295.402 433.765 290.835 437.128 287.719 440.828C284.604 444.529 283 448.495 283 452.5L345 452.5H407Z"/>
</mask>
<path d="M407 452.5C407 448.495 405.396 444.529 402.281 440.828C399.165 437.128 394.598 433.765 388.841 430.933C383.083 428.101 376.249 425.854 368.726 424.322C361.204 422.789 353.142 422 345 422C336.858 422 328.796 422.789 321.274 424.322C313.751 425.854 306.917 428.101 301.159 430.933C295.402 433.765 290.835 437.128 287.719 440.828C284.604 444.529 283 448.495 283 452.5L345 452.5H407Z" stroke="white" stroke-width="10" mask="url(#path-5-inside-1_752_44)"/>
<path d="M469.191 12L475.288 72.5L216.195 72.5L221.823 12L469.191 12Z" stroke="white" stroke-width="4"/>
<path d="M401 31L290 31L290 12L401 12L401 31Z" stroke="white" stroke-width="4"/>
<mask id="path-8-inside-2_752_44" fill="white">
<path d="M297 70.5C297 73.0608 298.267 75.5965 300.73 77.9623C303.192 80.3282 306.802 82.4778 311.352 84.2886C315.902 86.0993 321.304 87.5357 327.249 88.5156C333.193 89.4956 339.565 90 346 90C352.435 90 358.807 89.4956 364.751 88.5156C370.696 87.5357 376.098 86.0993 380.648 84.2886C385.198 82.4778 388.808 80.3282 391.27 77.9623C393.733 75.5965 395 73.0608 395 70.5L346 70.5L297 70.5Z"/>
</mask>
<path d="M297 70.5C297 73.0608 298.267 75.5965 300.73 77.9623C303.192 80.3282 306.802 82.4778 311.352 84.2886C315.902 86.0993 321.304 87.5357 327.249 88.5156C333.193 89.4956 339.565 90 346 90C352.435 90 358.807 89.4956 364.751 88.5156C370.696 87.5357 376.098 86.0993 380.648 84.2886C385.198 82.4778 388.808 80.3282 391.27 77.9623C393.733 75.5965 395 73.0608 395 70.5L346 70.5L297 70.5Z" stroke="white" stroke-width="8" mask="url(#path-8-inside-2_752_44)"/>
<line x1="86" y1="236.5" x2="608" y2="236.507" stroke="white" stroke-width="3"/>
<path d="M412.5 239.5C412.5 251.987 405.203 263.45 393.082 271.855C380.967 280.256 364.149 285.5 345.5 285.5C326.851 285.5 310.033 280.256 297.918 271.855C285.797 263.45 278.5 251.987 278.5 239.5C278.5 227.013 285.797 215.55 297.918 207.145C310.033 198.744 326.851 193.5 345.5 193.5C364.149 193.5 380.967 198.744 393.082 207.145C405.203 215.55 412.5 227.013 412.5 239.5Z" stroke="white" stroke-width="3"/>
</svg>
