<svg width="692" height="598" viewBox="0 0 692 598" fill="none" xmlns="http://www.w3.org/2000/svg">
<path d="M76.7754 1.74457C76.9038 0.746985 77.7532 0 78.759 0H614.238C615.245 0 616.095 0.748805 616.222 1.74785L691.714 595.748C691.866 596.943 690.934 598 689.73 598H2.27404C1.06807 598 0.136401 596.941 0.290413 595.745L76.7754 1.74457Z" fill="#28892D"/>
<path d="M19.8353 582.5L91.7596 12.5H604.225L671.189 582.5H19.8353Z" stroke="white" stroke-width="5"/>
<path d="M163.803 582.5L177.23 465.5H514.261L527.208 582.5H163.803Z" stroke="white" stroke-width="5"/>
<path d="M263.585 582.5L264.918 542.5L424.661 542.5L427.328 582.5H263.585Z" stroke="white" stroke-width="5"/>
<mask id="path-5-inside-1_572_46" fill="white">
<path d="M407 467.5C407 463.495 405.396 459.529 402.281 455.828C399.165 452.128 394.598 448.765 388.841 445.933C383.083 443.101 376.249 440.854 368.726 439.322C361.204 437.789 353.142 437 345 437C336.858 437 328.796 437.789 321.274 439.322C313.751 440.854 306.917 443.101 301.159 445.933C295.402 448.765 290.835 452.128 287.719 455.828C284.604 459.529 283 463.495 283 467.5L345 467.5H407Z"/>
</mask>
<path d="M407 467.5C407 463.495 405.396 459.529 402.281 455.828C399.165 452.128 394.598 448.765 388.841 445.933C383.083 443.101 376.249 440.854 368.726 439.322C361.204 437.789 353.142 437 345 437C336.858 437 328.796 437.789 321.274 439.322C313.751 440.854 306.917 443.101 301.159 445.933C295.402 448.765 290.835 452.128 287.719 455.828C284.604 459.529 283 463.495 283 467.5L345 467.5H407Z" stroke="white" stroke-width="10" mask="url(#path-5-inside-1_572_46)"/>
<path d="M469.191 12L475.288 72.5L216.195 72.5L221.823 12L469.191 12Z" stroke="white" stroke-width="4"/>
<path d="M401 31L290 31L290 12L401 12L401 31Z" stroke="white" stroke-width="4"/>
<mask id="path-8-inside-2_572_46" fill="white">
<path d="M297 70.5C297 73.0608 298.267 75.5965 300.73 77.9623C303.192 80.3282 306.802 82.4778 311.352 84.2886C315.902 86.0993 321.304 87.5357 327.249 88.5156C333.193 89.4956 339.565 90 346 90C352.435 90 358.807 89.4956 364.751 88.5156C370.696 87.5357 376.098 86.0993 380.648 84.2886C385.198 82.4778 388.808 80.3282 391.27 77.9623C393.733 75.5965 395 73.0608 395 70.5L346 70.5L297 70.5Z"/>
</mask>
<path d="M297 70.5C297 73.0608 298.267 75.5965 300.73 77.9623C303.192 80.3282 306.802 82.4778 311.352 84.2886C315.902 86.0993 321.304 87.5357 327.249 88.5156C333.193 89.4956 339.565 90 346 90C352.435 90 358.807 89.4956 364.751 88.5156C370.696 87.5357 376.098 86.0993 380.648 84.2886C385.198 82.4778 388.808 80.3282 391.27 77.9623C393.733 75.5965 395 73.0608 395 70.5L346 70.5L297 70.5Z" stroke="white" stroke-width="8" mask="url(#path-8-inside-2_572_46)"/>
<path d="M59 256L633 254.5" stroke="white" stroke-width="3"/>
<path d="M415.5 255.5C415.5 267.987 408.203 279.45 396.082 287.855C383.967 296.256 367.149 301.5 348.5 301.5C329.851 301.5 313.033 296.256 300.918 287.855C288.797 279.45 281.5 267.987 281.5 255.5C281.5 243.013 288.797 231.55 300.918 223.145C313.033 214.744 329.851 209.5 348.5 209.5C367.149 209.5 383.967 214.744 396.082 223.145C408.203 231.55 415.5 243.013 415.5 255.5Z" stroke="white" stroke-width="3"/>
</svg>
