<svg width="40" height="40" viewBox="0 0 40 40" fill="none" xmlns="http://www.w3.org/2000/svg">
<path d="M1.3349 12.3253C0.589537 11.5509 0.589538 10.3258 1.3349 9.55142L5.73429 4.98059C7.24241 3.4137 9.32345 2.52832 11.4982 2.52832H13.8655C14.8222 2.52832 15.6076 3.23718 16.0941 4.061C16.8992 5.42465 18.3474 6.33427 20 6.33427C21.6526 6.33427 23.1008 5.42465 23.9059 4.061C24.3924 3.23718 25.1778 2.52832 26.1345 2.52832H28.5018C30.6765 2.52832 32.7576 3.4137 34.2657 4.98059L38.6651 9.55142C39.4104 10.3258 39.4104 11.5509 38.6651 12.3253L35.2891 15.8328C34.5023 16.6503 33.1939 16.6503 32.4071 15.8328L31.9054 15.3116V34.3061C31.9054 35.4107 31.01 36.3061 29.9054 36.3061H10.0946C8.99002 36.3061 8.09459 35.4107 8.09459 34.3061V15.3116L7.59286 15.8328C6.80609 16.6503 5.49767 16.6503 4.7109 15.8328L1.3349 12.3253Z" fill="#002E95"/>
<g filter="url(#filter0_f_33_581)">
<rect x="18" y="7" width="3.5" height="28" fill="#DE3643"/>
</g>
<g filter="url(#filter1_f_33_581)">
<rect x="27" y="5" width="3" height="29" fill="#DE3643"/>
</g>
<g filter="url(#filter2_f_33_581)">
<rect x="10" y="5" width="3" height="30" fill="#DE3643"/>
</g>
<g opacity="0.5" filter="url(#filter3_f_33_581)">
<rect x="14" y="6" width="2" height="28" fill="#4BA3F3"/>
</g>
<g opacity="0.5" filter="url(#filter4_f_33_581)">
<rect x="23" y="6" width="2" height="28" fill="#4BA3F3"/>
</g>
<g opacity="0.8" filter="url(#filter5_f_33_581)">
<line x1="3.18104" y1="12.1976" x2="10.6977" y2="4.68099" stroke="#DB3645" stroke-width="3"/>
</g>
<g opacity="0.8" filter="url(#filter6_f_33_581)">
<line x1="36.6976" y1="12.319" x2="29.181" y2="4.80231" stroke="#DB3645" stroke-width="3"/>
</g>
<path fill-rule="evenodd" clip-rule="evenodd" d="M29.9054 10.3496L33.8481 14.4459L37.2241 10.9384L32.8247 6.36752C31.6936 5.19236 30.1329 4.52832 28.5018 4.52832H26.1435C26.1292 4.53297 26.0947 4.54796 26.0374 4.59055C25.9186 4.67893 25.7672 4.84227 25.6281 5.07787C24.4912 7.00345 22.4135 8.33427 20 8.33427C17.5865 8.33427 15.5088 7.00345 14.3719 5.07787C14.2328 4.84227 14.0815 4.67893 13.9626 4.59055C13.9054 4.54796 13.8708 4.53297 13.8565 4.52832H11.4982C9.86714 4.52832 8.30636 5.19236 7.17527 6.36752L2.77587 10.9384L6.15188 14.4459L10.0946 10.3496V34.3061H29.9054V10.3496ZM33.9054 16.4451C34.4099 16.4307 34.91 16.2267 35.2891 15.8328L38.6651 12.3253C39.4104 11.5509 39.4104 10.3258 38.6651 9.55142L34.2657 4.98059C32.7576 3.4137 30.6765 2.52832 28.5018 2.52832H26.1345C25.1778 2.52832 24.3924 3.23718 23.9059 4.061C23.1008 5.42465 21.6526 6.33427 20 6.33427C18.3474 6.33427 16.8992 5.42465 16.0941 4.061C15.6076 3.23718 14.8222 2.52832 13.8655 2.52832H11.4982C9.32345 2.52832 7.24241 3.4137 5.73429 4.98059L1.3349 9.55142C0.589538 10.3258 0.589537 11.5509 1.3349 12.3253L4.7109 15.8328C5.08994 16.2267 5.59005 16.4307 6.09459 16.4451C6.6373 16.4605 7.18513 16.2565 7.59286 15.8328L8.09459 15.3116V34.3061C8.09459 35.4107 8.99002 36.3061 10.0946 36.3061H29.9054C31.01 36.3061 31.9054 35.4107 31.9054 34.3061V15.3116L32.4071 15.8328C32.8149 16.2565 33.3627 16.4605 33.9054 16.4451Z" fill="black" fill-opacity="0.3"/>
<path fill-rule="evenodd" clip-rule="evenodd" d="M29.9054 10.3496L33.8481 14.4459L37.2241 10.9384L32.8247 6.36752C31.6936 5.19236 30.1329 4.52832 28.5018 4.52832H26.1435C26.1292 4.53297 26.0947 4.54796 26.0374 4.59055C25.9186 4.67893 25.7672 4.84227 25.6281 5.07787C24.4912 7.00345 22.4135 8.33427 20 8.33427C17.5865 8.33427 15.5088 7.00345 14.3719 5.07787C14.2328 4.84227 14.0815 4.67893 13.9626 4.59055C13.9054 4.54796 13.8708 4.53297 13.8565 4.52832H11.4982C9.86714 4.52832 8.30636 5.19236 7.17527 6.36752L2.77587 10.9384L1.3349 9.55142L5.73429 4.98059C7.24241 3.4137 9.32345 2.52832 11.4982 2.52832H13.8655C14.8222 2.52832 15.6076 3.23718 16.0941 4.061C16.8992 5.42465 18.3474 6.33427 20 6.33427C21.6526 6.33427 23.1008 5.42465 23.9059 4.061C24.3924 3.23718 25.1778 2.52832 26.1345 2.52832H28.5018C30.6765 2.52832 32.7576 3.4137 34.2657 4.98059L38.6651 9.55142C39.4104 10.3258 39.4104 11.5509 38.6651 12.3253L35.2891 15.8328C34.91 16.2267 34.4099 16.4307 33.9054 16.4451C33.3627 16.4605 32.8149 16.2565 32.4071 15.8328L31.9054 15.3116V34.3061C31.9054 35.4107 31.01 36.3061 29.9054 36.3061H10.0946C8.99002 36.3061 8.09459 35.4107 8.09459 34.3061V15.3116L7.59286 15.8328C7.18513 16.2565 6.6373 16.4605 6.09459 16.4451C5.59005 16.4307 5.08994 16.2267 4.7109 15.8328L1.3349 12.3253C0.589537 11.5509 0.589538 10.3258 1.3349 9.55142L2.77587 10.9384L6.15188 14.4459L10.0946 10.3496V34.3061H29.9054V10.3496Z" fill="#113D9F"/>
<defs>
<filter id="filter0_f_33_581" x="16" y="5" width="7.5" height="32" filterUnits="userSpaceOnUse" color-interpolation-filters="sRGB">
<feFlood flood-opacity="0" result="BackgroundImageFix"/>
<feBlend mode="normal" in="SourceGraphic" in2="BackgroundImageFix" result="shape"/>
<feGaussianBlur stdDeviation="1" result="effect1_foregroundBlur_33_581"/>
</filter>
<filter id="filter1_f_33_581" x="25" y="3" width="7" height="33" filterUnits="userSpaceOnUse" color-interpolation-filters="sRGB">
<feFlood flood-opacity="0" result="BackgroundImageFix"/>
<feBlend mode="normal" in="SourceGraphic" in2="BackgroundImageFix" result="shape"/>
<feGaussianBlur stdDeviation="1" result="effect1_foregroundBlur_33_581"/>
</filter>
<filter id="filter2_f_33_581" x="8" y="3" width="7" height="34" filterUnits="userSpaceOnUse" color-interpolation-filters="sRGB">
<feFlood flood-opacity="0" result="BackgroundImageFix"/>
<feBlend mode="normal" in="SourceGraphic" in2="BackgroundImageFix" result="shape"/>
<feGaussianBlur stdDeviation="1" result="effect1_foregroundBlur_33_581"/>
</filter>
<filter id="filter3_f_33_581" x="12" y="4" width="6" height="32" filterUnits="userSpaceOnUse" color-interpolation-filters="sRGB">
<feFlood flood-opacity="0" result="BackgroundImageFix"/>
<feBlend mode="normal" in="SourceGraphic" in2="BackgroundImageFix" result="shape"/>
<feGaussianBlur stdDeviation="1" result="effect1_foregroundBlur_33_581"/>
</filter>
<filter id="filter4_f_33_581" x="21" y="4" width="6" height="32" filterUnits="userSpaceOnUse" color-interpolation-filters="sRGB">
<feFlood flood-opacity="0" result="BackgroundImageFix"/>
<feBlend mode="normal" in="SourceGraphic" in2="BackgroundImageFix" result="shape"/>
<feGaussianBlur stdDeviation="1" result="effect1_foregroundBlur_33_581"/>
</filter>
<filter id="filter5_f_33_581" x="0.120361" y="1.62033" width="13.6379" height="13.638" filterUnits="userSpaceOnUse" color-interpolation-filters="sRGB">
<feFlood flood-opacity="0" result="BackgroundImageFix"/>
<feBlend mode="normal" in="SourceGraphic" in2="BackgroundImageFix" result="shape"/>
<feGaussianBlur stdDeviation="1" result="effect1_foregroundBlur_33_581"/>
</filter>
<filter id="filter6_f_33_581" x="26.1204" y="1.74165" width="13.6379" height="13.638" filterUnits="userSpaceOnUse" color-interpolation-filters="sRGB">
<feFlood flood-opacity="0" result="BackgroundImageFix"/>
<feBlend mode="normal" in="SourceGraphic" in2="BackgroundImageFix" result="shape"/>
<feGaussianBlur stdDeviation="1" result="effect1_foregroundBlur_33_581"/>
</filter>
</defs>
</svg>
