<svg width="40" height="40" viewBox="0 0 40 40" fill="none" xmlns="http://www.w3.org/2000/svg">
<path d="M1.3349 12.3253C0.589539 11.5509 0.58954 10.3258 1.3349 9.55142L5.7343 4.98059C7.24242 3.4137 9.32345 2.52832 11.4982 2.52832H13.8655C14.8222 2.52832 15.6076 3.23718 16.0941 4.061C16.8992 5.42465 18.3474 6.33427 20 6.33427C21.6526 6.33427 23.1008 5.42465 23.9059 4.061C24.3924 3.23718 25.1778 2.52832 26.1345 2.52832H28.5018C30.6765 2.52832 32.7576 3.4137 34.2657 4.98059L38.6651 9.55142C39.4104 10.3258 39.4104 11.5509 38.6651 12.3253L35.2891 15.8328C34.5023 16.6503 33.1939 16.6503 32.4071 15.8328L31.9054 15.3116V34.3061C31.9054 35.4107 31.01 36.3061 29.9054 36.3061H10.0946C8.99002 36.3061 8.09459 35.4107 8.09459 34.3061V15.3116L7.59287 15.8328C6.8061 16.6503 5.49767 16.6503 4.71091 15.8328L1.3349 12.3253Z" fill="#202020"/>
<path d="M32.6259 14.6181L30.9054 12.8306V15.3116V34.3061C30.9054 34.8584 30.4577 35.3061 29.9054 35.3061H10.0946C9.54231 35.3061 9.09459 34.8584 9.09459 34.3061V15.3116V12.8306L7.3741 14.6181L6.87238 15.1394C6.479 15.5481 5.82478 15.5481 5.4314 15.1394L2.05539 11.6318C1.68271 11.2446 1.68271 10.6321 2.05539 10.2449L6.45479 5.67406C7.77439 4.30303 9.5953 3.52832 11.4982 3.52832H13.8655C14.3031 3.52832 14.8224 3.87413 15.233 4.56943C16.204 6.21405 17.9669 7.33427 20 7.33427C22.0331 7.33427 23.796 6.21405 24.767 4.56943C25.1776 3.87413 25.6969 3.52832 26.1345 3.52832H28.5018C30.4047 3.52832 32.2256 4.30303 33.5452 5.67406L37.9446 10.2449C38.3173 10.6321 38.3173 11.2446 37.9446 11.6318L34.5686 15.1394C34.1752 15.5481 33.521 15.5481 33.1276 15.1394L32.6259 14.6181Z" stroke="black" stroke-opacity="0.3" stroke-width="2"/>
<path d="M22.5 7V36" stroke="#BF161E" stroke-width="3"/>
<path d="M17.5 7V36" stroke="#BF161E" stroke-width="3"/>
<path d="M27.5 4V36" stroke="#BF161E" stroke-width="3"/>
<path d="M12.5 3V36" stroke="#BF161E" stroke-width="3"/>
<path d="M7.5 5V14.1" stroke="#BF161E" stroke-width="2.5"/>
<path d="M32.5 5V14.1" stroke="#BF161E" stroke-width="2.5"/>
<path d="M36.5 9V13" stroke="#BF161E" stroke-width="2"/>
<path d="M3.5 9V13" stroke="#BF161E" stroke-width="2"/>
<path d="M28 3.5C28 4.35359 27.7931 5.19883 27.391 5.98744C26.989 6.77606 26.3997 7.49261 25.6569 8.09619C24.914 8.69978 24.0321 9.17856 23.0615 9.50522C22.0909 9.83187 21.0506 10 20 10C18.9494 10 17.9091 9.83187 16.9385 9.50522C15.9679 9.17856 15.086 8.69977 14.3431 8.09619C13.6003 7.49261 13.011 6.77606 12.609 5.98744C12.2069 5.19883 12 4.35359 12 3.5H14.7236C14.7236 4.06299 14.8601 4.62046 15.1252 5.14059C15.3904 5.66072 15.7791 6.13333 16.269 6.53142C16.759 6.92951 17.3406 7.24529 17.9808 7.46074C18.621 7.67618 19.3071 7.78707 20 7.78707C20.6929 7.78707 21.379 7.67618 22.0192 7.46074C22.6594 7.24529 23.241 6.92951 23.731 6.53142C24.2209 6.13333 24.6096 5.66072 24.8748 5.14059C25.1399 4.62046 25.2764 4.06299 25.2764 3.5H28Z" fill="white"/>
<path d="M32.6259 14.6181L30.9054 12.8306V15.3116V34.3061C30.9054 34.8584 30.4577 35.3061 29.9054 35.3061H10.0946C9.54231 35.3061 9.09459 34.8584 9.09459 34.3061V15.3116V12.8306L7.3741 14.6181L6.87238 15.1394C6.479 15.5481 5.82478 15.5481 5.4314 15.1394L2.05539 11.6318C1.68271 11.2446 1.68271 10.6321 2.05539 10.2449L6.45479 5.67406C7.77439 4.30303 9.5953 3.52832 11.4982 3.52832H13.8655C14.3031 3.52832 14.8224 3.87413 15.233 4.56943C16.204 6.21405 17.9669 7.33427 20 7.33427C22.0331 7.33427 23.796 6.21405 24.767 4.56943C25.1776 3.87413 25.6969 3.52832 26.1345 3.52832H28.5018C30.4047 3.52832 32.2256 4.30303 33.5452 5.67406L37.9446 10.2449C38.3173 10.6321 38.3173 11.2446 37.9446 11.6318L34.5686 15.1394C34.1752 15.5481 33.521 15.5481 33.1276 15.1394L32.6259 14.6181Z" stroke="black" stroke-width="2"/>
<path d="M32.6259 14.6181L30.9054 12.8306V15.3116V34.3061C30.9054 34.8584 30.4577 35.3061 29.9054 35.3061H10.0946C9.54231 35.3061 9.09459 34.8584 9.09459 34.3061V15.3116V12.8306L7.3741 14.6181L6.87238 15.1394C6.479 15.5481 5.82478 15.5481 5.4314 15.1394L2.05539 11.6318C1.68271 11.2446 1.68271 10.6321 2.05539 10.2449L6.45479 5.67406C7.77439 4.30303 9.5953 3.52832 11.4982 3.52832H13.8655C14.3031 3.52832 14.8224 3.87413 15.233 4.56943C16.204 6.21405 17.9669 7.33427 20 7.33427C22.0331 7.33427 23.796 6.21405 24.767 4.56943C25.1776 3.87413 25.6969 3.52832 26.1345 3.52832H28.5018C30.4047 3.52832 32.2256 4.30303 33.5452 5.67406L37.9446 10.2449C38.3173 10.6321 38.3173 11.2446 37.9446 11.6318L34.5686 15.1394C34.1752 15.5481 33.521 15.5481 33.1276 15.1394L32.6259 14.6181Z" stroke="black" stroke-opacity="0.3" stroke-width="2"/>
</svg>
