<svg width="40" height="40" viewBox="0 0 40 40" fill="none" xmlns="http://www.w3.org/2000/svg">
<path d="M1.3349 12.3253C0.589537 11.5509 0.589538 10.3258 1.3349 9.55142L5.73429 4.98059C7.24241 3.4137 9.32345 2.52832 11.4982 2.52832H13.8655C14.8222 2.52832 15.6076 3.23718 16.0941 4.061C16.8992 5.42465 18.3474 6.33427 20 6.33427C21.6526 6.33427 23.1008 5.42465 23.9059 4.061C24.3924 3.23718 25.1778 2.52832 26.1345 2.52832H28.5018C30.6765 2.52832 32.7576 3.4137 34.2657 4.98059L38.6651 9.55142C39.4104 10.3258 39.4104 11.5509 38.6651 12.3253L35.2891 15.8328C34.5023 16.6503 33.1939 16.6503 32.4071 15.8328L31.9054 15.3116V34.3061C31.9054 35.4107 31.01 36.3061 29.9054 36.3061H10.0946C8.99002 36.3061 8.09459 35.4107 8.09459 34.3061V15.3116L7.59286 15.8328C6.80609 16.6503 5.49767 16.6503 4.7109 15.8328L1.3349 12.3253Z" fill="#EEEEEE"/>
<path fill-rule="evenodd" clip-rule="evenodd" d="M29.9054 10.3496L33.8481 14.4459L37.2241 10.9384L32.8247 6.36752C31.6936 5.19236 30.1329 4.52832 28.5018 4.52832H26.1435C26.1292 4.53297 26.0947 4.54796 26.0374 4.59055C25.9186 4.67893 25.7672 4.84227 25.6281 5.07787C24.4912 7.00345 22.4135 8.33427 20 8.33427C17.5865 8.33427 15.5088 7.00345 14.3719 5.07787C14.2328 4.84227 14.0815 4.67893 13.9626 4.59055C13.9054 4.54796 13.8708 4.53297 13.8565 4.52832H11.4982C9.86714 4.52832 8.30636 5.19236 7.17527 6.36752L2.77587 10.9384L6.15188 14.4459L10.0946 10.3496V34.3061H29.9054V10.3496ZM33.9054 16.4451C34.4099 16.4307 34.91 16.2267 35.2891 15.8328L38.6651 12.3253C39.4104 11.5509 39.4104 10.3258 38.6651 9.55142L34.2657 4.98059C32.7576 3.4137 30.6765 2.52832 28.5018 2.52832H26.1345C25.1778 2.52832 24.3924 3.23718 23.9059 4.061C23.1008 5.42465 21.6526 6.33427 20 6.33427C18.3474 6.33427 16.8992 5.42465 16.0941 4.061C15.6076 3.23718 14.8222 2.52832 13.8655 2.52832H11.4982C9.32345 2.52832 7.24241 3.4137 5.73429 4.98059L1.3349 9.55142C0.589538 10.3258 0.589537 11.5509 1.3349 12.3253L4.7109 15.8328C5.08994 16.2267 5.59005 16.4307 6.09459 16.4451C6.6373 16.4605 7.18513 16.2565 7.59286 15.8328L8.09459 15.3116V34.3061C8.09459 35.4107 8.99002 36.3061 10.0946 36.3061H29.9054C31.01 36.3061 31.9054 35.4107 31.9054 34.3061V15.3116L32.4071 15.8328C32.8149 16.2565 33.3627 16.4605 33.9054 16.4451Z" fill="black" fill-opacity="0.3"/>
<rect x="16" y="9" width="8" height="27" fill="#3A3635"/>
<rect x="31" y="16" width="8" height="22" transform="rotate(90 31 16)" fill="#3A3635"/>
<path fill-rule="evenodd" clip-rule="evenodd" d="M6 15L2 11L4.82843 8.17157L8.82843 12.1716L6 15Z" fill="#3A3635"/>
<path fill-rule="evenodd" clip-rule="evenodd" d="M38 11L34 15L31.1716 12.1716L35.1716 8.17157L38 11Z" fill="#3A3635"/>
<path d="M28 3.5C28 4.35359 27.7931 5.19883 27.391 5.98744C26.989 6.77606 26.3997 7.49261 25.6569 8.09619C24.914 8.69978 24.0321 9.17856 23.0615 9.50522C22.0909 9.83187 21.0506 10 20 10C18.9494 10 17.9091 9.83187 16.9385 9.50522C15.9679 9.17856 15.086 8.69977 14.3431 8.09619C13.6003 7.49261 13.011 6.77606 12.609 5.98744C12.2069 5.19883 12 4.35359 12 3.5H14.7236C14.7236 4.06299 14.8601 4.62046 15.1252 5.14059C15.3904 5.66072 15.7791 6.13333 16.269 6.53142C16.759 6.92951 17.3406 7.24529 17.9808 7.46074C18.621 7.67618 19.3071 7.78707 20 7.78707C20.6929 7.78707 21.379 7.67618 22.0192 7.46074C22.6594 7.24529 23.241 6.92951 23.731 6.53142C24.2209 6.13333 24.6096 5.66072 24.8748 5.14059C25.1399 4.62046 25.2764 4.06299 25.2764 3.5H28Z" fill="#3A3635"/>
<path fill-rule="evenodd" clip-rule="evenodd" d="M29.9054 10.3496L33.8481 14.4459L37.2241 10.9384L32.8247 6.36752C31.6936 5.19236 30.1329 4.52832 28.5018 4.52832H26.1435C26.1292 4.53297 26.0947 4.54796 26.0374 4.59055C25.9186 4.67893 25.7672 4.84227 25.6281 5.07787C24.4912 7.00345 22.4135 8.33427 20 8.33427C17.5865 8.33427 15.5088 7.00345 14.3719 5.07787C14.2328 4.84227 14.0815 4.67893 13.9626 4.59055C13.9054 4.54796 13.8708 4.53297 13.8565 4.52832H11.4982C9.86714 4.52832 8.30636 5.19236 7.17527 6.36752L2.77587 10.9384L6.15188 14.4459L10.0946 10.3496V34.3061H29.9054V10.3496ZM33.9054 16.4451C34.4099 16.4307 34.91 16.2267 35.2891 15.8328L38.6651 12.3253C39.4104 11.5509 39.4104 10.3258 38.6651 9.55142L34.2657 4.98059C32.7576 3.4137 30.6765 2.52832 28.5018 2.52832H26.1345C25.1778 2.52832 24.3924 3.23718 23.9059 4.061C23.1008 5.42465 21.6526 6.33427 20 6.33427C18.3474 6.33427 16.8992 5.42465 16.0941 4.061C15.6076 3.23718 14.8222 2.52832 13.8655 2.52832H11.4982C9.32345 2.52832 7.24241 3.4137 5.73429 4.98059L1.3349 9.55142C0.589538 10.3258 0.589537 11.5509 1.3349 12.3253L4.7109 15.8328C5.08994 16.2267 5.59005 16.4307 6.09459 16.4451C6.6373 16.4605 7.18513 16.2565 7.59286 15.8328L8.09459 15.3116V34.3061C8.09459 35.4107 8.99002 36.3061 10.0946 36.3061H29.9054C31.01 36.3061 31.9054 35.4107 31.9054 34.3061V15.3116L32.4071 15.8328C32.8149 16.2565 33.3627 16.4605 33.9054 16.4451Z" fill="#D6D6D8"/>
</svg>
