<svg width="40" height="40" viewBox="0 0 40 40" fill="none" xmlns="http://www.w3.org/2000/svg">
<path d="M1.33491 12.3253C0.589554 11.5509 0.589555 10.3258 1.33491 9.55142L5.73431 4.98059C7.24243 3.4137 9.32346 2.52832 11.4982 2.52832H13.8655C14.8222 2.52832 15.6076 3.23718 16.0941 4.061C16.8992 5.42465 18.3474 6.33427 20 6.33427C21.6526 6.33427 23.1008 5.42465 23.9059 4.061C24.3924 3.23718 25.1778 2.52832 26.1345 2.52832H28.5018C30.6765 2.52832 32.7576 3.4137 34.2657 4.98059L38.6651 9.55142C39.4104 10.3258 39.4104 11.5509 38.6651 12.3253L35.2891 15.8328C34.5023 16.6503 33.1939 16.6503 32.4071 15.8328L31.9054 15.3116V34.3061C31.9054 35.4107 31.01 36.3061 29.9054 36.3061H10.0946C8.99003 36.3061 8.0946 35.4107 8.0946 34.3061V15.3116L7.59288 15.8328C6.80611 16.6503 5.49768 16.6503 4.71092 15.8328L1.33491 12.3253Z" fill="#E60726"/>
<path d="M32.6259 14.6181L30.9054 12.8306V15.3116V34.3061C30.9054 34.8584 30.4577 35.3061 29.9054 35.3061H10.0946C9.54232 35.3061 9.0946 34.8584 9.0946 34.3061V15.3116V12.8306L7.37411 14.6181L6.87239 15.1394C6.47901 15.5481 5.82479 15.5481 5.43141 15.1394L2.0554 11.6318C1.68272 11.2446 1.68272 10.6321 2.0554 10.2449L6.4548 5.67406C7.7744 4.30303 9.59531 3.52832 11.4982 3.52832H13.8655C14.3031 3.52832 14.8224 3.87413 15.233 4.56944C16.204 6.21405 17.9669 7.33427 20 7.33427C22.0331 7.33427 23.796 6.21405 24.767 4.56943C25.1776 3.87413 25.6969 3.52832 26.1345 3.52832H28.5018C30.4047 3.52832 32.2256 4.30303 33.5452 5.67406L37.9446 10.2449C38.3173 10.6321 38.3173 11.2446 37.9446 11.6318L34.5686 15.1394C34.1752 15.5481 33.521 15.5481 33.1276 15.1394L32.6259 14.6181Z" stroke="black" stroke-opacity="0.3" stroke-width="2"/>
<path d="M11.625 32.8697C11.6094 32.8725 11.5941 32.875 11.5792 32.8772C11.149 32.9404 10.7706 33.2525 10.7706 33.6873V34.18C10.7706 34.5039 10.9212 34.826 11.2243 34.9401C11.31 34.9724 11.3979 34.9957 11.4781 34.9994C11.5831 35.0043 11.7013 34.9766 11.8141 34.9363C12.1269 34.8245 12.2867 34.4972 12.2867 34.1651V33.4157C12.2867 33.0258 12.5099 32.6443 12.8953 32.5854C12.9648 32.5748 13.033 32.5699 13.0953 32.574C13.1855 32.58 13.2855 32.6063 13.3827 32.6411C13.6993 32.7545 13.8702 33.0796 13.8772 33.4159L13.8931 34.1785C13.8999 34.5032 14.0591 34.8199 14.364 34.9318C14.4806 34.9746 14.6036 35.0045 14.7125 34.9994C14.7966 34.9956 14.8891 34.9701 14.9787 34.9354C15.273 34.8214 15.42 34.5088 15.42 34.1932V33.4147C15.42 33.0688 15.0581 32.8657 14.7125 32.8772C14.6543 32.8792 14.5911 32.8739 14.5265 32.8641C14.1347 32.8042 13.9039 32.4193 13.9039 32.023V31.1964C13.9039 30.9152 13.7905 30.6372 13.5471 30.4965C13.4053 30.4146 13.2415 30.346 13.0953 30.3508C12.9141 30.3567 12.7176 30.4766 12.5637 30.5982C12.3721 30.7495 12.2867 30.9908 12.2867 31.235V31.9847C12.2867 32.4002 12.034 32.7962 11.625 32.8697Z" fill="white"/>
<path d="M15.1121 32.8697C15.0965 32.8725 15.0812 32.875 15.0663 32.8772C14.6361 32.9404 14.2577 33.2525 14.2577 33.6873V34.18C14.2577 34.5039 14.4083 34.826 14.7114 34.9401C14.7971 34.9724 14.8849 34.9957 14.9652 34.9994C15.0702 35.0043 15.1883 34.9766 15.3012 34.9363C15.614 34.8245 15.7738 34.4972 15.7738 34.1651V33.4157C15.7738 33.0258 15.997 32.6443 16.3824 32.5854C16.4519 32.5748 16.5201 32.5699 16.5824 32.574C16.6726 32.58 16.7725 32.6063 16.8698 32.6411C17.1864 32.7545 17.3573 33.0796 17.3643 33.4159L17.3802 34.1785C17.387 34.5032 17.5462 34.8199 17.8511 34.9318C17.9677 34.9746 18.0907 35.0045 18.1996 34.9994C18.2837 34.9956 18.3762 34.9701 18.4658 34.9354C18.76 34.8214 18.9071 34.5088 18.9071 34.1932V33.4147C18.9071 33.0688 18.5452 32.8657 18.1996 32.8772C18.1414 32.8792 18.0782 32.8739 18.0136 32.8641C17.6218 32.8042 17.391 32.4193 17.391 32.023V31.1964C17.391 30.9152 17.2776 30.6372 17.0342 30.4965C16.8924 30.4146 16.7286 30.346 16.5824 30.3508C16.4011 30.3567 16.2047 30.4766 16.0508 30.5982C15.8592 30.7495 15.7738 30.9908 15.7738 31.235V31.9847C15.7738 32.4002 15.5211 32.7962 15.1121 32.8697Z" fill="white"/>
<path d="M18.5992 32.8697C18.5836 32.8725 18.5683 32.875 18.5534 32.8772C18.1232 32.9404 17.7448 33.2525 17.7448 33.6873V34.18C17.7448 34.5039 17.8954 34.826 18.1985 34.9401C18.2842 34.9724 18.3721 34.9957 18.4523 34.9994C18.5573 35.0043 18.6754 34.9766 18.7883 34.9363C19.1011 34.8245 19.2609 34.4972 19.2609 34.1651V33.4157C19.2609 33.0258 19.4841 32.6443 19.8695 32.5854C19.939 32.5748 20.0072 32.5699 20.0695 32.574C20.1597 32.58 20.2597 32.6063 20.3569 32.6411C20.6735 32.7545 20.8444 33.0796 20.8514 33.4159L20.8673 34.1785C20.8741 34.5032 21.0333 34.8199 21.3382 34.9318C21.4548 34.9746 21.5778 35.0045 21.6867 34.9994C21.7708 34.9956 21.8633 34.9701 21.9529 34.9354C22.2472 34.8214 22.3942 34.5088 22.3942 34.1932V33.4147C22.3942 33.0688 22.0323 32.8657 21.6867 32.8772C21.6285 32.8792 21.5653 32.8739 21.5007 32.8641C21.1089 32.8042 20.8781 32.4193 20.8781 32.023V31.1964C20.8781 30.9152 20.7647 30.6372 20.5213 30.4965C20.3795 30.4146 20.2157 30.346 20.0695 30.3508C19.8883 30.3567 19.6918 30.4766 19.5379 30.5982C19.3463 30.7495 19.2609 30.9908 19.2609 31.235V31.9847C19.2609 32.4002 19.0082 32.7962 18.5992 32.8697Z" fill="white"/>
<path d="M22.0863 32.8697C22.0707 32.8725 22.0554 32.875 22.0405 32.8772C21.6103 32.9404 21.2319 33.2525 21.2319 33.6873V34.18C21.2319 34.5039 21.3825 34.826 21.6856 34.9401C21.7713 34.9724 21.8591 34.9957 21.9394 34.9994C22.0444 35.0043 22.1625 34.9766 22.2754 34.9363C22.5882 34.8245 22.748 34.4972 22.748 34.1651V33.4157C22.748 33.0258 22.9712 32.6443 23.3566 32.5854C23.4261 32.5748 23.4943 32.5699 23.5566 32.574C23.6468 32.58 23.7467 32.6063 23.844 32.6411C24.1606 32.7545 24.3315 33.0796 24.3385 33.4159L24.3544 34.1785C24.3612 34.5032 24.5204 34.8199 24.8253 34.9318C24.9419 34.9746 25.0649 35.0045 25.1738 34.9994C25.2579 34.9956 25.3504 34.9701 25.44 34.9354C25.7342 34.8214 25.8813 34.5088 25.8813 34.1932V33.4147C25.8813 33.0688 25.5194 32.8657 25.1738 32.8772C25.1156 32.8792 25.0524 32.8739 24.9878 32.8641C24.596 32.8042 24.3652 32.4193 24.3652 32.023V31.1964C24.3652 30.9152 24.2518 30.6372 24.0084 30.4965C23.8666 30.4146 23.7028 30.346 23.5566 30.3508C23.3753 30.3567 23.1789 30.4766 23.025 30.5982C22.8334 30.7495 22.748 30.9908 22.748 31.235V31.9847C22.748 32.4002 22.4953 32.7962 22.0863 32.8697Z" fill="white"/>
<path d="M25.5734 32.8697C25.5578 32.8725 25.5425 32.875 25.5276 32.8772C25.0974 32.9404 24.719 33.2525 24.719 33.6873V34.18C24.719 34.5039 24.8696 34.826 25.1727 34.9401C25.2584 34.9724 25.3463 34.9957 25.4265 34.9994C25.5315 35.0043 25.6497 34.9766 25.7625 34.9363C26.0753 34.8245 26.2351 34.4972 26.2351 34.1651V33.4157C26.2351 33.0258 26.4583 32.6443 26.8437 32.5854C26.9132 32.5748 26.9814 32.5699 27.0437 32.574C27.1339 32.58 27.2339 32.6063 27.3311 32.6411C27.6477 32.7545 27.8186 33.0796 27.8256 33.4159L27.8415 34.1785C27.8483 34.5032 28.0075 34.8199 28.3124 34.9318C28.429 34.9746 28.552 35.0045 28.6609 34.9994C28.745 34.9956 28.8375 34.9701 28.9271 34.9354C29.2214 34.8214 29.3684 34.5088 29.3684 34.1932V33.4147C29.3684 33.0688 29.0066 32.8657 28.6609 32.8772C28.6027 32.8792 28.5395 32.8739 28.4749 32.8641C28.0831 32.8042 27.8523 32.4193 27.8523 32.023V31.1964C27.8523 30.9152 27.7389 30.6372 27.4955 30.4965C27.3537 30.4146 27.1899 30.346 27.0437 30.3508C26.8625 30.3567 26.666 30.4766 26.5121 30.5982C26.3205 30.7495 26.2351 30.9908 26.2351 31.235V31.9847C26.2351 32.4002 25.9824 32.7962 25.5734 32.8697Z" fill="white"/>
<path d="M11.625 28.2203C11.6094 28.2231 11.5941 28.2256 11.5792 28.2278C11.149 28.2909 10.7706 28.603 10.7706 29.0378V29.5306C10.7706 29.8544 10.9212 30.1766 11.2243 30.2907C11.31 30.3229 11.3979 30.3463 11.4781 30.35C11.5831 30.3548 11.7013 30.3272 11.8141 30.2869C12.1269 30.1751 12.2867 29.8478 12.2867 29.5156V28.7662C12.2867 28.3763 12.5099 27.9949 12.8953 27.936C12.9648 27.9254 13.033 27.9205 13.0953 27.9246C13.1855 27.9306 13.2855 27.9569 13.3827 27.9917C13.6993 28.105 13.8702 28.4302 13.8772 28.7664L13.8931 29.529C13.8999 29.8537 14.0591 30.1705 14.364 30.2823C14.4806 30.3251 14.6036 30.355 14.7125 30.35C14.7966 30.3461 14.8891 30.3206 14.9787 30.2859C15.273 30.172 15.42 29.8594 15.42 29.5438V28.7652C15.42 28.4194 15.0581 28.2163 14.7125 28.2278C14.6543 28.2297 14.5911 28.2245 14.5265 28.2146C14.1347 28.1547 13.9039 27.7699 13.9039 27.3735V26.5469C13.9039 26.2658 13.7905 25.9877 13.5471 25.847C13.4053 25.7651 13.2415 25.6966 13.0953 25.7013C12.9141 25.7072 12.7176 25.8272 12.5637 25.9487C12.3721 26.1001 12.2867 26.3414 12.2867 26.5855V27.3352C12.2867 27.7508 12.034 28.1468 11.625 28.2203Z" fill="white"/>
<path d="M15.1121 28.2203C15.0965 28.2231 15.0812 28.2256 15.0663 28.2278C14.6361 28.2909 14.2577 28.603 14.2577 29.0378V29.5306C14.2577 29.8544 14.4083 30.1766 14.7114 30.2907C14.7971 30.3229 14.8849 30.3463 14.9652 30.35C15.0702 30.3548 15.1883 30.3272 15.3012 30.2869C15.614 30.1751 15.7738 29.8478 15.7738 29.5156V28.7662C15.7738 28.3763 15.997 27.9949 16.3824 27.936C16.4519 27.9254 16.5201 27.9205 16.5824 27.9246C16.6726 27.9306 16.7725 27.9569 16.8698 27.9917C17.1864 28.105 17.3573 28.4302 17.3643 28.7664L17.3802 29.529C17.387 29.8537 17.5462 30.1705 17.8511 30.2823C17.9677 30.3251 18.0907 30.355 18.1996 30.35C18.2837 30.3461 18.3762 30.3206 18.4658 30.2859C18.76 30.172 18.9071 29.8594 18.9071 29.5438V28.7652C18.9071 28.4194 18.5452 28.2163 18.1996 28.2278C18.1414 28.2297 18.0782 28.2245 18.0136 28.2146C17.6218 28.1547 17.391 27.7699 17.391 27.3735V26.5469C17.391 26.2658 17.2776 25.9877 17.0342 25.847C16.8924 25.7651 16.7286 25.6966 16.5824 25.7013C16.4011 25.7072 16.2047 25.8272 16.0508 25.9487C15.8592 26.1001 15.7738 26.3414 15.7738 26.5855V27.3352C15.7738 27.7508 15.5211 28.1468 15.1121 28.2203Z" fill="white"/>
<path d="M18.5992 28.2203C18.5836 28.2231 18.5683 28.2256 18.5534 28.2278C18.1232 28.2909 17.7448 28.603 17.7448 29.0378V29.5306C17.7448 29.8544 17.8954 30.1766 18.1985 30.2907C18.2842 30.3229 18.3721 30.3463 18.4523 30.35C18.5573 30.3548 18.6754 30.3272 18.7883 30.2869C19.1011 30.1751 19.2609 29.8478 19.2609 29.5156V28.7662C19.2609 28.3763 19.4841 27.9949 19.8695 27.936C19.939 27.9254 20.0072 27.9205 20.0695 27.9246C20.1597 27.9306 20.2597 27.9569 20.3569 27.9917C20.6735 28.105 20.8444 28.4302 20.8514 28.7664L20.8673 29.529C20.8741 29.8537 21.0333 30.1705 21.3382 30.2823C21.4548 30.3251 21.5778 30.355 21.6867 30.35C21.7708 30.3461 21.8633 30.3206 21.9529 30.2859C22.2472 30.172 22.3942 29.8594 22.3942 29.5438V28.7652C22.3942 28.4194 22.0323 28.2163 21.6867 28.2278C21.6285 28.2297 21.5653 28.2245 21.5007 28.2146C21.1089 28.1547 20.8781 27.7699 20.8781 27.3735V26.5469C20.8781 26.2658 20.7647 25.9877 20.5213 25.847C20.3795 25.7651 20.2157 25.6966 20.0695 25.7013C19.8883 25.7072 19.6918 25.8272 19.5379 25.9487C19.3463 26.1001 19.2609 26.3414 19.2609 26.5855V27.3352C19.2609 27.7508 19.0082 28.1468 18.5992 28.2203Z" fill="white"/>
<path d="M22.0863 28.2203C22.0707 28.2231 22.0554 28.2256 22.0405 28.2278C21.6103 28.2909 21.2319 28.603 21.2319 29.0378V29.5306C21.2319 29.8544 21.3825 30.1766 21.6856 30.2907C21.7713 30.3229 21.8591 30.3463 21.9394 30.35C22.0444 30.3548 22.1625 30.3272 22.2754 30.2869C22.5882 30.1751 22.748 29.8478 22.748 29.5156V28.7662C22.748 28.3763 22.9712 27.9949 23.3566 27.936C23.4261 27.9254 23.4943 27.9205 23.5566 27.9246C23.6468 27.9306 23.7467 27.9569 23.844 27.9917C24.1606 28.105 24.3315 28.4302 24.3385 28.7664L24.3544 29.529C24.3612 29.8537 24.5204 30.1705 24.8253 30.2823C24.9419 30.3251 25.0649 30.355 25.1738 30.35C25.2579 30.3461 25.3504 30.3206 25.44 30.2859C25.7342 30.172 25.8813 29.8594 25.8813 29.5438V28.7652C25.8813 28.4194 25.5194 28.2163 25.1738 28.2278C25.1156 28.2297 25.0524 28.2245 24.9878 28.2146C24.596 28.1547 24.3652 27.7699 24.3652 27.3735V26.5469C24.3652 26.2658 24.2518 25.9877 24.0084 25.847C23.8666 25.7651 23.7028 25.6966 23.5566 25.7013C23.3753 25.7072 23.1789 25.8272 23.025 25.9487C22.8334 26.1001 22.748 26.3414 22.748 26.5855V27.3352C22.748 27.7508 22.4953 28.1468 22.0863 28.2203Z" fill="white"/>
<path d="M25.5734 28.2203C25.5578 28.2231 25.5425 28.2256 25.5276 28.2278C25.0974 28.2909 24.719 28.603 24.719 29.0378V29.5306C24.719 29.8544 24.8696 30.1766 25.1727 30.2907C25.2584 30.3229 25.3463 30.3463 25.4265 30.35C25.5315 30.3548 25.6497 30.3272 25.7625 30.2869C26.0753 30.1751 26.2351 29.8478 26.2351 29.5156V28.7662C26.2351 28.3763 26.4583 27.9949 26.8437 27.936C26.9132 27.9254 26.9814 27.9205 27.0437 27.9246C27.1339 27.9306 27.2339 27.9569 27.3311 27.9917C27.6477 28.105 27.8186 28.4302 27.8256 28.7664L27.8415 29.529C27.8483 29.8537 28.0075 30.1705 28.3124 30.2823C28.429 30.3251 28.552 30.355 28.6609 30.35C28.745 30.3461 28.8375 30.3206 28.9271 30.2859C29.2214 30.172 29.3684 29.8594 29.3684 29.5438V28.7652C29.3684 28.4194 29.0066 28.2163 28.6609 28.2278C28.6027 28.2297 28.5395 28.2245 28.4749 28.2146C28.0831 28.1547 27.8523 27.7699 27.8523 27.3735V26.5469C27.8523 26.2658 27.7389 25.9877 27.4955 25.847C27.3537 25.7651 27.1899 25.6966 27.0437 25.7013C26.8625 25.7072 26.666 25.8272 26.5121 25.9487C26.3205 26.1001 26.2351 26.3414 26.2351 26.5855V27.3352C26.2351 27.7508 25.9824 28.1468 25.5734 28.2203Z" fill="white"/>
<path d="M11.625 23.546C11.6094 23.5488 11.5941 23.5513 11.5792 23.5535C11.149 23.6167 10.7706 23.9288 10.7706 24.3636V24.8563C10.7706 25.1802 10.9212 25.5023 11.2243 25.6164C11.31 25.6487 11.3979 25.672 11.4781 25.6757C11.5831 25.6806 11.7013 25.6529 11.8141 25.6126C12.1269 25.5008 12.2867 25.1735 12.2867 24.8414V24.092C12.2867 23.7021 12.5099 23.3206 12.8953 23.2617C12.9648 23.2511 13.033 23.2462 13.0953 23.2503C13.1855 23.2563 13.2855 23.2826 13.3827 23.3174C13.6993 23.4308 13.8702 23.7559 13.8772 24.0922L13.8931 24.8548C13.8999 25.1795 14.0591 25.4962 14.364 25.6081C14.4806 25.6509 14.6036 25.6808 14.7125 25.6757C14.7966 25.6719 14.8891 25.6464 14.9787 25.6117C15.273 25.4977 15.42 25.1851 15.42 24.8695V24.091C15.42 23.7451 15.0581 23.542 14.7125 23.5535C14.6543 23.5555 14.5911 23.5502 14.5265 23.5404C14.1347 23.4805 13.9039 23.0956 13.9039 22.6993V21.8727C13.9039 21.5915 13.7905 21.3135 13.5471 21.1728C13.4053 21.0909 13.2415 21.0223 13.0953 21.0271C12.9141 21.033 12.7176 21.1529 12.5637 21.2745C12.3721 21.4258 12.2867 21.6671 12.2867 21.9113V22.661C12.2867 23.0765 12.034 23.4725 11.625 23.546Z" fill="white"/>
<path d="M15.1121 23.546C15.0965 23.5488 15.0812 23.5513 15.0663 23.5535C14.6361 23.6167 14.2577 23.9288 14.2577 24.3636V24.8563C14.2577 25.1802 14.4083 25.5023 14.7114 25.6164C14.7971 25.6487 14.8849 25.672 14.9652 25.6757C15.0702 25.6806 15.1883 25.6529 15.3012 25.6126C15.614 25.5008 15.7738 25.1735 15.7738 24.8414V24.092C15.7738 23.7021 15.997 23.3206 16.3824 23.2617C16.4519 23.2511 16.5201 23.2462 16.5824 23.2503C16.6726 23.2563 16.7725 23.2826 16.8698 23.3174C17.1864 23.4308 17.3573 23.7559 17.3643 24.0922L17.3802 24.8548C17.387 25.1795 17.5462 25.4962 17.8511 25.6081C17.9677 25.6509 18.0907 25.6808 18.1996 25.6757C18.2837 25.6719 18.3762 25.6464 18.4658 25.6117C18.76 25.4977 18.9071 25.1851 18.9071 24.8695V24.091C18.9071 23.7451 18.5452 23.542 18.1996 23.5535C18.1414 23.5555 18.0782 23.5502 18.0136 23.5404C17.6218 23.4805 17.391 23.0956 17.391 22.6993V21.8727C17.391 21.5915 17.2776 21.3135 17.0342 21.1728C16.8924 21.0909 16.7286 21.0223 16.5824 21.0271C16.4011 21.033 16.2047 21.1529 16.0508 21.2745C15.8592 21.4258 15.7738 21.6671 15.7738 21.9113V22.661C15.7738 23.0765 15.5211 23.4725 15.1121 23.546Z" fill="white"/>
<path d="M18.5992 23.546C18.5836 23.5488 18.5683 23.5513 18.5534 23.5535C18.1232 23.6167 17.7448 23.9288 17.7448 24.3636V24.8563C17.7448 25.1802 17.8954 25.5023 18.1985 25.6164C18.2842 25.6487 18.3721 25.672 18.4523 25.6757C18.5573 25.6806 18.6754 25.6529 18.7883 25.6126C19.1011 25.5008 19.2609 25.1735 19.2609 24.8414V24.092C19.2609 23.7021 19.4841 23.3206 19.8695 23.2617C19.939 23.2511 20.0072 23.2462 20.0695 23.2503C20.1597 23.2563 20.2597 23.2826 20.3569 23.3174C20.6735 23.4308 20.8444 23.7559 20.8514 24.0922L20.8673 24.8548C20.8741 25.1795 21.0333 25.4962 21.3382 25.6081C21.4548 25.6509 21.5778 25.6808 21.6867 25.6757C21.7708 25.6719 21.8633 25.6464 21.9529 25.6117C22.2472 25.4977 22.3942 25.1851 22.3942 24.8695V24.091C22.3942 23.7451 22.0323 23.542 21.6867 23.5535C21.6285 23.5555 21.5653 23.5502 21.5007 23.5404C21.1089 23.4805 20.8781 23.0956 20.8781 22.6993V21.8727C20.8781 21.5915 20.7647 21.3135 20.5213 21.1728C20.3795 21.0909 20.2157 21.0223 20.0695 21.0271C19.8883 21.033 19.6918 21.1529 19.5379 21.2745C19.3463 21.4258 19.2609 21.6671 19.2609 21.9113V22.661C19.2609 23.0765 19.0082 23.4725 18.5992 23.546Z" fill="white"/>
<path d="M22.0863 23.546C22.0707 23.5488 22.0554 23.5513 22.0405 23.5535C21.6103 23.6167 21.2319 23.9288 21.2319 24.3636V24.8563C21.2319 25.1802 21.3825 25.5023 21.6856 25.6164C21.7713 25.6487 21.8591 25.672 21.9394 25.6757C22.0444 25.6806 22.1625 25.6529 22.2754 25.6126C22.5882 25.5008 22.748 25.1735 22.748 24.8414V24.092C22.748 23.7021 22.9712 23.3206 23.3566 23.2617C23.4261 23.2511 23.4943 23.2462 23.5566 23.2503C23.6468 23.2563 23.7467 23.2826 23.844 23.3174C24.1606 23.4308 24.3315 23.7559 24.3385 24.0922L24.3544 24.8548C24.3612 25.1795 24.5204 25.4962 24.8253 25.6081C24.9419 25.6509 25.0649 25.6808 25.1738 25.6757C25.2579 25.6719 25.3504 25.6464 25.44 25.6117C25.7342 25.4977 25.8813 25.1851 25.8813 24.8695V24.091C25.8813 23.7451 25.5194 23.542 25.1738 23.5535C25.1156 23.5555 25.0524 23.5502 24.9878 23.5404C24.596 23.4805 24.3652 23.0956 24.3652 22.6993V21.8727C24.3652 21.5915 24.2518 21.3135 24.0084 21.1728C23.8666 21.0909 23.7028 21.0223 23.5566 21.0271C23.3753 21.033 23.1789 21.1529 23.025 21.2745C22.8334 21.4258 22.748 21.6671 22.748 21.9113V22.661C22.748 23.0765 22.4953 23.4725 22.0863 23.546Z" fill="white"/>
<path d="M25.5734 23.546C25.5578 23.5488 25.5425 23.5513 25.5276 23.5535C25.0974 23.6167 24.719 23.9288 24.719 24.3636V24.8563C24.719 25.1802 24.8696 25.5023 25.1727 25.6164C25.2584 25.6487 25.3463 25.672 25.4265 25.6757C25.5315 25.6806 25.6497 25.6529 25.7625 25.6126C26.0753 25.5008 26.2351 25.1735 26.2351 24.8414V24.092C26.2351 23.7021 26.4583 23.3206 26.8437 23.2617C26.9132 23.2511 26.9814 23.2462 27.0437 23.2503C27.1339 23.2563 27.2339 23.2826 27.3311 23.3174C27.6477 23.4308 27.8186 23.7559 27.8256 24.0922L27.8415 24.8548C27.8483 25.1795 28.0075 25.4962 28.3124 25.6081C28.429 25.6509 28.552 25.6808 28.6609 25.6757C28.745 25.6719 28.8375 25.6464 28.9271 25.6117C29.2214 25.4977 29.3684 25.1851 29.3684 24.8695V24.091C29.3684 23.7451 29.0066 23.542 28.6609 23.5535C28.6027 23.5555 28.5395 23.5502 28.4749 23.5404C28.0831 23.4805 27.8523 23.0956 27.8523 22.6993V21.8727C27.8523 21.5915 27.7389 21.3135 27.4955 21.1728C27.3537 21.0909 27.1899 21.0223 27.0437 21.0271C26.8625 21.033 26.666 21.1529 26.5121 21.2745C26.3205 21.4258 26.2351 21.6671 26.2351 21.9113V22.661C26.2351 23.0765 25.9824 23.4725 25.5734 23.546Z" fill="white"/>
<path d="M11.625 18.8965C11.6094 18.8993 11.5941 18.9019 11.5792 18.904C11.149 18.9672 10.7706 19.2793 10.7706 19.7141V20.2069C10.7706 20.5307 10.9212 20.8528 11.2243 20.9669C11.31 20.9992 11.3979 21.0226 11.4781 21.0263C11.5831 21.0311 11.7013 21.0035 11.8141 20.9631C12.1269 20.8513 12.2867 20.524 12.2867 20.1919V19.4425C12.2867 19.0526 12.5099 18.6711 12.8953 18.6123C12.9648 18.6017 13.033 18.5968 13.0953 18.6009C13.1855 18.6068 13.2855 18.6331 13.3827 18.6679C13.6993 18.7813 13.8702 19.1064 13.8772 19.4427L13.8931 20.2053C13.8999 20.53 14.0591 20.8467 14.364 20.9586C14.4806 21.0014 14.6036 21.0313 14.7125 21.0263C14.7966 21.0224 14.8891 20.9969 14.9787 20.9622C15.273 20.8483 15.42 20.5356 15.42 20.2201V19.4415C15.42 19.0956 15.0581 18.8925 14.7125 18.904C14.6543 18.906 14.5911 18.9008 14.5265 18.8909C14.1347 18.831 13.9039 18.4461 13.9039 18.0498V17.2232C13.9039 16.942 13.7905 16.664 13.5471 16.5233C13.4053 16.4414 13.2415 16.3728 13.0953 16.3776C12.9141 16.3835 12.7176 16.5035 12.5637 16.625C12.3721 16.7763 12.2867 17.0177 12.2867 17.2618V18.0115C12.2867 18.4271 12.034 18.8231 11.625 18.8965Z" fill="white"/>
<path d="M15.1121 18.8965C15.0965 18.8993 15.0812 18.9019 15.0663 18.904C14.6361 18.9672 14.2577 19.2793 14.2577 19.7141V20.2069C14.2577 20.5307 14.4083 20.8528 14.7114 20.9669C14.7971 20.9992 14.8849 21.0226 14.9652 21.0263C15.0702 21.0311 15.1883 21.0035 15.3012 20.9631C15.614 20.8513 15.7738 20.524 15.7738 20.1919V19.4425C15.7738 19.0526 15.997 18.6711 16.3824 18.6123C16.4519 18.6017 16.5201 18.5968 16.5824 18.6009C16.6726 18.6068 16.7725 18.6331 16.8698 18.6679C17.1864 18.7813 17.3573 19.1064 17.3643 19.4427L17.3802 20.2053C17.387 20.53 17.5462 20.8467 17.8511 20.9586C17.9677 21.0014 18.0907 21.0313 18.1996 21.0263C18.2837 21.0224 18.3762 20.9969 18.4658 20.9622C18.76 20.8483 18.9071 20.5356 18.9071 20.2201V19.4415C18.9071 19.0956 18.5452 18.8925 18.1996 18.904C18.1414 18.906 18.0782 18.9008 18.0136 18.8909C17.6218 18.831 17.391 18.4461 17.391 18.0498V17.2232C17.391 16.942 17.2776 16.664 17.0342 16.5233C16.8924 16.4414 16.7286 16.3728 16.5824 16.3776C16.4011 16.3835 16.2047 16.5035 16.0508 16.625C15.8592 16.7763 15.7738 17.0177 15.7738 17.2618V18.0115C15.7738 18.4271 15.5211 18.8231 15.1121 18.8965Z" fill="white"/>
<path d="M18.5992 18.8965C18.5836 18.8993 18.5683 18.9019 18.5534 18.904C18.1232 18.9672 17.7448 19.2793 17.7448 19.7141V20.2069C17.7448 20.5307 17.8954 20.8528 18.1985 20.9669C18.2842 20.9992 18.3721 21.0226 18.4523 21.0263C18.5573 21.0311 18.6754 21.0035 18.7883 20.9631C19.1011 20.8513 19.2609 20.524 19.2609 20.1919V19.4425C19.2609 19.0526 19.4841 18.6711 19.8695 18.6123C19.939 18.6017 20.0072 18.5968 20.0695 18.6009C20.1597 18.6068 20.2597 18.6331 20.3569 18.6679C20.6735 18.7813 20.8444 19.1064 20.8514 19.4427L20.8673 20.2053C20.8741 20.53 21.0333 20.8467 21.3382 20.9586C21.4548 21.0014 21.5778 21.0313 21.6867 21.0263C21.7708 21.0224 21.8633 20.9969 21.9529 20.9622C22.2472 20.8483 22.3942 20.5356 22.3942 20.2201V19.4415C22.3942 19.0956 22.0323 18.8925 21.6867 18.904C21.6285 18.906 21.5653 18.9008 21.5007 18.8909C21.1089 18.831 20.8781 18.4461 20.8781 18.0498V17.2232C20.8781 16.942 20.7647 16.664 20.5213 16.5233C20.3795 16.4414 20.2157 16.3728 20.0695 16.3776C19.8883 16.3835 19.6918 16.5035 19.5379 16.625C19.3463 16.7763 19.2609 17.0177 19.2609 17.2618V18.0115C19.2609 18.4271 19.0082 18.8231 18.5992 18.8965Z" fill="white"/>
<path d="M22.0863 18.8965C22.0707 18.8993 22.0554 18.9019 22.0405 18.904C21.6103 18.9672 21.2319 19.2793 21.2319 19.7141V20.2069C21.2319 20.5307 21.3825 20.8528 21.6856 20.9669C21.7713 20.9992 21.8591 21.0226 21.9394 21.0263C22.0444 21.0311 22.1625 21.0035 22.2754 20.9631C22.5882 20.8513 22.748 20.524 22.748 20.1919V19.4425C22.748 19.0526 22.9712 18.6711 23.3566 18.6123C23.4261 18.6017 23.4943 18.5968 23.5566 18.6009C23.6468 18.6068 23.7467 18.6331 23.844 18.6679C24.1606 18.7813 24.3315 19.1064 24.3385 19.4427L24.3544 20.2053C24.3612 20.53 24.5204 20.8467 24.8253 20.9586C24.9419 21.0014 25.0649 21.0313 25.1738 21.0263C25.2579 21.0224 25.3504 20.9969 25.44 20.9622C25.7342 20.8483 25.8813 20.5356 25.8813 20.2201V19.4415C25.8813 19.0956 25.5194 18.8925 25.1738 18.904C25.1156 18.906 25.0524 18.9008 24.9878 18.8909C24.596 18.831 24.3652 18.4461 24.3652 18.0498V17.2232C24.3652 16.942 24.2518 16.664 24.0084 16.5233C23.8666 16.4414 23.7028 16.3728 23.5566 16.3776C23.3753 16.3835 23.1789 16.5035 23.025 16.625C22.8334 16.7763 22.748 17.0177 22.748 17.2618V18.0115C22.748 18.4271 22.4953 18.8231 22.0863 18.8965Z" fill="white"/>
<path d="M25.5734 18.8965C25.5578 18.8993 25.5425 18.9019 25.5276 18.904C25.0974 18.9672 24.719 19.2793 24.719 19.7141V20.2069C24.719 20.5307 24.8696 20.8528 25.1727 20.9669C25.2584 20.9992 25.3463 21.0226 25.4265 21.0263C25.5315 21.0311 25.6497 21.0035 25.7625 20.9631C26.0753 20.8513 26.2351 20.524 26.2351 20.1919V19.4425C26.2351 19.0526 26.4583 18.6711 26.8437 18.6123C26.9132 18.6017 26.9814 18.5968 27.0437 18.6009C27.1339 18.6068 27.2339 18.6331 27.3311 18.6679C27.6477 18.7813 27.8186 19.1064 27.8256 19.4427L27.8415 20.2053C27.8483 20.53 28.0075 20.8467 28.3124 20.9586C28.429 21.0014 28.552 21.0313 28.6609 21.0263C28.745 21.0224 28.8375 20.9969 28.9271 20.9622C29.2214 20.8483 29.3684 20.5356 29.3684 20.2201V19.4415C29.3684 19.0956 29.0066 18.8925 28.6609 18.904C28.6027 18.906 28.5395 18.9008 28.4749 18.8909C28.0831 18.831 27.8523 18.4461 27.8523 18.0498V17.2232C27.8523 16.942 27.7389 16.664 27.4955 16.5233C27.3537 16.4414 27.1899 16.3728 27.0437 16.3776C26.8625 16.3835 26.666 16.5035 26.5121 16.625C26.3205 16.7763 26.2351 17.0177 26.2351 17.2618V18.0115C26.2351 18.4271 25.9824 18.8231 25.5734 18.8965Z" fill="white"/>
<path d="M11.625 14.2223C11.6094 14.2251 11.5941 14.2276 11.5792 14.2298C11.149 14.293 10.7706 14.6051 10.7706 15.0399V15.5326C10.7706 15.8565 10.9212 16.1786 11.2243 16.2927C11.31 16.325 11.3979 16.3483 11.4781 16.352C11.5831 16.3569 11.7013 16.3292 11.8141 16.2889C12.1269 16.1771 12.2867 15.8498 12.2867 15.5177V14.7683C12.2867 14.3784 12.5099 13.9969 12.8953 13.938C12.9648 13.9274 13.033 13.9225 13.0953 13.9266C13.1855 13.9326 13.2855 13.9589 13.3827 13.9937C13.6993 14.1071 13.8702 14.4322 13.8772 14.7685L13.8931 15.5311C13.8999 15.8558 14.0591 16.1725 14.364 16.2844C14.4806 16.3272 14.6036 16.3571 14.7125 16.352C14.7966 16.3482 14.8891 16.3227 14.9787 16.288C15.273 16.174 15.42 15.8614 15.42 15.5458V14.7673C15.42 14.4214 15.0581 14.2183 14.7125 14.2298C14.6543 14.2318 14.5911 14.2265 14.5265 14.2167C14.1347 14.1568 13.9039 13.7719 13.9039 13.3756V12.549C13.9039 12.2678 13.7905 11.9898 13.5471 11.8491C13.4053 11.7672 13.2415 11.6986 13.0953 11.7034C12.9141 11.7093 12.7176 11.8292 12.5637 11.9508C12.3721 12.1021 12.2867 12.3434 12.2867 12.5876V13.3373C12.2867 13.7528 12.034 14.1488 11.625 14.2223Z" fill="white"/>
<path d="M15.1121 14.2223C15.0965 14.2251 15.0812 14.2276 15.0663 14.2298C14.6361 14.293 14.2577 14.6051 14.2577 15.0399V15.5326C14.2577 15.8565 14.4083 16.1786 14.7114 16.2927C14.7971 16.325 14.8849 16.3483 14.9652 16.352C15.0702 16.3569 15.1883 16.3292 15.3012 16.2889C15.614 16.1771 15.7738 15.8498 15.7738 15.5177V14.7683C15.7738 14.3784 15.997 13.9969 16.3824 13.938C16.4519 13.9274 16.5201 13.9225 16.5824 13.9266C16.6726 13.9326 16.7725 13.9589 16.8698 13.9937C17.1864 14.1071 17.3573 14.4322 17.3643 14.7685L17.3802 15.5311C17.387 15.8558 17.5462 16.1725 17.8511 16.2844C17.9677 16.3272 18.0907 16.3571 18.1996 16.352C18.2837 16.3482 18.3762 16.3227 18.4658 16.288C18.76 16.174 18.9071 15.8614 18.9071 15.5458V14.7673C18.9071 14.4214 18.5452 14.2183 18.1996 14.2298C18.1414 14.2318 18.0782 14.2265 18.0136 14.2167C17.6218 14.1568 17.391 13.7719 17.391 13.3756V12.549C17.391 12.2678 17.2776 11.9898 17.0342 11.8491C16.8924 11.7672 16.7286 11.6986 16.5824 11.7034C16.4011 11.7093 16.2047 11.8292 16.0508 11.9508C15.8592 12.1021 15.7738 12.3434 15.7738 12.5876V13.3373C15.7738 13.7528 15.5211 14.1488 15.1121 14.2223Z" fill="white"/>
<path d="M18.5992 14.2223C18.5836 14.2251 18.5683 14.2276 18.5534 14.2298C18.1232 14.293 17.7448 14.6051 17.7448 15.0399V15.5326C17.7448 15.8565 17.8954 16.1786 18.1985 16.2927C18.2842 16.325 18.3721 16.3483 18.4523 16.352C18.5573 16.3569 18.6754 16.3292 18.7883 16.2889C19.1011 16.1771 19.2609 15.8498 19.2609 15.5177V14.7683C19.2609 14.3784 19.4841 13.9969 19.8695 13.938C19.939 13.9274 20.0072 13.9225 20.0695 13.9266C20.1597 13.9326 20.2597 13.9589 20.3569 13.9937C20.6735 14.1071 20.8444 14.4322 20.8514 14.7685L20.8673 15.5311C20.8741 15.8558 21.0333 16.1725 21.3382 16.2844C21.4548 16.3272 21.5778 16.3571 21.6867 16.352C21.7708 16.3482 21.8633 16.3227 21.9529 16.288C22.2472 16.174 22.3942 15.8614 22.3942 15.5458V14.7673C22.3942 14.4214 22.0323 14.2183 21.6867 14.2298C21.6285 14.2318 21.5653 14.2265 21.5007 14.2167C21.1089 14.1568 20.8781 13.7719 20.8781 13.3756V12.549C20.8781 12.2678 20.7647 11.9898 20.5213 11.8491C20.3795 11.7672 20.2157 11.6986 20.0695 11.7034C19.8883 11.7093 19.6918 11.8292 19.5379 11.9508C19.3463 12.1021 19.2609 12.3434 19.2609 12.5876V13.3373C19.2609 13.7528 19.0082 14.1488 18.5992 14.2223Z" fill="white"/>
<path d="M22.0863 14.2223C22.0707 14.2251 22.0554 14.2276 22.0405 14.2298C21.6103 14.293 21.2319 14.6051 21.2319 15.0399V15.5326C21.2319 15.8565 21.3825 16.1786 21.6856 16.2927C21.7713 16.325 21.8591 16.3483 21.9394 16.352C22.0444 16.3569 22.1625 16.3292 22.2754 16.2889C22.5882 16.1771 22.748 15.8498 22.748 15.5177V14.7683C22.748 14.3784 22.9712 13.9969 23.3566 13.938C23.4261 13.9274 23.4943 13.9225 23.5566 13.9266C23.6468 13.9326 23.7467 13.9589 23.844 13.9937C24.1606 14.1071 24.3315 14.4322 24.3385 14.7685L24.3544 15.5311C24.3612 15.8558 24.5204 16.1725 24.8253 16.2844C24.9419 16.3272 25.0649 16.3571 25.1738 16.352C25.2579 16.3482 25.3504 16.3227 25.44 16.288C25.7342 16.174 25.8813 15.8614 25.8813 15.5458V14.7673C25.8813 14.4214 25.5194 14.2183 25.1738 14.2298C25.1156 14.2318 25.0524 14.2265 24.9878 14.2167C24.596 14.1568 24.3652 13.7719 24.3652 13.3756V12.549C24.3652 12.2678 24.2518 11.9898 24.0084 11.8491C23.8666 11.7672 23.7028 11.6986 23.5566 11.7034C23.3753 11.7093 23.1789 11.8292 23.025 11.9508C22.8334 12.1021 22.748 12.3434 22.748 12.5876V13.3373C22.748 13.7528 22.4953 14.1488 22.0863 14.2223Z" fill="white"/>
<path d="M25.5734 14.2223C25.5578 14.2251 25.5425 14.2276 25.5276 14.2298C25.0974 14.293 24.719 14.6051 24.719 15.0399V15.5326C24.719 15.8565 24.8696 16.1786 25.1727 16.2927C25.2584 16.325 25.3463 16.3483 25.4265 16.352C25.5315 16.3569 25.6497 16.3292 25.7625 16.2889C26.0753 16.1771 26.2351 15.8498 26.2351 15.5177V14.7683C26.2351 14.3784 26.4583 13.9969 26.8437 13.938C26.9132 13.9274 26.9814 13.9225 27.0437 13.9266C27.1339 13.9326 27.2339 13.9589 27.3311 13.9937C27.6477 14.1071 27.8186 14.4322 27.8256 14.7685L27.8415 15.5311C27.8483 15.8558 28.0075 16.1725 28.3124 16.2844C28.429 16.3272 28.552 16.3571 28.6609 16.352C28.745 16.3482 28.8375 16.3227 28.9271 16.288C29.2214 16.174 29.3684 15.8614 29.3684 15.5458V14.7673C29.3684 14.4214 29.0066 14.2183 28.6609 14.2298C28.6027 14.2318 28.5395 14.2265 28.4749 14.2167C28.0831 14.1568 27.8523 13.7719 27.8523 13.3756V12.549C27.8523 12.2678 27.7389 11.9898 27.4955 11.8491C27.3537 11.7672 27.1899 11.6986 27.0437 11.7034C26.8625 11.7093 26.666 11.8292 26.5121 11.9508C26.3205 12.1021 26.2351 12.3434 26.2351 12.5876V13.3373C26.2351 13.7528 25.9824 14.1488 25.5734 14.2223Z" fill="white"/>
<path d="M11.625 9.57283C11.6094 9.57563 11.5941 9.57815 11.5792 9.58034C11.149 9.64348 10.7706 9.95561 10.7706 10.3904V10.8832C10.7706 11.207 10.9212 11.5291 11.2243 11.6432C11.31 11.6755 11.3979 11.6989 11.4781 11.7026C11.5831 11.7074 11.7013 11.6798 11.8141 11.6394C12.1269 11.5276 12.2867 11.2003 12.2867 10.8682V10.1188C12.2867 9.72891 12.5099 9.34744 12.8953 9.28857C12.9648 9.27795 13.033 9.27305 13.0953 9.27717C13.1855 9.28312 13.2855 9.30942 13.3827 9.34424C13.6993 9.4576 13.8702 9.78274 13.8772 10.119L13.8931 10.8816C13.8999 11.2063 14.0591 11.523 14.364 11.6349C14.4806 11.6777 14.6036 11.7076 14.7125 11.7026C14.7966 11.6987 14.8891 11.6732 14.9787 11.6385C15.273 11.5246 15.42 11.2119 15.42 10.8964V10.1178C15.42 9.77195 15.0581 9.56882 14.7125 9.58034C14.6543 9.58228 14.5911 9.57706 14.5265 9.56718C14.1347 9.50729 13.9039 9.12243 13.9039 8.72609V7.89948C13.9039 7.61832 13.7905 7.34031 13.5471 7.19962C13.4053 7.11768 13.2415 7.04913 13.0953 7.05388C12.9141 7.05978 12.7176 7.17976 12.5637 7.30132C12.3721 7.45265 12.2867 7.69395 12.2867 7.9381V8.6878C12.2867 9.10337 12.034 9.49936 11.625 9.57283Z" fill="white"/>
<path d="M15.1121 9.57283C15.0965 9.57563 15.0812 9.57815 15.0663 9.58034C14.6361 9.64348 14.2577 9.95561 14.2577 10.3904V10.8832C14.2577 11.207 14.4083 11.5291 14.7114 11.6432C14.7971 11.6755 14.8849 11.6989 14.9652 11.7026C15.0702 11.7074 15.1883 11.6798 15.3012 11.6394C15.614 11.5276 15.7738 11.2003 15.7738 10.8682V10.1188C15.7738 9.72891 15.997 9.34744 16.3824 9.28857C16.4519 9.27795 16.5201 9.27305 16.5824 9.27717C16.6726 9.28312 16.7725 9.30942 16.8698 9.34424C17.1864 9.4576 17.3573 9.78274 17.3643 10.119L17.3802 10.8816C17.387 11.2063 17.5462 11.523 17.8511 11.6349C17.9677 11.6777 18.0907 11.7076 18.1996 11.7026C18.2837 11.6987 18.3762 11.6732 18.4658 11.6385C18.76 11.5246 18.9071 11.2119 18.9071 10.8964V10.1178C18.9071 9.77195 18.5452 9.56882 18.1996 9.58034C18.1414 9.58228 18.0782 9.57706 18.0136 9.56718C17.6218 9.50729 17.391 9.12243 17.391 8.72609V7.89948C17.391 7.61832 17.2776 7.34031 17.0342 7.19962C16.8924 7.11768 16.7286 7.04913 16.5824 7.05388C16.4011 7.05978 16.2047 7.17976 16.0508 7.30132C15.8592 7.45265 15.7738 7.69395 15.7738 7.9381V8.6878C15.7738 9.10337 15.5211 9.49936 15.1121 9.57283Z" fill="white"/>
<path d="M18.5992 9.57283C18.5836 9.57563 18.5683 9.57815 18.5534 9.58034C18.1232 9.64348 17.7448 9.95561 17.7448 10.3904V10.8832C17.7448 11.207 17.8954 11.5291 18.1985 11.6432C18.2842 11.6755 18.3721 11.6989 18.4523 11.7026C18.5573 11.7074 18.6754 11.6798 18.7883 11.6394C19.1011 11.5276 19.2609 11.2003 19.2609 10.8682V10.1188C19.2609 9.72891 19.4841 9.34744 19.8695 9.28857C19.939 9.27795 20.0072 9.27305 20.0695 9.27717C20.1597 9.28312 20.2597 9.30942 20.3569 9.34424C20.6735 9.4576 20.8444 9.78274 20.8514 10.119L20.8673 10.8816C20.8741 11.2063 21.0333 11.523 21.3382 11.6349C21.4548 11.6777 21.5778 11.7076 21.6867 11.7026C21.7708 11.6987 21.8633 11.6732 21.9529 11.6385C22.2472 11.5246 22.3942 11.2119 22.3942 10.8964V10.1178C22.3942 9.77195 22.0323 9.56882 21.6867 9.58034C21.6285 9.58228 21.5653 9.57706 21.5007 9.56718C21.1089 9.50729 20.8781 9.12243 20.8781 8.72609V7.89948C20.8781 7.61832 20.7647 7.34031 20.5213 7.19962C20.3795 7.11768 20.2157 7.04913 20.0695 7.05388C19.8883 7.05978 19.6918 7.17976 19.5379 7.30132C19.3463 7.45265 19.2609 7.69395 19.2609 7.9381V8.6878C19.2609 9.10337 19.0082 9.49936 18.5992 9.57283Z" fill="white"/>
<path d="M22.0863 9.57283C22.0707 9.57563 22.0554 9.57815 22.0405 9.58034C21.6103 9.64348 21.2319 9.95561 21.2319 10.3904V10.8832C21.2319 11.207 21.3825 11.5291 21.6856 11.6432C21.7713 11.6755 21.8591 11.6989 21.9394 11.7026C22.0444 11.7074 22.1625 11.6798 22.2754 11.6394C22.5882 11.5276 22.748 11.2003 22.748 10.8682V10.1188C22.748 9.72891 22.9712 9.34744 23.3566 9.28857C23.4261 9.27795 23.4943 9.27305 23.5566 9.27717C23.6468 9.28312 23.7467 9.30942 23.844 9.34424C24.1606 9.4576 24.3315 9.78274 24.3385 10.119L24.3544 10.8816C24.3612 11.2063 24.5204 11.523 24.8253 11.6349C24.9419 11.6777 25.0649 11.7076 25.1738 11.7026C25.2579 11.6987 25.3504 11.6732 25.44 11.6385C25.7342 11.5246 25.8813 11.2119 25.8813 10.8964V10.1178C25.8813 9.77195 25.5194 9.56882 25.1738 9.58034C25.1156 9.58228 25.0524 9.57706 24.9878 9.56718C24.596 9.50729 24.3652 9.12243 24.3652 8.72609V7.89948C24.3652 7.61832 24.2518 7.34031 24.0084 7.19962C23.8666 7.11768 23.7028 7.04913 23.5566 7.05388C23.3753 7.05978 23.1789 7.17976 23.025 7.30132C22.8334 7.45265 22.748 7.69395 22.748 7.9381V8.6878C22.748 9.10337 22.4953 9.49936 22.0863 9.57283Z" fill="white"/>
<path d="M25.5734 9.57283C25.5578 9.57563 25.5425 9.57815 25.5276 9.58034C25.0974 9.64348 24.719 9.95561 24.719 10.3904V10.8832C24.719 11.207 24.8696 11.5291 25.1727 11.6432C25.2584 11.6755 25.3463 11.6989 25.4265 11.7026C25.5315 11.7074 25.6497 11.6798 25.7625 11.6394C26.0753 11.5276 26.2351 11.2003 26.2351 10.8682V10.1188C26.2351 9.72891 26.4583 9.34744 26.8437 9.28857C26.9132 9.27795 26.9814 9.27305 27.0437 9.27717C27.1339 9.28312 27.2339 9.30942 27.3311 9.34424C27.6477 9.4576 27.8186 9.78274 27.8256 10.119L27.8415 10.8816C27.8483 11.2063 28.0075 11.523 28.3124 11.6349C28.429 11.6777 28.552 11.7076 28.6609 11.7026C28.745 11.6987 28.8375 11.6732 28.9271 11.6385C29.2214 11.5246 29.3684 11.2119 29.3684 10.8964V10.1178C29.3684 9.77195 29.0066 9.56882 28.6609 9.58034C28.6027 9.58228 28.5395 9.57706 28.4749 9.56718C28.0831 9.50729 27.8523 9.12243 27.8523 8.72609V7.89948C27.8523 7.61832 27.7389 7.34031 27.4955 7.19962C27.3537 7.11768 27.1899 7.04913 27.0437 7.05388C26.8625 7.05978 26.666 7.17976 26.5121 7.30132C26.3205 7.45265 26.2351 7.69395 26.2351 7.9381V8.6878C26.2351 9.10337 25.9824 9.49936 25.5734 9.57283Z" fill="white"/>
<line x1="33.2929" y1="14.2929" x2="37.2929" y2="10.2929" stroke="white" stroke-width="2"/>
<line x1="2.70711" y1="10.2929" x2="6.70711" y2="14.2929" stroke="white" stroke-width="2"/>
<path d="M10.5 28L14 34.5H10L10.5 28Z" fill="#E60726"/>
<path d="M29.5 28L26 35H30L29.5 28Z" fill="#E60726"/>
<path d="M32.6259 14.6181L30.9054 12.8306V15.3116V34.3061C30.9054 34.8584 30.4577 35.3061 29.9054 35.3061H10.0946C9.54232 35.3061 9.0946 34.8584 9.0946 34.3061V15.3116V12.8306L7.37411 14.6181L6.87239 15.1394C6.47901 15.5481 5.82479 15.5481 5.43141 15.1394L2.0554 11.6318C1.68272 11.2446 1.68272 10.6321 2.0554 10.2449L6.4548 5.67406C7.7744 4.30303 9.59531 3.52832 11.4982 3.52832H13.8655C14.3031 3.52832 14.8224 3.87413 15.233 4.56944C16.204 6.21405 17.9669 7.33427 20 7.33427C22.0331 7.33427 23.796 6.21405 24.767 4.56943C25.1776 3.87413 25.6969 3.52832 26.1345 3.52832H28.5018C30.4047 3.52832 32.2256 4.30303 33.5452 5.67406L37.9446 10.2449C38.3173 10.6321 38.3173 11.2446 37.9446 11.6318L34.5686 15.1394C34.1752 15.5481 33.521 15.5481 33.1276 15.1394L32.6259 14.6181Z" stroke="#E60726" stroke-width="2"/>
<path d="M32.6259 14.6181L30.9054 12.8306V15.3116V34.3061C30.9054 34.8584 30.4577 35.3061 29.9054 35.3061H10.0946C9.54232 35.3061 9.0946 34.8584 9.0946 34.3061V15.3116V12.8306L7.37411 14.6181L6.87239 15.1394C6.47901 15.5481 5.82479 15.5481 5.43141 15.1394L2.0554 11.6318C1.68272 11.2446 1.68272 10.6321 2.0554 10.2449L6.4548 5.67406C7.7744 4.30303 9.59531 3.52832 11.4982 3.52832H13.8655C14.3031 3.52832 14.8224 3.87413 15.233 4.56944C16.204 6.21405 17.9669 7.33427 20 7.33427C22.0331 7.33427 23.796 6.21405 24.767 4.56943C25.1776 3.87413 25.6969 3.52832 26.1345 3.52832H28.5018C30.4047 3.52832 32.2256 4.30303 33.5452 5.67406L37.9446 10.2449C38.3173 10.6321 38.3173 11.2446 37.9446 11.6318L34.5686 15.1394C34.1752 15.5481 33.521 15.5481 33.1276 15.1394L32.6259 14.6181Z" stroke="black" stroke-opacity="0.3" stroke-width="2"/>
</svg>
