<svg width="582" height="766" viewBox="0 0 582 766" fill="none" xmlns="http://www.w3.org/2000/svg">
<mask id="path-1-outside-1_140_108" maskUnits="userSpaceOnUse" x="0" y="667" width="581" height="76" fill="black">
<rect fill="white" y="667" width="581" height="76"/>
</mask>
<path d="M105.891 0H484.666C534.648 0 575.166 40.5182 575.166 90.5V364.461C575.166 414.442 534.648 454.96 484.666 454.96H105.891V0Z" fill="#FAD515"/>
<path d="M7 16C7 7.16345 14.1634 0 23 0H221.988V600.478C221.988 617.047 208.557 630.478 191.988 630.478H7V309.5L106.5 228.5L7 146.5V16Z" fill="#FAD515"/>
<path d="M73 310.5C73 323.151 83.3344 333.5 96.0826 333.5H171.541H241.245L222 310.5H73Z" fill="#082A5A"/>
<path d="M50 390C50 403.201 68.4119 414 91.1241 414H225.562H360V390H50Z" fill="#082A5A"/>
<path d="M50 57C50 43.7994 68.0555 33 90.3282 33H222.164H354V57H50Z" fill="#082A5A"/>
<path d="M73.0625 137.252C73.0625 124.55 83.36 114.158 96.0625 114.158H171.251H240.562L221.402 137.252H73.0625Z" fill="#082A5A"/>
<path d="M359.5 402C454.493 402 530 318.11 530 223.25C530 128.39 448.993 45 354 45" stroke="#082A5A" stroke-width="24"/>
<path d="M383.089 85.6182L349.082 125.035L314.374 85.7517C325.457 82.9746 337.056 81.5 349 81.5C360.751 81.5 372.169 82.9274 383.089 85.6182ZM305.076 88.4238L293.638 98.5298L336.5 147.042V169.452L297.034 198.656L288.998 195.565L279.882 191.783L246.07 137.989L227.798 149.473C245.295 120.887 272.622 98.9699 305.076 88.4238ZM207.134 217.275C208.161 193.46 215.054 171.166 226.404 151.801L254.159 195.959L207.134 217.275ZM208.339 243.079L271.38 214.503L280.09 217.853L287.658 220.993L304.542 268.026L302.456 271.116L296.06 280.071L229.839 292.196L231.998 303.987C219.736 286.196 211.427 265.471 208.339 243.079ZM311.906 217.508L349.404 189.759L385.681 216.154L371.142 260.5H327.34L311.906 217.508ZM322.171 284.807L322.39 284.5H374.909L382.707 293.598L383.065 294.057L376.065 361.256L381.326 361.804C370.942 364.222 360.12 365.5 349 365.5C337.861 365.5 327.021 364.217 316.621 361.792L320.949 361.39L314.845 295.66L322.171 284.807ZM291.635 305.28L296.289 355.395C274.346 346.618 255.105 332.524 240.159 314.706L291.635 305.28ZM457.053 315.638C442.004 333.269 422.716 347.172 400.766 355.769L406.13 304.278L457.053 315.638ZM462.612 292.288L401.511 278.658L401.301 278.413L393.721 268.667L409.421 220.781L418.568 217.541L429.585 213.929L486.025 241.763L490.737 232.209C488.832 263.702 476.662 292.426 457.529 315.077L462.612 292.288ZM444.972 194.757L471.384 151.441C482.879 170.921 489.855 193.386 490.871 217.393L444.972 194.757ZM385.845 86.327C417.937 94.9254 445.545 114.486 464.41 140.75L453.755 134.253L418.475 192.112L410.821 194.824L401.402 197.912L361 168.516V147.961L402.086 100.339L385.845 86.327Z" stroke="#082A5A" stroke-width="24"/>
</svg>
