<svg width="40" height="40" viewBox="0 0 40 40" fill="none" xmlns="http://www.w3.org/2000/svg">
<path d="M1.33492 12.3253C0.589552 11.5509 0.589553 10.3258 1.33492 9.55142L5.73431 4.98059C7.24243 3.4137 9.32347 2.52832 11.4982 2.52832H13.8655C14.8222 2.52832 15.6076 3.23718 16.0941 4.061C16.8992 5.42465 18.3474 6.33427 20 6.33427C21.6526 6.33427 23.1008 5.42465 23.9059 4.061C24.3924 3.23718 25.1778 2.52832 26.1345 2.52832H28.5018C30.6765 2.52832 32.7576 3.4137 34.2657 4.98059L38.6651 9.55142C39.4105 10.3258 39.4104 11.5509 38.6651 12.3253L35.2891 15.8328C34.5023 16.6503 33.1939 16.6503 32.4071 15.8328L31.9054 15.3116V34.3061C31.9054 35.4107 31.01 36.3061 29.9054 36.3061H10.0946C8.99004 36.3061 8.09461 35.4107 8.09461 34.3061V15.3116L7.59288 15.8328C6.80611 16.6503 5.49769 16.6503 4.71092 15.8328L1.33492 12.3253Z" fill="#EEEEEE"/>
<path fill-rule="evenodd" clip-rule="evenodd" d="M29.9054 10.3496L33.8481 14.4459L37.2241 10.9384L32.8247 6.36752C31.6936 5.19236 30.1329 4.52832 28.5018 4.52832H26.1435C26.1292 4.53297 26.0947 4.54796 26.0374 4.59055C25.9186 4.67893 25.7672 4.84227 25.6281 5.07787C24.4912 7.00345 22.4135 8.33427 20 8.33427C17.5865 8.33427 15.5088 7.00345 14.3719 5.07787C14.2328 4.84227 14.0815 4.67893 13.9626 4.59055C13.9054 4.54796 13.8708 4.53297 13.8565 4.52832H11.4982C9.86716 4.52832 8.30638 5.19236 7.17529 6.36752L2.77589 10.9384L6.1519 14.4459L10.0946 10.3496V34.3061H29.9054V10.3496ZM33.9054 16.4451C34.4099 16.4307 34.91 16.2267 35.2891 15.8328L38.6651 12.3253C39.4104 11.5509 39.4104 10.3258 38.6651 9.55142L34.2657 4.98059C32.7576 3.4137 30.6765 2.52832 28.5018 2.52832H26.1345C25.1778 2.52832 24.3924 3.23718 23.9059 4.061C23.1008 5.42465 21.6526 6.33427 20 6.33427C18.3474 6.33427 16.8992 5.42465 16.0941 4.061C15.6076 3.23718 14.8222 2.52832 13.8655 2.52832H11.4982C9.32347 2.52832 7.24243 3.4137 5.73431 4.98059L1.33492 9.55142C0.589553 10.3258 0.589552 11.5509 1.33492 12.3253L4.71092 15.8328C5.08996 16.2267 5.59007 16.4307 6.09461 16.4451C6.63732 16.4605 7.18515 16.2565 7.59288 15.8328L8.09461 15.3116V34.3061C8.09461 35.4107 8.99004 36.3061 10.0946 36.3061H29.9054C31.01 36.3061 31.9054 35.4107 31.9054 34.3061V15.3116L32.4071 15.8328C32.8149 16.2565 33.3627 16.4605 33.9054 16.4451Z" fill="black" fill-opacity="0.3"/>
<path d="M16.4156 22.062L27.026 5L29 6.20155L23.3247 15.5736L26.5325 14.6124L19.8701 29.7492L17.8961 34.5581H17.1558L16.4156 35.3528L12.3442 35.2791L10 36L15.4286 25.186L17.1558 28.3101L19.8701 20.6202L16.4156 22.062Z" fill="#F54142" stroke="black" stroke-width="0.5"/>
<path fill-rule="evenodd" clip-rule="evenodd" d="M29.9054 10.3496L33.8481 14.4459L37.2241 10.9384L32.8247 6.36752C31.6936 5.19236 30.1329 4.52832 28.5018 4.52832H26.1435C26.1292 4.53297 26.0947 4.54796 26.0374 4.59055C25.9186 4.67893 25.7672 4.84227 25.6281 5.07787C24.4912 7.00345 22.4135 8.33427 20 8.33427C17.5865 8.33427 15.5088 7.00345 14.3719 5.07787C14.2328 4.84227 14.0815 4.67893 13.9626 4.59055C13.9054 4.54796 13.8708 4.53297 13.8565 4.52832H11.4982C9.86716 4.52832 8.30638 5.19236 7.17529 6.36752L2.77589 10.9384L1.33492 9.55142L5.73431 4.98059C7.24243 3.4137 9.32347 2.52832 11.4982 2.52832H13.8655C14.8222 2.52832 15.6076 3.23718 16.0941 4.061C16.8992 5.42465 18.3474 6.33427 20 6.33427C21.6526 6.33427 23.1008 5.42465 23.9059 4.061C24.3924 3.23718 25.1778 2.52832 26.1345 2.52832H28.5018C30.6765 2.52832 32.7576 3.4137 34.2657 4.98059L38.6651 9.55142C39.4104 10.3258 39.4104 11.5509 38.6651 12.3253L35.2891 15.8328C34.91 16.2267 34.4099 16.4307 33.9054 16.4451C33.3627 16.4605 32.8149 16.2565 32.4071 15.8328L31.9054 15.3116V34.3061C31.9054 35.4107 31.01 36.3061 29.9054 36.3061H10.0946C8.99004 36.3061 8.09461 35.4107 8.09461 34.3061V15.3116L7.59288 15.8328C7.18515 16.2565 6.63732 16.4605 6.09461 16.4451C5.59007 16.4307 5.08996 16.2267 4.71092 15.8328L1.33492 12.3253C0.589552 11.5509 0.589553 10.3258 1.33492 9.55142L2.77589 10.9384L6.1519 14.4459L10.0946 10.3496V34.3061H29.9054V10.3496Z" fill="black"/>
</svg>
