<svg width="40" height="40" viewBox="0 0 40 40" fill="none" xmlns="http://www.w3.org/2000/svg">
<path d="M1.33492 12.3253C0.589553 11.5509 0.589554 10.3258 1.33492 9.55142L5.73431 4.98059C7.24243 3.4137 9.32347 2.52832 11.4982 2.52832H13.8655C14.8222 2.52832 15.6076 3.23718 16.0941 4.061C16.8992 5.42465 18.3474 6.33427 20 6.33427C21.6526 6.33427 23.1008 5.42465 23.9059 4.061C24.3924 3.23718 25.1778 2.52832 26.1345 2.52832H28.5018C30.6765 2.52832 32.7576 3.4137 34.2657 4.98059L38.6651 9.55142C39.4105 10.3258 39.4104 11.5509 38.6651 12.3253L35.2891 15.8328C34.5023 16.6503 33.1939 16.6503 32.4071 15.8328L31.9054 15.3116V34.3061C31.9054 35.4107 31.01 36.3061 29.9054 36.3061H10.0946C8.99004 36.3061 8.09461 35.4107 8.09461 34.3061V15.3116L7.59288 15.8328C6.80611 16.6503 5.49769 16.6503 4.71092 15.8328L1.33492 12.3253Z" fill="#0148B4"/>
<path fill-rule="evenodd" clip-rule="evenodd" d="M29.9054 10.3496L33.8481 14.4459L37.2241 10.9384L32.8247 6.36752C31.6936 5.19236 30.1329 4.52832 28.5018 4.52832H26.1435C26.1292 4.53297 26.0947 4.54796 26.0374 4.59055C25.9186 4.67893 25.7672 4.84227 25.6281 5.07787C24.4912 7.00345 22.4135 8.33427 20 8.33427C17.5865 8.33427 15.5088 7.00345 14.3719 5.07787C14.2328 4.84227 14.0815 4.67893 13.9626 4.59055C13.9054 4.54796 13.8708 4.53297 13.8565 4.52832H11.4982C9.86716 4.52832 8.30638 5.19236 7.17529 6.36752L2.77589 10.9384L6.1519 14.4459L10.0946 10.3496V34.3061H29.9054V10.3496ZM33.9054 16.4451C34.4099 16.4307 34.91 16.2267 35.2891 15.8328L38.6651 12.3253C39.4104 11.5509 39.4104 10.3258 38.6651 9.55142L34.2657 4.98059C32.7576 3.4137 30.6765 2.52832 28.5018 2.52832H26.1345C25.1778 2.52832 24.3924 3.23718 23.9059 4.061C23.1008 5.42465 21.6526 6.33427 20 6.33427C18.3474 6.33427 16.8992 5.42465 16.0941 4.061C15.6076 3.23718 14.8222 2.52832 13.8655 2.52832H11.4982C9.32347 2.52832 7.24243 3.4137 5.73431 4.98059L1.33492 9.55142C0.589554 10.3258 0.589553 11.5509 1.33492 12.3253L4.71092 15.8328C5.08996 16.2267 5.59007 16.4307 6.09461 16.4451C6.63732 16.4605 7.18515 16.2565 7.59288 15.8328L8.09461 15.3116V34.3061C8.09461 35.4107 8.99004 36.3061 10.0946 36.3061H29.9054C31.01 36.3061 31.9054 35.4107 31.9054 34.3061V15.3116L32.4071 15.8328C32.8149 16.2565 33.3627 16.4605 33.9054 16.4451Z" fill="black" fill-opacity="0.3"/>
<path fill-rule="evenodd" clip-rule="evenodd" d="M17 6.5V34.9837L11 35V4.0162L17 6.5Z" fill="white"/>
<path d="M11.5 4H15L15.5 5.5L13.5 6L11.5 4Z" fill="white"/>
<path fill-rule="evenodd" clip-rule="evenodd" d="M23 6.48509V34.9837L29 35V4L23 6.48509Z" fill="white"/>
<path d="M29 4H25.5L25 5.5L27 6L29 4Z" fill="white"/>
<line x1="12.1" y1="4" x2="12.1" y2="35" stroke="#0148B4" stroke-width="0.2"/>
<line x1="13.1" y1="4" x2="13.1" y2="35" stroke="#0148B4" stroke-width="0.2"/>
<line x1="14.1" y1="4" x2="14.1" y2="35" stroke="#0148B4" stroke-width="0.2"/>
<line x1="15.1" y1="4" x2="15.1" y2="35" stroke="#0148B4" stroke-width="0.2"/>
<line x1="16.1" y1="4" x2="16.1" y2="35" stroke="#0148B4" stroke-width="0.2"/>
<line x1="24.1" y1="4" x2="24.1" y2="35" stroke="#0148B4" stroke-width="0.2"/>
<line x1="25.1" y1="4" x2="25.1" y2="35" stroke="#0148B4" stroke-width="0.2"/>
<line x1="26.1" y1="4" x2="26.1" y2="35" stroke="#0148B4" stroke-width="0.2"/>
<line x1="27.1" y1="4" x2="27.1" y2="35" stroke="#0148B4" stroke-width="0.2"/>
<line x1="28.1" y1="4" x2="28.1" y2="35" stroke="#0148B4" stroke-width="0.2"/>
<line x1="33.2929" y1="14.2929" x2="37.2929" y2="10.2929" stroke="white" stroke-width="2"/>
<line x1="2.70711" y1="10.2929" x2="6.70711" y2="14.2929" stroke="white" stroke-width="2"/>
<path fill-rule="evenodd" clip-rule="evenodd" d="M29.9054 10.3496L33.8481 14.4459L37.2241 10.9384L32.8247 6.36752C31.6936 5.19236 30.1329 4.52832 28.5018 4.52832H26.1435C26.1292 4.53297 26.0947 4.54796 26.0374 4.59055C25.9186 4.67893 25.7672 4.84227 25.6281 5.07787C24.4912 7.00345 22.4135 8.33427 20 8.33427C17.5865 8.33427 15.5088 7.00345 14.3719 5.07787C14.2328 4.84227 14.0815 4.67893 13.9626 4.59055C13.9054 4.54796 13.8708 4.53297 13.8565 4.52832H11.4982C9.86716 4.52832 8.30638 5.19236 7.17529 6.36752L2.77589 10.9384L1.33492 9.55142L5.73431 4.98059C7.24243 3.4137 9.32347 2.52832 11.4982 2.52832H13.8655C14.8222 2.52832 15.6076 3.23718 16.0941 4.061C16.8992 5.42465 18.3474 6.33427 20 6.33427C21.6526 6.33427 23.1008 5.42465 23.9059 4.061C24.3924 3.23718 25.1778 2.52832 26.1345 2.52832H28.5018C30.6765 2.52832 32.7576 3.4137 34.2657 4.98059L38.6651 9.55142C39.4104 10.3258 39.4104 11.5509 38.6651 12.3253L35.2891 15.8328C34.91 16.2267 34.4099 16.4307 33.9054 16.4451C33.3627 16.4605 32.8149 16.2565 32.4071 15.8328L31.9054 15.3116V34.3061C31.9054 35.4107 31.01 36.3061 29.9054 36.3061H10.0946C8.99004 36.3061 8.09461 35.4107 8.09461 34.3061V15.3116L7.59288 15.8328C7.18515 16.2565 6.63732 16.4605 6.09461 16.4451C5.59007 16.4307 5.08996 16.2267 4.71092 15.8328L1.33492 12.3253C0.589553 11.5509 0.589554 10.3258 1.33492 9.55142L2.77589 10.9384L6.1519 14.4459L10.0946 10.3496V34.3061H29.9054V10.3496Z" fill="#043888"/>
</svg>
