<svg width="40" height="40" viewBox="0 0 40 40" fill="none" xmlns="http://www.w3.org/2000/svg">
<path d="M1.33493 13.2752C0.589567 12.5008 0.589568 11.2758 1.33493 10.5014L5.73432 5.93053C7.24244 4.36364 9.32348 3.47826 11.4982 3.47826H13.8655C14.8222 3.47826 15.6076 4.18711 16.0941 5.01094C16.8992 6.37458 18.3474 7.2842 20 7.2842C21.6526 7.2842 23.1008 6.37458 23.9059 5.01094C24.3924 4.18711 25.1778 3.47826 26.1345 3.47826H28.5018C30.6765 3.47826 32.7576 4.36364 34.2657 5.93053L38.6651 10.5014C39.4104 11.2758 39.4104 12.5008 38.6651 13.2752L35.2891 16.7828C34.5023 17.6002 33.1939 17.6002 32.4071 16.7828L31.9054 16.2615V35.256C31.9054 36.3606 31.01 37.256 29.9054 37.256H10.0946C8.99005 37.256 8.09462 36.3606 8.09462 35.256V16.2615L7.59289 16.7828C6.80612 17.6002 5.4977 17.6002 4.71093 16.7828L1.33493 13.2752Z" fill="#C20023"/>
<path fill-rule="evenodd" clip-rule="evenodd" d="M29.9054 11.2995L33.8481 15.3959L37.2241 11.8883L32.8247 7.31746C31.6936 6.14229 30.1329 5.47826 28.5018 5.47826H26.1435C26.1292 5.4829 26.0947 5.4979 26.0374 5.54048C25.9186 5.62887 25.7672 5.79221 25.6281 6.0278C24.4912 7.95339 22.4135 9.2842 20 9.2842C17.5865 9.2842 15.5088 7.95339 14.3719 6.0278C14.2328 5.79221 14.0815 5.62887 13.9626 5.54048C13.9054 5.49789 13.8708 5.4829 13.8565 5.47826H11.4982C9.86718 5.47826 8.30639 6.14229 7.1753 7.31746L2.7759 11.8883L1.33493 10.5014L5.73432 5.93053C7.24244 4.36364 9.32348 3.47826 11.4982 3.47826H13.8655C14.8222 3.47826 15.6076 4.18711 16.0941 5.01094C16.8992 6.37458 18.3474 7.2842 20 7.2842C21.6526 7.2842 23.1008 6.37458 23.9059 5.01094C24.3924 4.18711 25.1778 3.47826 26.1345 3.47826H28.5018C30.6765 3.47826 32.7576 4.36364 34.2657 5.93053L38.6651 10.5014C39.4104 11.2758 39.4104 12.5008 38.6651 13.2752L35.2891 16.7828C34.91 17.1766 34.4099 17.3807 33.9054 17.395C33.3627 17.4105 32.8149 17.2064 32.4071 16.7828L31.9054 16.2615V35.256C31.9054 36.3606 31.01 37.256 29.9054 37.256H10.0946C8.99005 37.256 8.09462 36.3606 8.09462 35.256V16.2615L7.59289 16.7828C7.18516 17.2064 6.63733 17.4105 6.09462 17.395C5.59008 17.3807 5.08997 17.1766 4.71093 16.7828L1.33493 13.2752C0.589567 12.5008 0.589568 11.2758 1.33493 10.5014L2.7759 11.8883L6.15191 15.3959L10.0946 11.2995V35.256H29.9054V11.2995Z" fill="black" fill-opacity="0.4"/>
<path fill-rule="evenodd" clip-rule="evenodd" d="M29.9054 11.2995L33.8481 15.3959L37.2241 11.8883L32.8247 7.31748C31.6936 6.14231 30.1329 5.47827 28.5018 5.47827H26.1435C26.1292 5.48292 26.0947 5.49791 26.0374 5.5405C25.9186 5.62888 25.7672 5.79222 25.6281 6.02782C24.4912 7.9534 22.4135 9.28422 20 9.28422C17.5865 9.28422 15.5088 7.9534 14.3719 6.02782C14.2328 5.79222 14.0815 5.62888 13.9626 5.5405C13.9054 5.49791 13.8708 5.48292 13.8565 5.47827H11.4982C9.86718 5.47827 8.30639 6.14231 7.1753 7.31747L2.7759 11.8883L6.15191 15.3959L10.0946 11.2995V35.256H29.9054V11.2995ZM33.9054 17.3951C34.4099 17.3807 34.91 17.1766 35.2891 16.7828L38.6651 13.2752C39.4104 12.5008 39.4104 11.2758 38.6651 10.5014L34.2657 5.93054C32.7576 4.36365 30.6765 3.47827 28.5018 3.47827H26.1345C25.1778 3.47827 24.3924 4.18713 23.9059 5.01095C23.1008 6.3746 21.6526 7.28422 20 7.28422C18.3474 7.28422 16.8992 6.3746 16.0941 5.01095C15.6076 4.18713 14.8222 3.47827 13.8655 3.47827H11.4982C9.32348 3.47827 7.24244 4.36365 5.73432 5.93054L1.33493 10.5014C0.589568 11.2758 0.589567 12.5008 1.33493 13.2752L4.71093 16.7828C5.08997 17.1766 5.59008 17.3807 6.09462 17.3951C6.63733 17.4105 7.18516 17.2064 7.59289 16.7828L8.09462 16.2615V35.256C8.09462 36.3606 8.99005 37.256 10.0946 37.256H29.9054C31.01 37.256 31.9054 36.3606 31.9054 35.256V16.2615L32.4071 16.7828C32.8149 17.2064 33.3627 17.4105 33.9054 17.3951Z" fill="white"/>
</svg>
