<svg width="40" height="40" viewBox="0 0 40 40" fill="none" xmlns="http://www.w3.org/2000/svg">
<path d="M1.3349 11.8523C0.58954 11.0779 0.589539 9.85284 1.3349 9.07843L5.78755 4.45227C7.29567 2.88538 9.37671 2 11.5515 2H13.9676C14.9243 2 15.7099 2.7085 16.1944 3.53342C17.0038 4.91122 18.4643 5.83099 20.1316 5.83099C21.7989 5.83099 23.2594 4.91122 24.0687 3.53342C24.5533 2.7085 25.3389 2 26.2956 2H28.7117C30.8864 2 32.9675 2.88538 34.4756 4.45227L38.9282 9.07843C39.6736 9.85284 39.6736 11.0779 38.9282 11.8523L35.5118 15.4019C34.725 16.2193 33.4166 16.2193 32.6298 15.4019L32.1153 14.8674V34C32.1153 35.1046 31.2199 36 30.1153 36H10.1479C9.04328 36 8.14785 35.1046 8.14785 34V14.8674L7.63334 15.4019C6.84658 16.2193 5.53815 16.2193 4.75138 15.4019L1.3349 11.8523Z" fill="white"/>
<path d="M32.8358 14.1739L31.1153 12.3864V14.8674V34C31.1153 34.5523 30.6676 35 30.1153 35H10.1479C9.59556 35 9.14785 34.5523 9.14785 34V14.8674V12.3864L7.42736 14.1739L6.91285 14.7084C6.51947 15.1172 5.86526 15.1172 5.47187 14.7084L2.05539 11.1588C1.68271 10.7716 1.68271 10.1591 2.05539 9.7719L6.50804 5.14574C7.82765 3.77471 9.64856 3 11.5515 3H13.9676C14.4052 3 14.9243 3.34558 15.3322 4.03991C16.3072 5.69968 18.083 6.83099 20.1316 6.83099C22.1802 6.83099 23.956 5.69968 24.931 4.03991C25.3388 3.34558 25.858 3 26.2956 3H28.7117C30.6146 3 32.4355 3.77471 33.7551 5.14574L38.2078 9.7719C38.5804 10.1591 38.5804 10.7716 38.2078 11.1588L34.7913 14.7084C34.3979 15.1172 33.7437 15.1172 33.3503 14.7084L32.8358 14.1739Z" stroke="black" stroke-opacity="0.3" stroke-width="2"/>
<path d="M32.8358 14.1739L31.1153 12.3864V14.8674V34C31.1153 34.5523 30.6676 35 30.1153 35H10.1479C9.59556 35 9.14785 34.5523 9.14785 34V14.8674V12.3864L7.42736 14.1739L6.91285 14.7084C6.51947 15.1172 5.86526 15.1172 5.47187 14.7084L2.05539 11.1588C1.68271 10.7716 1.68271 10.1591 2.05539 9.7719L6.50804 5.14574C7.82765 3.77471 9.64856 3 11.5515 3H13.9676C14.4052 3 14.9243 3.34558 15.3322 4.03991C16.3072 5.69968 18.083 6.83099 20.1316 6.83099C22.1802 6.83099 23.956 5.69968 24.931 4.03991C25.3388 3.34558 25.858 3 26.2956 3H28.7117C30.6146 3 32.4355 3.77471 33.7551 5.14574L38.2078 9.7719C38.5804 10.1591 38.5804 10.7716 38.2078 11.1588L34.7913 14.7084C34.3979 15.1172 33.7437 15.1172 33.3503 14.7084L32.8358 14.1739Z" stroke="#C2B22E" stroke-width="2"/>
</svg>
