<svg width="40" height="40" viewBox="0 0 40 40" fill="none" xmlns="http://www.w3.org/2000/svg">
<path d="M1.3349 11.8523C0.58954 11.0779 0.589539 9.85284 1.3349 9.07843L5.78755 4.45227C7.29567 2.88538 9.37671 2 11.5515 2H13.9676C14.9243 2 15.7099 2.7085 16.1944 3.53342C17.0038 4.91122 18.4643 5.83099 20.1316 5.83099C21.7989 5.83099 23.2594 4.91122 24.0687 3.53342C24.5533 2.7085 25.3389 2 26.2956 2H28.7117C30.8864 2 32.9675 2.88538 34.4756 4.45227L38.9282 9.07843C39.6736 9.85284 39.6736 11.0779 38.9282 11.8523L35.5118 15.4019C34.725 16.2193 33.4166 16.2193 32.6298 15.4019L32.1153 14.8674V34C32.1153 35.1046 31.2199 36 30.1153 36H10.1479C9.04328 36 8.14785 35.1046 8.14785 34V14.8674L7.63334 15.4019C6.84658 16.2193 5.53815 16.2193 4.75138 15.4019L1.3349 11.8523Z" fill="#0649A1"/>
<path d="M32.8358 14.1739L31.1153 12.3864V14.8674V34C31.1153 34.5523 30.6676 35 30.1153 35H10.1479C9.59556 35 9.14785 34.5523 9.14785 34V14.8674V12.3864L7.42736 14.1739L6.91285 14.7084C6.51947 15.1172 5.86526 15.1172 5.47187 14.7084L2.05539 11.1588C1.68271 10.7716 1.68271 10.1591 2.05539 9.7719L6.50804 5.14574C7.82765 3.77471 9.64856 3 11.5515 3H13.9676C14.4052 3 14.9243 3.34558 15.3322 4.03991C16.3072 5.69968 18.083 6.83099 20.1316 6.83099C22.1802 6.83099 23.956 5.69968 24.931 4.03991C25.3388 3.34558 25.858 3 26.2956 3H28.7117C30.6146 3 32.4355 3.77471 33.7551 5.14574L38.2078 9.7719C38.5804 10.1591 38.5804 10.7716 38.2078 11.1588L34.7913 14.7084C34.3979 15.1172 33.7437 15.1172 33.3503 14.7084L32.8358 14.1739Z" stroke="black" stroke-opacity="0.3" stroke-width="2"/>
<path d="M28 3C28 3.78793 27.7931 4.56815 27.391 5.2961C26.989 6.02406 26.3997 6.68549 25.6569 7.24264C24.914 7.79979 24.0321 8.24175 23.0615 8.54328C22.0909 8.8448 21.0506 9 20 9C18.9494 9 17.9091 8.8448 16.9385 8.54328C15.9679 8.24175 15.086 7.79979 14.3431 7.24264C13.6003 6.68549 13.011 6.02406 12.609 5.2961C12.2069 4.56815 12 3.78793 12 3H15.2661C15.2661 3.46625 15.3885 3.92793 15.6264 4.3587C15.8643 4.78945 16.213 5.18085 16.6526 5.51054C17.0922 5.84022 17.6141 6.10175 18.1884 6.28017C18.7628 6.4586 19.3783 6.55044 20 6.55044C20.6217 6.55044 21.2372 6.4586 21.8116 6.28017C22.3859 6.10175 22.9078 5.84022 23.3474 5.51054C23.787 5.18085 24.1357 4.78945 24.3736 4.3587C24.6115 3.92793 24.7339 3.46625 24.7339 3H28Z" fill="white"/>
<path d="M32.8358 14.1739L31.1153 12.3864V14.8674V34C31.1153 34.5523 30.6676 35 30.1153 35H10.1479C9.59556 35 9.14785 34.5523 9.14785 34V14.8674V12.3864L7.42736 14.1739L6.91285 14.7084C6.51947 15.1172 5.86526 15.1172 5.47187 14.7084L2.05539 11.1588C1.68271 10.7716 1.68271 10.1591 2.05539 9.7719L6.50804 5.14574C7.82765 3.77471 9.64856 3 11.5515 3H13.9676C14.4052 3 14.9243 3.34558 15.3322 4.03991C16.3072 5.69968 18.083 6.83099 20.1316 6.83099C22.1802 6.83099 23.956 5.69968 24.931 4.03991C25.3388 3.34558 25.858 3 26.2956 3H28.7117C30.6146 3 32.4355 3.77471 33.7551 5.14574L38.2078 9.7719C38.5804 10.1591 38.5804 10.7716 38.2078 11.1588L34.7913 14.7084C34.3979 15.1172 33.7437 15.1172 33.3503 14.7084L32.8358 14.1739Z" stroke="#013A8C" stroke-width="2"/>
</svg>
