<svg width="40" height="40" viewBox="0 0 40 40" fill="none" xmlns="http://www.w3.org/2000/svg">
<path d="M1.3349 12.3253C0.589539 11.5509 0.58954 10.3258 1.3349 9.55142L5.7343 4.98059C7.24242 3.4137 9.32345 2.52832 11.4982 2.52832H13.8655C14.8222 2.52832 15.6076 3.23718 16.0941 4.061C16.8992 5.42465 18.3474 6.33427 20 6.33427C21.6526 6.33427 23.1008 5.42465 23.9059 4.061C24.3924 3.23718 25.1778 2.52832 26.1345 2.52832H28.5018C30.6765 2.52832 32.7576 3.4137 34.2657 4.98059L38.6651 9.55142C39.4104 10.3258 39.4104 11.5509 38.6651 12.3253L35.2891 15.8328C34.5023 16.6503 33.1939 16.6503 32.4071 15.8328L31.9054 15.3116V34.3061C31.9054 35.4107 31.01 36.3061 29.9054 36.3061H10.0946C8.99002 36.3061 8.09459 35.4107 8.09459 34.3061V15.3116L7.59287 15.8328C6.8061 16.6503 5.49767 16.6503 4.71091 15.8328L1.3349 12.3253Z" fill="#C2051D"/>
<path d="M32.6259 14.6181L30.9054 12.8306V15.3116V34.3061C30.9054 34.8584 30.4577 35.3061 29.9054 35.3061H10.0946C9.54231 35.3061 9.09459 34.8584 9.09459 34.3061V15.3116V12.8306L7.3741 14.6181L6.87238 15.1394C6.479 15.5481 5.82478 15.5481 5.4314 15.1394L2.05539 11.6318C1.68271 11.2446 1.68271 10.6321 2.05539 10.2449L6.45479 5.67406C7.77439 4.30303 9.5953 3.52832 11.4982 3.52832H13.8655C14.3031 3.52832 14.8224 3.87413 15.233 4.56943C16.204 6.21405 17.9669 7.33427 20 7.33427C22.0331 7.33427 23.796 6.21405 24.767 4.56943C25.1776 3.87413 25.6969 3.52832 26.1345 3.52832H28.5018C30.4047 3.52832 32.2256 4.30303 33.5452 5.67406L37.9446 10.2449C38.3173 10.6321 38.3173 11.2446 37.9446 11.6318L34.5686 15.1394C34.1752 15.5481 33.521 15.5481 33.1276 15.1394L32.6259 14.6181Z" stroke="black" stroke-opacity="0.3" stroke-width="2"/>
<path d="M32.6259 14.6181L30.9054 12.8306V15.3116V34.3061C30.9054 34.8584 30.4577 35.3061 29.9054 35.3061H10.0946C9.54231 35.3061 9.09459 34.8584 9.09459 34.3061V15.3116V12.8306L7.3741 14.6181L6.87238 15.1394C6.479 15.5481 5.82478 15.5481 5.4314 15.1394L2.05539 11.6318C1.68271 11.2446 1.68271 10.6321 2.05539 10.2449L6.45479 5.67406C7.77439 4.30303 9.5953 3.52832 11.4982 3.52832H13.8655C14.3031 3.52832 14.8224 3.87413 15.233 4.56943C16.204 6.21405 17.9669 7.33427 20 7.33427C22.0331 7.33427 23.796 6.21405 24.767 4.56943C25.1776 3.87413 25.6969 3.52832 26.1345 3.52832H28.5018C30.4047 3.52832 32.2256 4.30303 33.5452 5.67406L37.9446 10.2449C38.3173 10.6321 38.3173 11.2446 37.9446 11.6318L34.5686 15.1394C34.1752 15.5481 33.521 15.5481 33.1276 15.1394L32.6259 14.6181Z" stroke="white" stroke-width="2"/>
</svg>
