<svg width="40" height="40" viewBox="0 0 40 40" fill="none" xmlns="http://www.w3.org/2000/svg">
<path d="M1.3349 12.3253C0.589539 11.5509 0.58954 10.3258 1.3349 9.55142L5.7343 4.98059C7.24242 3.4137 9.32345 2.52832 11.4982 2.52832H13.8655C14.8222 2.52832 15.6076 3.23718 16.0941 4.061C16.8992 5.42465 18.3474 6.33427 20 6.33427C21.6526 6.33427 23.1008 5.42465 23.9059 4.061C24.3924 3.23718 25.1778 2.52832 26.1345 2.52832H28.5018C30.6765 2.52832 32.7576 3.4137 34.2657 4.98059L38.6651 9.55142C39.4104 10.3258 39.4104 11.5509 38.6651 12.3253L35.2891 15.8328C34.5023 16.6503 33.1939 16.6503 32.4071 15.8328L31.9054 15.3116V34.3061C31.9054 35.4107 31.01 36.3061 29.9054 36.3061H10.0946C8.99002 36.3061 8.09459 35.4107 8.09459 34.3061V15.3116L7.59287 15.8328C6.8061 16.6503 5.49767 16.6503 4.71091 15.8328L1.3349 12.3253Z" fill="#D4062B"/>
<path d="M32.6259 14.6181L30.9054 12.8306V15.3116V34.3061C30.9054 34.8584 30.4577 35.3061 29.9054 35.3061H10.0946C9.54231 35.3061 9.09459 34.8584 9.09459 34.3061V15.3116V12.8306L7.3741 14.6181L6.87238 15.1394C6.479 15.5481 5.82478 15.5481 5.4314 15.1394L2.05539 11.6318C1.68271 11.2446 1.68271 10.6321 2.05539 10.2449L6.45479 5.67406C7.77439 4.30303 9.5953 3.52832 11.4982 3.52832H13.8655C14.3031 3.52832 14.8224 3.87413 15.233 4.56943C16.204 6.21405 17.9669 7.33427 20 7.33427C22.0331 7.33427 23.796 6.21405 24.767 4.56943C25.1776 3.87413 25.6969 3.52832 26.1345 3.52832H28.5018C30.4047 3.52832 32.2256 4.30303 33.5452 5.67406L37.9446 10.2449C38.3173 10.6321 38.3173 11.2446 37.9446 11.6318L34.5686 15.1394C34.1752 15.5481 33.521 15.5481 33.1276 15.1394L32.6259 14.6181Z" stroke="black" stroke-opacity="0.3" stroke-width="2"/>
<path d="M22.5 7V14" stroke="url(#paint0_linear_113_72)" stroke-width="3"/>
<path d="M17.5 7V14" stroke="url(#paint1_linear_113_72)" stroke-width="3"/>
<path d="M27.5 4V14" stroke="url(#paint2_linear_113_72)" stroke-width="3"/>
<path d="M12.5 3V14" stroke="url(#paint3_linear_113_72)" stroke-width="3"/>
<path d="M22.5 20V35" stroke="url(#paint4_linear_113_72)" stroke-width="3"/>
<path d="M17.5 20V35" stroke="url(#paint5_linear_113_72)" stroke-width="3"/>
<path d="M27.5 20V35" stroke="url(#paint6_linear_113_72)" stroke-width="3"/>
<path d="M12.5 20V35" stroke="url(#paint7_linear_113_72)" stroke-width="3"/>
<path d="M28 4.5C28 5.35359 27.7931 6.19883 27.391 6.98744C26.989 7.77606 26.3997 8.49261 25.6569 9.09619C24.914 9.69977 24.0321 10.1786 23.0615 10.5052C22.0909 10.8319 21.0506 11 20 11C18.9494 11 17.9091 10.8319 16.9385 10.5052C15.9679 10.1786 15.086 9.69977 14.3431 9.09619C13.6003 8.49261 13.011 7.77606 12.609 6.98744C12.2069 6.19883 12 5.35359 12 4.5H15.2661C15.2661 5.0051 15.3885 5.50526 15.6264 5.97192C15.8643 6.43857 16.213 6.86259 16.6526 7.21975C17.0922 7.57691 17.6141 7.86023 18.1884 8.05352C18.7628 8.24682 19.3783 8.3463 20 8.3463C20.6217 8.34631 21.2372 8.24682 21.8116 8.05352C22.3859 7.86023 22.9078 7.57691 23.3474 7.21975C23.787 6.86259 24.1357 6.43857 24.3736 5.97192C24.6115 5.50526 24.7339 5.0051 24.7339 4.5H28Z" fill="#F0EBF6"/>
<path d="M32.6259 14.6181L30.9054 12.8306V15.3116V34.3061C30.9054 34.8584 30.4577 35.3061 29.9054 35.3061H10.0946C9.54231 35.3061 9.09459 34.8584 9.09459 34.3061V15.3116V12.8306L7.3741 14.6181L6.87238 15.1394C6.479 15.5481 5.82478 15.5481 5.4314 15.1394L2.05539 11.6318C1.68271 11.2446 1.68271 10.6321 2.05539 10.2449L6.45479 5.67406C7.77439 4.30303 9.5953 3.52832 11.4982 3.52832H13.8655C14.3031 3.52832 14.8224 3.87413 15.233 4.56943C16.204 6.21405 17.9669 7.33427 20 7.33427C22.0331 7.33427 23.796 6.21405 24.767 4.56943C25.1776 3.87413 25.6969 3.52832 26.1345 3.52832H28.5018C30.4047 3.52832 32.2256 4.30303 33.5452 5.67406L37.9446 10.2449C38.3173 10.6321 38.3173 11.2446 37.9446 11.6318L34.5686 15.1394C34.1752 15.5481 33.521 15.5481 33.1276 15.1394L32.6259 14.6181Z" stroke="#C0092A" stroke-width="2"/>
<line x1="33.2929" y1="14.2929" x2="37.2929" y2="10.2929" stroke="white" stroke-width="2"/>
<line x1="2.70711" y1="10.2929" x2="6.70711" y2="14.2929" stroke="white" stroke-width="2"/>
<defs>
<linearGradient id="paint0_linear_113_72" x1="23" y1="7" x2="23" y2="14" gradientUnits="userSpaceOnUse">
<stop stop-color="#061371"/>
<stop offset="1" stop-color="#D4062B"/>
</linearGradient>
<linearGradient id="paint1_linear_113_72" x1="18" y1="7" x2="18" y2="14" gradientUnits="userSpaceOnUse">
<stop stop-color="#061371"/>
<stop offset="1" stop-color="#D4062B"/>
</linearGradient>
<linearGradient id="paint2_linear_113_72" x1="28" y1="4" x2="28" y2="14" gradientUnits="userSpaceOnUse">
<stop stop-color="#061371"/>
<stop offset="1" stop-color="#D4062B"/>
</linearGradient>
<linearGradient id="paint3_linear_113_72" x1="13" y1="3" x2="13" y2="14" gradientUnits="userSpaceOnUse">
<stop stop-color="#061371"/>
<stop offset="1" stop-color="#D4062B"/>
</linearGradient>
<linearGradient id="paint4_linear_113_72" x1="23" y1="20" x2="23" y2="35" gradientUnits="userSpaceOnUse">
<stop stop-color="#D4062B"/>
<stop offset="0.625056" stop-color="#061371"/>
</linearGradient>
<linearGradient id="paint5_linear_113_72" x1="18" y1="20" x2="18" y2="35" gradientUnits="userSpaceOnUse">
<stop stop-color="#D4062B"/>
<stop offset="0.625056" stop-color="#061371"/>
</linearGradient>
<linearGradient id="paint6_linear_113_72" x1="28" y1="20" x2="28" y2="35" gradientUnits="userSpaceOnUse">
<stop stop-color="#D4062B"/>
<stop offset="0.625056" stop-color="#061371"/>
</linearGradient>
<linearGradient id="paint7_linear_113_72" x1="13" y1="20" x2="13" y2="35" gradientUnits="userSpaceOnUse">
<stop stop-color="#D4062B"/>
<stop offset="0.625056" stop-color="#061371"/>
</linearGradient>
</defs>
</svg>
