<svg width="40" height="40" viewBox="0 0 40 40" fill="none" xmlns="http://www.w3.org/2000/svg">
<path d="M1.3349 12.3253C0.589537 11.5509 0.589538 10.3258 1.3349 9.55142L5.73429 4.98059C7.24241 3.4137 9.32345 2.52832 11.4982 2.52832H13.8655C14.8222 2.52832 15.6076 3.23718 16.0941 4.061C16.8992 5.42465 18.3474 6.33427 20 6.33427C21.6526 6.33427 23.1008 5.42465 23.9059 4.061C24.3924 3.23718 25.1778 2.52832 26.1345 2.52832H28.5018C30.6765 2.52832 32.7576 3.4137 34.2657 4.98059L38.6651 9.55142C39.4104 10.3258 39.4104 11.5509 38.6651 12.3253L35.2891 15.8328C34.5023 16.6503 33.1939 16.6503 32.4071 15.8328L31.9054 15.3116V34.3061C31.9054 35.4107 31.01 36.3061 29.9054 36.3061H10.0946C8.99002 36.3061 8.09459 35.4107 8.09459 34.3061V15.3116L7.59286 15.8328C6.80609 16.6503 5.49767 16.6503 4.7109 15.8328L1.3349 12.3253Z" fill="#00278B"/>
<path d="M28 4C28 4.85359 27.7931 5.69883 27.391 6.48744C26.989 7.27606 26.3997 7.99261 25.6569 8.59619C24.914 9.19978 24.0321 9.67856 23.0615 10.0052C22.0909 10.3319 21.0506 10.5 20 10.5C18.9494 10.5 17.9091 10.3319 16.9385 10.0052C15.9679 9.67856 15.086 9.19977 14.3431 8.59619C13.6003 7.99261 13.011 7.27606 12.609 6.48744C12.2069 5.69883 12 4.85359 12 4H14.7236C14.7236 4.56299 14.8601 5.12046 15.1252 5.64059C15.3904 6.16072 15.7791 6.63333 16.269 7.03142C16.759 7.42951 17.3406 7.74529 17.9808 7.96074C18.621 8.17618 19.3071 8.28707 20 8.28707C20.6929 8.28707 21.379 8.17618 22.0192 7.96074C22.6594 7.74529 23.241 7.42951 23.731 7.03142C24.2209 6.63333 24.6096 6.16072 24.8748 5.64059C25.1399 5.12046 25.2764 4.56299 25.2764 4H28Z" fill="#EEEEEE"/>
<path fill-rule="evenodd" clip-rule="evenodd" d="M29.9054 10.3496L33.8481 14.4459L37.2241 10.9384L32.8247 6.36752C31.6936 5.19236 30.1329 4.52832 28.5018 4.52832H26.1435C26.1292 4.53297 26.0947 4.54796 26.0374 4.59055C25.9186 4.67893 25.7672 4.84227 25.6281 5.07787C24.4912 7.00345 22.4135 8.33427 20 8.33427C17.5865 8.33427 15.5088 7.00345 14.3719 5.07787C14.2328 4.84227 14.0815 4.67893 13.9626 4.59055C13.9054 4.54796 13.8708 4.53297 13.8565 4.52832H11.4982C9.86714 4.52832 8.30636 5.19236 7.17527 6.36752L2.77587 10.9384L1.3349 9.55142L5.73429 4.98059C7.24241 3.4137 9.32345 2.52832 11.4982 2.52832H13.8655C14.8222 2.52832 15.6076 3.23718 16.0941 4.061C16.8992 5.42465 18.3474 6.33427 20 6.33427C21.6526 6.33427 23.1008 5.42465 23.9059 4.061C24.3924 3.23718 25.1778 2.52832 26.1345 2.52832H28.5018C30.6765 2.52832 32.7576 3.4137 34.2657 4.98059L38.6651 9.55142C39.4104 10.3258 39.4104 11.5509 38.6651 12.3253L35.2891 15.8328C34.91 16.2267 34.4099 16.4307 33.9054 16.4451C33.3627 16.4605 32.8149 16.2565 32.4071 15.8328L31.9054 15.3116V34.3061C31.9054 35.4107 31.01 36.3061 29.9054 36.3061H10.0946C8.99002 36.3061 8.09459 35.4107 8.09459 34.3061V15.3116L7.59286 15.8328C7.18513 16.2565 6.6373 16.4605 6.09459 16.4451C5.59005 16.4307 5.08994 16.2267 4.7109 15.8328L1.3349 12.3253C0.589537 11.5509 0.589538 10.3258 1.3349 9.55142L2.77587 10.9384L6.15188 14.4459L10.0946 10.3496V34.3061H29.9054V10.3496Z" fill="black" fill-opacity="0.3"/>
<path fill-rule="evenodd" clip-rule="evenodd" d="M29.9054 10.2995L33.8481 14.3959L37.2241 10.8883L32.8247 6.31748C31.6936 5.14231 30.1329 4.47827 28.5018 4.47827H26.1435C26.1292 4.48292 26.0947 4.49791 26.0374 4.5405C25.9186 4.62888 25.7672 4.79222 25.6281 5.02782C24.4912 6.9534 22.4135 8.28422 20 8.28422C17.5865 8.28422 15.5088 6.9534 14.3719 5.02782C14.2328 4.79222 14.0815 4.62888 13.9626 4.5405C13.9054 4.49791 13.8708 4.48292 13.8565 4.47827H11.4982C9.86714 4.47827 8.30636 5.14231 7.17527 6.31747L2.77587 10.8883L6.15188 14.3959L10.0946 10.2995V34.256H29.9054V10.2995ZM33.9054 16.3951C34.4099 16.3807 34.91 16.1766 35.2891 15.7828L38.6651 12.2752C39.4104 11.5008 39.4104 10.2758 38.6651 9.50137L34.2657 4.93054C32.7576 3.36365 30.6765 2.47827 28.5018 2.47827H26.1345C25.1778 2.47827 24.3924 3.18713 23.9059 4.01095C23.1008 5.3746 21.6526 6.28422 20 6.28422C18.3474 6.28422 16.8992 5.3746 16.0941 4.01095C15.6076 3.18713 14.8222 2.47827 13.8655 2.47827H11.4982C9.32345 2.47827 7.24241 3.36365 5.73429 4.93054L1.3349 9.50137C0.589538 10.2758 0.589537 11.5008 1.3349 12.2752L4.7109 15.7828C5.08994 16.1766 5.59005 16.3807 6.09459 16.3951C6.6373 16.4105 7.18513 16.2064 7.59286 15.7828L8.09459 15.2615V34.256C8.09459 35.3606 8.99002 36.256 10.0946 36.256H29.9054C31.01 36.256 31.9054 35.3606 31.9054 34.256V15.2615L32.4071 15.7828C32.8149 16.2064 33.3627 16.4105 33.9054 16.3951Z" fill="#1648C7"/>
</svg>
