<svg width="40" height="40" viewBox="0 0 40 40" fill="none" xmlns="http://www.w3.org/2000/svg">
<path d="M1.3349 12.3253C0.589539 11.5509 0.58954 10.3258 1.3349 9.55142L5.7343 4.98059C7.24242 3.4137 9.32345 2.52832 11.4982 2.52832H13.8655C14.8222 2.52832 15.6076 3.23718 16.0941 4.061C16.8992 5.42465 18.3474 6.33427 20 6.33427C21.6526 6.33427 23.1008 5.42465 23.9059 4.061C24.3924 3.23718 25.1778 2.52832 26.1345 2.52832H28.5018C30.6765 2.52832 32.7576 3.4137 34.2657 4.98059L38.6651 9.55142C39.4104 10.3258 39.4104 11.5509 38.6651 12.3253L35.2891 15.8328C34.5023 16.6503 33.1939 16.6503 32.4071 15.8328L31.9054 15.3116V34.3061C31.9054 35.4107 31.01 36.3061 29.9054 36.3061H10.0946C8.99002 36.3061 8.09459 35.4107 8.09459 34.3061V15.3116L7.59287 15.8328C6.8061 16.6503 5.49767 16.6503 4.71091 15.8328L1.3349 12.3253Z" fill="#0459AB"/>
<path d="M32.6259 14.6181L30.9054 12.8306V15.3116V34.3061C30.9054 34.8584 30.4577 35.3061 29.9054 35.3061H10.0946C9.54231 35.3061 9.09459 34.8584 9.09459 34.3061V15.3116V12.8306L7.3741 14.6181L6.87238 15.1394C6.479 15.5481 5.82478 15.5481 5.4314 15.1394L2.05539 11.6318C1.68271 11.2446 1.68271 10.6321 2.05539 10.2449L6.45479 5.67406C7.77439 4.30303 9.5953 3.52832 11.4982 3.52832H13.8655C14.3031 3.52832 14.8224 3.87413 15.233 4.56944C16.204 6.21405 17.9669 7.33427 20 7.33427C22.0331 7.33427 23.796 6.21405 24.767 4.56943C25.1776 3.87413 25.6969 3.52832 26.1345 3.52832H28.5018C30.4047 3.52832 32.2256 4.30303 33.5452 5.67406L37.9446 10.2449C38.3173 10.6321 38.3173 11.2446 37.9446 11.6318L34.5686 15.1394C34.1752 15.5481 33.521 15.5481 33.1276 15.1394L32.6259 14.6181Z" stroke="black" stroke-opacity="0.3" stroke-width="2"/>
<path d="M20 7V36" stroke="white" stroke-width="0.3"/>
<path d="M16 6V36" stroke="white" stroke-width="0.3"/>
<path d="M24 6V36" stroke="white" stroke-width="0.3"/>
<path d="M28 4V36" stroke="white" stroke-width="0.3"/>
<path d="M12 4V36" stroke="white" stroke-width="0.3"/>
<line x1="33.2929" y1="14.2929" x2="37.2929" y2="10.2929" stroke="#0A273D" stroke-width="2"/>
<line x1="2.70711" y1="10.2929" x2="6.70711" y2="14.2929" stroke="#0A273D" stroke-width="2"/>
<path d="M28 4C28 4.85359 27.7931 5.69883 27.391 6.48744C26.989 7.27606 26.3997 7.99261 25.6569 8.59619C24.914 9.19978 24.0321 9.67856 23.0615 10.0052C22.0909 10.3319 21.0506 10.5 20 10.5C18.9494 10.5 17.9091 10.3319 16.9385 10.0052C15.9679 9.67856 15.086 9.19977 14.3431 8.59619C13.6003 7.99261 13.011 7.27606 12.609 6.48744C12.2069 5.69883 12 4.85359 12 4H14.7236C14.7236 4.56299 14.8601 5.12046 15.1252 5.64059C15.3904 6.16072 15.7791 6.63333 16.269 7.03142C16.759 7.42951 17.3406 7.74529 17.9808 7.96074C18.621 8.17618 19.3071 8.28707 20 8.28707C20.6929 8.28707 21.379 8.17618 22.0192 7.96074C22.6594 7.74529 23.241 7.42951 23.731 7.03142C24.2209 6.63333 24.6096 6.16072 24.8748 5.64059C25.1399 5.12046 25.2764 4.56299 25.2764 4H28Z" fill="#0D2749"/>
<path d="M32.6259 14.6181L30.9054 12.8306V15.3116V34.3061C30.9054 34.8584 30.4577 35.3061 29.9054 35.3061H10.0946C9.54231 35.3061 9.09459 34.8584 9.09459 34.3061V15.3116V12.8306L7.3741 14.6181L6.87238 15.1394C6.479 15.5481 5.82478 15.5481 5.4314 15.1394L2.05539 11.6318C1.68271 11.2446 1.68271 10.6321 2.05539 10.2449L6.45479 5.67406C7.77439 4.30303 9.5953 3.52832 11.4982 3.52832H13.8655C14.3031 3.52832 14.8224 3.87413 15.233 4.56943C16.204 6.21405 17.9669 7.33427 20 7.33427C22.0331 7.33427 23.796 6.21405 24.767 4.56943C25.1776 3.87413 25.6969 3.52832 26.1345 3.52832H28.5018C30.4047 3.52832 32.2256 4.30303 33.5452 5.67406L37.9446 10.2449C38.3173 10.6321 38.3173 11.2446 37.9446 11.6318L34.5686 15.1394C34.1752 15.5481 33.521 15.5481 33.1276 15.1394L32.6259 14.6181Z" stroke="#0459AB" stroke-width="2"/>
<path d="M32.6259 14.6181L30.9054 12.8306V15.3116V34.3061C30.9054 34.8584 30.4577 35.3061 29.9054 35.3061H10.0946C9.54231 35.3061 9.09459 34.8584 9.09459 34.3061V15.3116V12.8306L7.3741 14.6181L6.87238 15.1394C6.479 15.5481 5.82478 15.5481 5.4314 15.1394L2.05539 11.6318C1.68271 11.2446 1.68271 10.6321 2.05539 10.2449L6.45479 5.67406C7.77439 4.30303 9.5953 3.52832 11.4982 3.52832H13.8655C14.3031 3.52832 14.8224 3.87413 15.233 4.56943C16.204 6.21405 17.9669 7.33427 20 7.33427C22.0331 7.33427 23.796 6.21405 24.767 4.56943C25.1776 3.87413 25.6969 3.52832 26.1345 3.52832H28.5018C30.4047 3.52832 32.2256 4.30303 33.5452 5.67406L37.9446 10.2449C38.3173 10.6321 38.3173 11.2446 37.9446 11.6318L34.5686 15.1394C34.1752 15.5481 33.521 15.5481 33.1276 15.1394L32.6259 14.6181Z" stroke="black" stroke-opacity="0.3" stroke-width="2"/>
</svg>
