<svg width="40" height="40" viewBox="0 0 40 40" fill="none" xmlns="http://www.w3.org/2000/svg">
<path d="M1.33491 12.3253C0.589554 11.5509 0.589555 10.3258 1.33491 9.55142L5.73431 4.98059C7.24243 3.4137 9.32346 2.52832 11.4982 2.52832H13.8655C14.8222 2.52832 15.6076 3.23718 16.0941 4.061C16.8992 5.42465 18.3474 6.33427 20 6.33427C21.6526 6.33427 23.1008 5.42465 23.9059 4.061C24.3924 3.23718 25.1778 2.52832 26.1345 2.52832H28.5018C30.6765 2.52832 32.7576 3.4137 34.2657 4.98059L38.6651 9.55142C39.4104 10.3258 39.4104 11.5509 38.6651 12.3253L35.2891 15.8328C34.5023 16.6503 33.1939 16.6503 32.4071 15.8328L31.9054 15.3116V34.3061C31.9054 35.4107 31.01 36.3061 29.9054 36.3061H10.0946C8.99003 36.3061 8.0946 35.4107 8.0946 34.3061V15.3116L7.59288 15.8328C6.80611 16.6503 5.49768 16.6503 4.71092 15.8328L1.33491 12.3253Z" fill="#EEEEEE"/>
<path d="M27 3V36" stroke="#FF2940" stroke-width="4"/>
<path d="M29 3V36" stroke="#2C67DF" stroke-width="0.3"/>
<path d="M25 5V35" stroke="#2C67DF" stroke-width="0.3"/>
<path d="M22.2 8V35" stroke="#2C67DF" stroke-width="0.3"/>
<path d="M17.85 8V35" stroke="#2C67DF" stroke-width="0.3"/>
<path d="M15.2 8V35" stroke="#2C67DF" stroke-width="0.3"/>
<path d="M10.8 3V36" stroke="#2C67DF" stroke-width="0.3"/>
<path d="M20 7V36" stroke="#FF2940" stroke-width="4"/>
<path d="M13 3V36" stroke="#FF2940" stroke-width="4"/>
<path d="M28 3C28 3.85359 27.7931 4.69883 27.391 5.48744C26.989 6.27606 26.3997 6.99261 25.6569 7.59619C24.914 8.19978 24.0321 8.67856 23.0615 9.00522C22.0909 9.33187 21.0506 9.5 20 9.5C18.9494 9.5 17.9091 9.33187 16.9385 9.00522C15.9679 8.67856 15.086 8.19977 14.3431 7.59619C13.6003 6.99261 13.011 6.27606 12.609 5.48744C12.2069 4.69883 12 3.85359 12 3H14.7236C14.7236 3.56299 14.8601 4.12046 15.1252 4.64059C15.3904 5.16072 15.7791 5.63333 16.269 6.03142C16.759 6.42951 17.3406 6.74529 17.9808 6.96074C18.621 7.17618 19.3071 7.28707 20 7.28707C20.6929 7.28707 21.379 7.17618 22.0192 6.96074C22.6594 6.74529 23.241 6.42951 23.731 6.03142C24.2209 5.63333 24.6096 5.16072 24.8748 4.64059C25.1399 4.12046 25.2764 3.56299 25.2764 3H28Z" fill="#2C67DF"/>
<path fill-rule="evenodd" clip-rule="evenodd" d="M29.9054 10.2995L33.8481 14.3959L37.2241 10.8883L32.8247 6.31748C31.6936 5.14231 30.1329 4.47827 28.5018 4.47827H26.1435C26.1292 4.48292 26.0947 4.49791 26.0374 4.5405C25.9186 4.62888 25.7672 4.79222 25.6281 5.02782C24.4912 6.9534 22.4135 8.28422 20 8.28422C17.5865 8.28422 15.5088 6.9534 14.3719 5.02782C14.2328 4.79222 14.0815 4.62888 13.9626 4.5405C13.9053 4.49791 13.8708 4.48292 13.8565 4.47827H11.4982C9.86715 4.47827 8.30638 5.14231 7.17529 6.31747L2.77589 10.8883L1.33491 9.50137L5.73431 4.93054C7.24243 3.36365 9.32346 2.47827 11.4982 2.47827H13.8655C14.8222 2.47827 15.6076 3.18713 16.0941 4.01095C16.8992 5.3746 18.3474 6.28422 20 6.28422C21.6526 6.28422 23.1008 5.3746 23.9059 4.01095C24.3924 3.18713 25.1778 2.47827 26.1345 2.47827H28.5018C30.6765 2.47827 32.7576 3.36365 34.2657 4.93054L38.6651 9.50137C39.4104 10.2758 39.4104 11.5008 38.6651 12.2752L35.2891 15.7828C34.91 16.1766 34.4099 16.3807 33.9054 16.3951C33.3627 16.4105 32.8149 16.2064 32.4071 15.7828L31.9054 15.2615V34.256C31.9054 35.3606 31.01 36.256 29.9054 36.256H10.0946C8.99003 36.256 8.0946 35.3606 8.0946 34.256V15.2615L7.59288 15.7828C7.18515 16.2064 6.63732 16.4105 6.0946 16.3951C5.59007 16.3807 5.08996 16.1766 4.71092 15.7828L1.33491 12.2752C0.589554 11.5008 0.589555 10.2758 1.33491 9.50137L2.77589 10.8883L6.1519 14.3959L10.0946 10.2995V34.256H29.9054V10.2995Z" fill="#030316"/>
</svg>
