<svg width="40" height="40" viewBox="0 0 40 40" fill="none" xmlns="http://www.w3.org/2000/svg">
<path d="M1.3349 12.3253C0.589539 11.5509 0.58954 10.3258 1.3349 9.55142L5.7343 4.98059C7.24242 3.4137 9.32345 2.52832 11.4982 2.52832H13.8655C14.8222 2.52832 15.6076 3.23718 16.0941 4.061C16.8992 5.42465 18.3474 6.33427 20 6.33427C21.6526 6.33427 23.1008 5.42465 23.9059 4.061C24.3924 3.23718 25.1778 2.52832 26.1345 2.52832H28.5018C30.6765 2.52832 32.7576 3.4137 34.2657 4.98059L38.6651 9.55142C39.4104 10.3258 39.4104 11.5509 38.6651 12.3253L35.2891 15.8328C34.5023 16.6503 33.1939 16.6503 32.4071 15.8328L31.9054 15.3116V34.3061C31.9054 35.4107 31.01 36.3061 29.9054 36.3061H10.0946C8.99002 36.3061 8.09459 35.4107 8.09459 34.3061V15.3116L7.59287 15.8328C6.8061 16.6503 5.49767 16.6503 4.71091 15.8328L1.3349 12.3253Z" fill="#C1E4FA"/>
<path d="M10 4H14.5L20 7.5L25 4H30V35H10V4Z" fill="#6E1B35"/>
<path d="M32.6259 14.6181L30.9054 12.8306V15.3116V34.3061C30.9054 34.8584 30.4577 35.3061 29.9054 35.3061H10.0946C9.54231 35.3061 9.09459 34.8584 9.09459 34.3061V15.3116V12.8306L7.3741 14.6181L6.87238 15.1394C6.479 15.5481 5.82478 15.5481 5.4314 15.1394L2.05539 11.6318C1.68271 11.2446 1.68271 10.6321 2.05539 10.2449L6.45479 5.67406C7.77439 4.30303 9.5953 3.52832 11.4982 3.52832H13.8655C14.3031 3.52832 14.8224 3.87413 15.233 4.56943C16.204 6.21405 17.9669 7.33427 20 7.33427C22.0331 7.33427 23.796 6.21405 24.767 4.56943C25.1776 3.87413 25.6969 3.52832 26.1345 3.52832H28.5018C30.4047 3.52832 32.2256 4.30303 33.5452 5.67406L37.9446 10.2449C38.3173 10.6321 38.3173 11.2446 37.9446 11.6318L34.5686 15.1394C34.1752 15.5481 33.521 15.5481 33.1276 15.1394L32.6259 14.6181Z" stroke="black" stroke-opacity="0.3" stroke-width="2"/>
<line x1="32.8232" y1="14.8232" x2="37.0659" y2="10.5806" stroke="#6E1B35" stroke-width="0.5"/>
<line x1="32.8232" y1="13.8232" x2="37.0659" y2="9.58058" stroke="#6E1B35" stroke-width="0.5"/>
<line x1="2.35355" y1="10.6464" x2="6.35355" y2="14.6464" stroke="#6E1B35"/>
<line x1="2.87673" y1="9.82322" x2="6.87673" y2="13.8232" stroke="#6E1B35" stroke-width="0.5"/>
<path d="M27.4738 4.5C27.4107 5.10177 27.2336 5.69539 26.9456 6.26032L26.9455 6.26036C26.5777 6.98189 26.0347 7.64491 25.3416 8.20813C24.6483 8.77147 23.82 9.2224 22.902 9.53134C21.9841 9.84024 20.9978 10 20 10C19.0022 10 18.0159 9.84024 17.098 9.53134C16.18 9.2224 15.3517 8.77146 14.6584 8.20813C13.9653 7.64491 13.4223 6.98189 13.0545 6.26037L13.0544 6.26032C12.7664 5.69539 12.5893 5.10177 12.5262 4.5H14.2551C14.3146 4.97168 14.458 5.43261 14.6797 5.86764L14.6798 5.86771C14.9792 6.4549 15.4141 6.98102 15.9537 7.41946L15.9537 7.41949C16.4932 7.85782 17.1284 8.20145 17.8213 8.43462L17.8213 8.43463C18.5142 8.66781 19.2543 8.78707 20 8.78707C20.7457 8.78707 21.4858 8.66781 22.1787 8.43463L22.0209 7.96588L22.1787 8.43462C22.8716 8.20145 23.5068 7.85782 24.0463 7.41949L24.0463 7.41946C24.5859 6.98102 25.0208 6.4549 25.3202 5.86771L25.3203 5.86764C25.542 5.43261 25.6854 4.97168 25.7449 4.5H27.4738Z" fill="#6E1B35" stroke="#C1E4FA"/>
<path d="M32.6259 14.6181L30.9054 12.8306V15.3116V34.3061C30.9054 34.8584 30.4577 35.3061 29.9054 35.3061H10.0946C9.54231 35.3061 9.09459 34.8584 9.09459 34.3061V15.3116V12.8306L7.3741 14.6181L6.87238 15.1394C6.479 15.5481 5.82478 15.5481 5.4314 15.1394L2.05539 11.6318C1.68271 11.2446 1.68271 10.6321 2.05539 10.2449L6.45479 5.67406C7.77439 4.30303 9.5953 3.52832 11.4982 3.52832H13.8655C14.3031 3.52832 14.8224 3.87413 15.233 4.56943C16.204 6.21405 17.9669 7.33427 20 7.33427C22.0331 7.33427 23.796 6.21405 24.767 4.56943C25.1776 3.87413 25.6969 3.52832 26.1345 3.52832H28.5018C30.4047 3.52832 32.2256 4.30303 33.5452 5.67406L37.9446 10.2449C38.3173 10.6321 38.3173 11.2446 37.9446 11.6318L34.5686 15.1394C34.1752 15.5481 33.521 15.5481 33.1276 15.1394L32.6259 14.6181Z" stroke="#C0E3FB" stroke-width="2"/>
</svg>
